<svg xmlns="http://www.w3.org/2000/svg" xmlns:xlink="http://www.w3.org/1999/xlink" width="80.611" height="68.367" viewBox="0 0 80.611 68.367"><defs><path id="a" d="M15.954 9.833h48.703v48.702H15.954z"/></defs><clipPath id="b"><use xlink:href="#a" overflow="visible"/></clipPath><path clip-path="url(#b)" fill="#FFF" d="M61.969 9.833H18.646a2.69 2.69 0 0 0-2.692 2.692v43.318a2.69 2.69 0 0 0 2.692 2.692H41.97V39.672h-6.348v-7.348h6.348v-5.42c0-6.292 3.84-9.716 9.447-9.716 2.688 0 5.009.202 5.677.288v6.578h-3.896c-3.052 0-3.64 1.45-3.64 3.58v4.69h7.276l-.948 7.348h-6.328v18.862h12.411a2.69 2.69 0 0 0 2.688-2.692V12.524a2.69 2.69 0 0 0-2.688-2.691"/></svg>