<svg xmlns="http://www.w3.org/2000/svg" width="55.994" height="38.998" viewBox="0 0 55.994 38.998"><path fill="#7B1FA2" d="M35.868 15.686c3.301 0 5.963-2.683 5.963-5.984s-2.662-5.983-5.963-5.983a5.987 5.987 0 0 0-5.984 5.983 5.988 5.988 0 0 0 5.984 5.984m-15.958 0c3.301 0 5.964-2.683 5.964-5.984s-2.663-5.983-5.964-5.983-5.984 2.683-5.984 5.983a5.989 5.989 0 0 0 5.984 5.984m0 3.989c-4.657 0-13.962 2.334-13.962 6.981v4.986h27.924v-4.986c0-4.647-9.304-6.981-13.962-6.981m15.958 0c-.58 0-1.229.039-1.926.109 2.314 1.665 3.92 3.91 3.92 6.872v4.986h11.967v-4.986c0-4.647-9.305-6.981-13.961-6.981"/></svg>