<svg xmlns="http://www.w3.org/2000/svg" width="55.994" height="54.333" viewBox="0 0 55.994 54.333"><path fill="#13DC90" d="M21.352 26.713c-1.528 0-2.771 1.227-2.771 2.738s1.242 2.738 2.771 2.738c1.527 0 2.769-1.226 2.769-2.738s-1.242-2.738-2.769-2.738m13.292 0c-1.528 0-2.77 1.227-2.77 2.738s1.241 2.738 2.77 2.738 2.769-1.226 2.769-2.738-1.241-2.738-2.769-2.738M27.997 5.362c-12.24 0-22.155 9.801-22.155 21.898 0 12.101 9.915 21.9 22.155 21.9s22.155-9.799 22.155-21.9c0-12.097-9.915-21.898-22.155-21.898m0 39.419c-9.77 0-17.724-7.863-17.724-17.521 0-.633.045-1.258.111-1.871 5.217-2.287 9.383-6.516 11.542-11.76a22.202 22.202 0 0 0 18.067 9.252c1.716 0 3.391-.207 4.984-.58.477 1.576.742 3.242.742 4.959.002 9.658-7.95 17.521-17.722 17.521"/></svg>