<svg xmlns="http://www.w3.org/2000/svg" width="55.994" height="38.998" viewBox="0 0 55.994 38.998"><path fill="#477EFF" d="M29.357 9.845V2.122H9.834v34.754h39.049V9.845H29.357zm-11.712 23.17h-3.906v-3.861h3.906v3.861zm0-7.723h-3.906v-3.861h3.906v3.861zm0-7.725h-3.906v-3.861h3.906v3.861zm0-7.722h-3.906V5.983h3.906v3.862zm7.808 23.17h-3.904v-3.861h3.904v3.861zm0-7.723h-3.904v-3.861h3.904v3.861zm0-7.725h-3.904v-3.861h3.904v3.861zm0-7.722h-3.904V5.983h3.904v3.862zm19.525 23.17h-15.62v-3.861h3.905v-3.861h-3.905v-3.861h3.905v-3.864h-3.905v-3.861h15.62v19.308zm-3.907-15.448h-3.904v3.864h3.904v-3.864zm0 7.725h-3.904v3.861h3.904v-3.861z"/></svg>