<svg xmlns="http://www.w3.org/2000/svg" xmlns:xlink="http://www.w3.org/1999/xlink" width="34.25" height="68.367" viewBox="0 0 34.25 68.367"><defs><path id="a" d="M16.92 3.996l-.061.082-.061.082-.062.082c.856 1.153 1.421 2.054 1.805 2.636.375.591.546.893.546.893s.134.224.322.565c.195.334.45.781.687 1.235.234.453.471.9.629 1.242a87.916 87.916 0 0 0 .521 1.137c.149.34.339.796.506 1.255.171.458.333.912.442 1.256.105.343.177.572.177.572l.154.573c.092.342.209.796.3 1.251.091.456.165.909.205 1.249.055.338.073.563.073.563s.096.802.1 1.594c.017.792-.035 1.571-.035 1.571l-.035.379s-.015.218-.062.542a8.688 8.688 0 0 1-.084.552 9.228 9.228 0 0 1-.107.63 9.668 9.668 0 0 1-.132.625 7.405 7.405 0 0 1-.139.542c-.083.316-.151.525-.151.525s-.185.597-.396 1.19c-.114.294-.22.59-.319.809l-.156.365s-.024.059-.066.145l-.15.317c-.104.232-.227.459-.227.459s-.103.201-.25.504c-.166.299-.371.702-.61 1.095-.225.397-.487.782-.67 1.076l-.327.481s-.433.655-.911 1.292l-.352.468-.321.4-.314.393-.003.004-.221.274-.217.279-.428.553c-.257.332-.603.77-.928 1.23l-.904 1.253-.385.593-.385.593-.392.608-.429.717c-.294.487-.583.973-.776 1.359l-.333.632-.331.633c-.185.391-.438.906-.675 1.43-.229.529-.439 1.071-.604 1.47-.083.199-.144.371-.187.491l-.067.188-.243.685c-.148.407-.295.981-.46 1.538-.157.563-.283 1.141-.382 1.566-.079.439-.129.731-.129.731s-.054.289-.118.726c-.025.221-.057.479-.089.754a67.43 67.43 0 0 0-.048.424l-.023.444a20.098 20.098 0 0 0-.032 1.634c-.003.221.014.41.021.54a22.396 22.396 0 0 1 .031.434c.009.137.024.319.051.502l.094.728.091.508c.053.303.157.705.261 1.101.047.198.119.395.174.577.057.184.112.353.174.495l.192.475s.024.062.076.17l.206.441c.179.362.434.833.726 1.276.295.443.644.848.912 1.134.266.29.473.456.473.456s.093.085.317.25l.077-.068.076-.069.076-.068.075-.068c-.066-.081-.121-.156-.155-.202l-.05-.072s-.138-.189-.313-.499a8.863 8.863 0 0 1-.564-1.176 11.144 11.144 0 0 1-.514-1.66c-.026-.101-.036-.16-.036-.16s-.15-.706-.22-1.424c-.03-.359-.06-.719-.06-.99l-.012-.45.018-.645c.001-.16.012-.321.025-.441l.016-.201s.066-1.044.275-2.071c.082-.517.228-1.022.312-1.406.101-.379.179-.63.179-.63l.185-.629c.133-.37.29-.871.482-1.361.372-.983.821-1.935.821-1.936l.075-.165c.046-.105.113-.256.205-.431.181-.351.411-.824.66-1.289l.708-1.265.344-.562s.139-.224.345-.561c.2-.342.5-.776.792-1.216l.43-.645c.144-.201.279-.389.396-.549l.385-.537.387-.534c.243-.313.567-.731.889-1.149.318-.423.659-.827.911-1.133l.421-.509.425-.514.005-.005.359-.434c.106-.13.232-.283.368-.446l.405-.523c.555-.713 1.064-1.462 1.064-1.462l.372-.561c.21-.345.505-.795.763-1.268.273-.464.513-.948.701-1.306l.289-.609s.134-.278.251-.562l.166-.39c.046-.105.072-.178.072-.178l.173-.451c.108-.269.228-.636.351-1.002.116-.368.225-.739.301-1.019.069-.281.117-.468.117-.468s.067-.262.146-.661c.043-.198.09-.43.128-.681.043-.25.086-.517.115-.786.038-.269.066-.538.083-.79.024-.253.039-.489.046-.693.021-.405.02-.676.02-.676l.001-.47-.021-.603a19.341 19.341 0 0 0-.11-1.321c-.108-.959-.323-1.899-.323-1.899s-.052-.265-.157-.657a19.53 19.53 0 0 0-.422-1.421c-.337-1.026-.79-2.005-.79-2.005s-.438-.984-.973-1.917c-.264-.47-.546-.926-.763-1.266-.219-.338-.372-.559-.372-.559s-.605-.887-1.285-1.717c-.67-.837-1.405-1.616-1.405-1.616s-.241-.264-.746-.769c-.51-.5-1.268-1.25-2.41-2.128a7.362 7.362 0 0 1-.064.081"/></defs><clipPath id="b"><use xlink:href="#a" overflow="visible"/></clipPath><linearGradient id="c" gradientUnits="userSpaceOnUse" x1="-418.882" y1="421.141" x2="-418.568" y2="421.141" gradientTransform="scale(125.4495 -125.4495) rotate(34 479.9 895.411)"><stop offset="0" stop-color="#3a0f4d"/><stop offset=".124" stop-color="#7b1fa2"/><stop offset=".16" stop-color="#742caf"/><stop offset=".228" stop-color="#604fd1"/><stop offset=".263" stop-color="#5564e5"/><stop offset=".375" stop-color="#4f6ede"/><stop offset=".565" stop-color="#4189cb"/><stop offset=".808" stop-color="#29b5ac"/><stop offset="1" stop-color="#13dc90"/></linearGradient><path clip-path="url(#b)" fill="url(#c)" d="M-21.46 22.749L19.412-4.82l34.065 50.504-40.873 27.569z"/><linearGradient id="d" gradientUnits="userSpaceOnUse" x1="3.386" y1="37.581" x2="19.798" y2="37.581"><stop offset="0" stop-color="#3a0f4d"/><stop offset=".124" stop-color="#7b1fa2"/><stop offset=".16" stop-color="#742caf"/><stop offset=".228" stop-color="#604fd1"/><stop offset=".263" stop-color="#5564e5"/><stop offset=".375" stop-color="#4f6ede"/><stop offset=".565" stop-color="#4189cb"/><stop offset=".808" stop-color="#29b5ac"/><stop offset="1" stop-color="#13dc90"/></linearGradient><path fill="url(#d)" d="M16.855 16.76l.095.165.093.164.088.166.085.168.042.084.04.085.079.17c.04.083.073.171.073.171l.074.171.07.171.067.173c.035.085.064.172.064.172s.06.174.118.349l.102.352.026.088.021.089.042.177.042.176.038.177.07.353.052.355s.028.176.039.354l.029.354s.019.707.004.706l-.017.44-.015.147-.015.146-.016.146-.014.146-.024.145-.026.144-.049.287-.013.072-.018.071-.033.141-.068.283c.013.002-.166.556-.166.556l-.052.163c.004.001-.06.162-.06.162l-.127.321s-.056.161-.129.318l-.148.312-.147.311c-.086.147-.171.298-.171.298l-.169.301c-.039.076-.087.15-.122.204l-.06.091-.094.146-.094.146s-.185.292-.192.29l-.416.56s-.103.141-.218.274l-.225.271-.222.271c-.114.134-.238.261-.238.261l-.482.516a.838.838 0 0 1-.076.08l-.177.17-.254.249-.253.249a3.327 3.327 0 0 1-.262.241l-.536.471-.096.085a3.971 3.971 0 0 1-.261.218l-.804.655-1.215.908-.005.003-.603.468-.601.469s-.039.029-.091.078l-.197.176-.286.256-.57.515-.363.38c-.21.235-.515.525-.78.856l-.728.907-.299.439-.221.334-.152.227c-.042.062-.066.105-.066.105l-.392.697-.194.349c-.09.179-.171.362-.171.362l-.168.363-.081.183-.082.183s-.023.046-.048.119l-.097.268-.139.389-.138.389-.111.397-.108.397-.074.273a1.012 1.012 0 0 0-.028.125l-.075.404-.037.203-.037.202s-.047.213-.066.432l-.049.432-.048.431s-.006.054-.007.108l-.005.108-.008.217-.015.432-.008.215.004.215.005.215.006.215.006.214.007.215.067.742.018.185c.008.093.023.184.023.184l.027.183.028.183.056.366.029.182.037.181.037.181.039.18.039.179.039.179.126.484c.073.291.183.674.311 1.051.116.38.268.747.367 1.026.105.276.187.457.187.457l.194.447c.128.264.283.619.464.962.172.347.361.685.5.938l.25.414s.366.603.769 1.177c.205.287.419.564.583.77a7.74 7.74 0 0 0 .454.533c-.072-.159-.107-.24-.107-.24s-.285-.633-.524-1.28a22.45 22.45 0 0 1-.463-1.291l-.142-.444c-.086-.267-.201-.62-.298-.978-.108-.354-.187-.717-.258-.983l-.099-.451c.001 0-.171-.723-.281-1.452l-.084-.532-.056-.465-.052-.453-.014-.168-.011-.166-.012-.166-.015-.166-.013-.166L5.624 49l-.01-.331-.005-.165-.004-.164s-.005-.083-.001-.166l.004-.164.013-.655.014-.187.014-.186.013-.187.013-.186.015-.186.025-.185.05-.368.025-.183s.021-.185.025-.184l.07-.362.069-.361c.029-.183.084-.358.084-.358l.045-.167.044-.167.088-.333s.008-.042.032-.102l.076-.224.109-.326.109-.325.134-.315.132-.315.091-.216c.023-.061.045-.097.045-.097l.077-.146.076-.147.148-.295s.071-.148.15-.293l.172-.284.343-.567.387-.539.255-.363.622-.756c.224-.277.491-.521.671-.72l.311-.323.489-.449.244-.226.168-.155c.044-.043.079-.068.079-.068l.524-.418.522-.419.004-.004s.65-.509 1.29-1.031l.858-.75c.117-.102.211-.193.275-.258l.102-.101.566-.558s.145-.134.277-.286l.27-.295.27-.296c.135-.146.263-.3.264-.3l.501-.629s.128-.154.247-.318l.233-.331s.468-.659.455-.67l.418-.698s.053-.086.098-.179l.094-.182.093-.182.094-.182.058-.114c.035-.067.081-.158.119-.254l.159-.379.157-.379.132-.39s.064-.196.13-.391c.063-.195.108-.397.108-.397l.1-.4.023-.099c.013-.05.02-.102.02-.102l.035-.204s.115-.684.102-.686l.032-.345.017-.172s.012-.173.01-.173l.003-.347.002-.172v-.173l-.011-.172-.011-.172-.011-.172-.011-.171-.07-.511s-.026-.201-.073-.399l-.086-.395-.109-.388c-.05-.195-.119-.383-.119-.383l-.133-.377-.151-.368-.077-.183-.088-.178-.089-.176-.044-.088-.049-.086-.194-.342-.208-.333s-.051-.084-.107-.163l-.11-.16-.114-.159-.117-.154s-.058-.079-.122-.152l-.125-.148-.062-.073a8.95 8.95 0 0 0-.065-.072l-.13-.143-.133-.139-.137-.136-.141-.13-.146-.125.101.168"/><linearGradient id="e" gradientUnits="userSpaceOnUse" x1="14.002" y1="45.911" x2="31.033" y2="45.911"><stop offset="0" stop-color="#3a0f4d"/><stop offset=".124" stop-color="#7b1fa2"/><stop offset=".16" stop-color="#742caf"/><stop offset=".228" stop-color="#604fd1"/><stop offset=".263" stop-color="#5564e5"/><stop offset=".375" stop-color="#4f6ede"/><stop offset=".565" stop-color="#4189cb"/><stop offset=".808" stop-color="#29b5ac"/><stop offset="1" stop-color="#13dc90"/></linearGradient><path fill="url(#e)" d="M30.755 29.555l.006.174.003.173v.259c0 .043-.004.086-.004.086l-.01.173-.019.344-.028.261-.028.26s-.026.259-.033.258l-.046.257-.053.296s-.053.295-.058.295l-.071.292-.071.29s-.067.291-.075.289l-.094.284-.188.565c.006.002-.108.277-.108.277l-.113.275-.226.548s-.012.035-.039.083l-.095.182c-.067.131-.137.263-.137.263l-.272.524s-.031.066-.07.129l-.08.125-.159.249-.312.5-.156.25-.178.236-.358.469-.356.468s-.021.03-.061.07c-.036.041-.088.096-.137.15l-.201.217-.396.437s-.099.109-.196.219l-.137.15-.067.062s-.435.402-.868.805c-.214.203-.428.406-.609.536l-.292.229-.2.157-.414.328-.414.33-.441.295-.441.294-.231.156-.229.157-.23.157-.23.158-.006.003-.28.187-.28.187-.28.187-.14.095-.135.102-.508.39-.252.197c-.121.104-.241.21-.241.21l-.482.421s-.062.051-.117.109l-.115.113-.227.227-.227.228c-.116.111-.22.234-.22.234l-.424.483-.065.075a2.325 2.325 0 0 0-.141.169l-.197.255-.195.255-.098.127c-.05.062-.092.131-.092.131l-.358.534-.088.133c-.046.066-.084.137-.084.137l-.163.276-.162.277-.08.138-.073.144-.144.286-.144.287s-.033.062-.062.127l-.056.13-.112.257-.112.26-.056.129-.049.132-.24.671-.206.682s-.046.152-.101.384c-.057.231-.138.538-.193.85a12.78 12.78 0 0 0-.201 1.247s-.073.627-.098 1.254c-.015.313-.018.626-.021.861l.008.391s.002.208.018.417l.026.416.023.258c.014.155.031.361.059.567.024.205.048.41.076.564l.042.254s.097.56.229 1.109c.065.274.146.546.206.749a7.123 7.123 0 0 0 .18.534l-.028-.209s-.073-.556-.105-1.113c-.041-.556-.048-1.111-.048-1.111v-.252c0-.151-.002-.353.003-.555 0-.201.01-.401.016-.552l.01-.25.029-.402c.012-.2.036-.4.036-.4s.049-.599.14-1.19c.086-.592.216-1.172.216-1.172s.033-.146.087-.362c.048-.218.117-.506.201-.79.074-.286.171-.566.24-.775.067-.211.121-.348.121-.349l.236-.613.265-.6.052-.118.058-.116.115-.231.115-.23.057-.116c.03-.057.062-.112.062-.112l.145-.253.145-.254.072-.126.079-.123.157-.246.156-.245s.036-.063.081-.121l.085-.118.342-.471s.04-.06.089-.115l.092-.112.184-.226.184-.226c.043-.057.092-.111.13-.151l.062-.067.394-.428s.096-.109.204-.208l.21-.201.209-.204.104-.101c.05-.052.107-.098.107-.098l.442-.38.222-.19.232-.177.465-.354.122-.094.127-.088.257-.173.257-.174.257-.175.005-.003.243-.167.242-.167.242-.168.242-.168.459-.323.459-.323.434-.361.431-.362.207-.176.301-.255c.187-.146.409-.372.631-.598l.884-.905s.028-.028.068-.072l.139-.168.2-.247.397-.494.197-.249.135-.17c.038-.045.059-.08.059-.08l.347-.532.347-.532.171-.266.147-.281.295-.563.145-.281.072-.141c.032-.072.061-.147.061-.147l.234-.59.116-.294.078-.202c.024-.055.033-.094.033-.094l.179-.606.09-.302.045-.151c.023-.075.033-.154.033-.154l.119-.62.059-.308c.006.001.039-.312.039-.312l.033-.312.033-.312s.012-.077.013-.156l.004-.157.006-.313.005-.269s.003-.068-.002-.135l-.019-.133-.014-.269-.015-.268-.044-.351-.021-.175s-.005-.043-.013-.086c-.009-.043-.016-.087-.016-.087l-.033-.172-.034-.172-.044-.17s-.011-.057-.047-.168c.013.116.013.173.013.173"/><defs><path id="f" d="M7.534 23.332a4.237 4.237 0 1 0 8.474 0 4.237 4.237 0 0 0-8.474 0"/></defs><clipPath id="g"><use xlink:href="#f" overflow="visible"/></clipPath><linearGradient id="h" gradientUnits="userSpaceOnUse" x1="-411.495" y1="424.004" x2="-411.181" y2="424.004" gradientTransform="scale(26.9551 -26.9551) rotate(46 295.017 696.611)"><stop offset="0" stop-color="#3a0f4d"/><stop offset=".726" stop-color="#7b1fa2"/><stop offset="1" stop-color="#9066a2"/></linearGradient><path clip-path="url(#g)" fill="url(#h)" d="M3.3 23.48l8.324-8.619 8.618 8.324-8.324 8.618z"/><defs><path id="i" d="M7.534 23.332a4.237 4.237 0 1 0 8.474 0 4.237 4.237 0 0 0-8.474 0"/></defs><clipPath id="j"><use xlink:href="#i" overflow="visible"/></clipPath><linearGradient id="k" gradientUnits="userSpaceOnUse" x1="-411.495" y1="424.004" x2="-411.181" y2="424.004" gradientTransform="scale(26.9551 -26.9551) rotate(46 295.017 696.611)"><stop offset="0" stop-color="#3a0f4d"/><stop offset=".726" stop-color="#7b1fa2"/><stop offset="1" stop-color="#9066a2"/></linearGradient><path clip-path="url(#j)" fill="url(#k)" d="M3.3 23.48l8.324-8.619 8.618 8.324-8.324 8.618z"/></svg>