<svg xmlns="http://www.w3.org/2000/svg" xmlns:xlink="http://www.w3.org/1999/xlink" width="34.25" height="68.367" viewBox="0 0 34.25 68.367"><defs><path id="a" d="M16.92 3.996l-.061.082-.061.082-.062.082c.856 1.153 1.421 2.054 1.805 2.636.375.591.546.893.546.893s.134.224.322.565c.194.334.45.781.687 1.235.234.453.471.9.629 1.242.166.339.266.569.264.569l.258.568c.148.34.339.796.506 1.255a27.112 27.112 0 0 1 .619 1.828l.154.573c.092.342.209.796.3 1.251.091.456.165.909.204 1.249.056.338.074.563.074.563s.096.802.1 1.594c.018.792-.035 1.571-.035 1.571l-.035.379s-.015.218-.062.542a8.688 8.688 0 0 1-.084.552 8.633 8.633 0 0 1-.106.63 9.668 9.668 0 0 1-.132.625 7.405 7.405 0 0 1-.139.542c-.084.316-.151.525-.151.525s-.185.597-.396 1.19c-.114.294-.221.59-.319.809-.095.219-.156.365-.156.365s-.024.059-.065.145-.097.202-.15.317c-.104.232-.227.459-.227.459s-.104.201-.25.504c-.166.299-.371.702-.61 1.095-.226.397-.487.782-.671 1.076l-.326.481s-.434.655-.911 1.292l-.353.468-.32.4-.314.393-.003.004-.221.273-.217.279-.428.553c-.257.332-.603.771-.928 1.23l-.904 1.253-.385.593-.385.594-.392.607-.429.717c-.294.487-.583.974-.776 1.359l-.333.632s-.132.255-.331.634c-.185.391-.438.905-.675 1.43-.229.529-.439 1.07-.604 1.47-.083.199-.144.371-.187.491l-.067.188-.243.686c-.148.406-.295.98-.46 1.537-.157.563-.283 1.142-.382 1.566-.082.439-.132.731-.132.731s-.054.289-.118.726c-.025.221-.057.479-.089.754a67.43 67.43 0 0 0-.048.424l-.023.444a20.098 20.098 0 0 0-.032 1.634c-.003.221.014.41.021.541a21.055 21.055 0 0 1 .031.433c.009.137.024.318.051.502l.094.728.091.509c.053.303.157.705.261 1.101.047.198.119.396.174.577a4.8 4.8 0 0 0 .174.494l.192.476s.024.062.076.17c.05.106.12.259.206.44.179.363.434.834.726 1.277.295.442.644.848.912 1.133.266.291.473.457.473.457s.093.084.317.25a1.78 1.78 0 0 1 .077-.068l.076-.069.076-.067.075-.068c-.066-.081-.121-.156-.155-.202l-.05-.071s-.138-.189-.313-.5a8.803 8.803 0 0 1-.564-1.176 11.134 11.134 0 0 1-.41-1.24l-.104-.42c-.026-.101-.036-.16-.036-.16s-.15-.705-.22-1.424c-.03-.359-.06-.719-.06-.99l-.012-.449.018-.646c.001-.159.012-.321.025-.44l.016-.201s.066-1.044.275-2.071c.082-.517.228-1.022.312-1.405a17.5 17.5 0 0 1 .179-.631l.185-.629c.133-.37.29-.871.482-1.361.372-.982.821-1.935.821-1.936l.075-.165c.046-.104.113-.256.205-.431.181-.352.411-.824.66-1.289l.708-1.266c.207-.336.344-.562.344-.562s.139-.224.345-.562c.2-.342.5-.775.792-1.216l.43-.645c.144-.201.279-.39.396-.55l.385-.536.386-.534c.244-.312.568-.73.89-1.148.317-.424.659-.828.911-1.134l.421-.509.425-.514.006-.006.358-.434c.106-.13.231-.283.368-.445l.404-.523c.556-.713 1.064-1.462 1.064-1.462l.372-.562c.21-.345.505-.795.763-1.268.273-.464.514-.948.701-1.306l.289-.609s.134-.278.251-.562c.062-.142.121-.283.166-.39.046-.105.071-.178.071-.178l.174-.451c.107-.269.229-.636.352-1.002.115-.368.225-.739.301-1.019.068-.281.117-.468.117-.468s.066-.262.146-.661c.043-.198.09-.43.128-.681.043-.25.086-.517.115-.786.037-.269.065-.538.082-.79.024-.253.039-.489.047-.693.021-.405.02-.676.02-.676l.002-.47-.021-.603c-.02-.361-.051-.843-.11-1.321-.108-.959-.323-1.899-.323-1.899s-.052-.265-.156-.657c-.098-.393-.252-.91-.422-1.421-.338-1.026-.791-2.005-.791-2.005s-.438-.984-.973-1.917c-.264-.47-.546-.926-.763-1.266-.22-.338-.372-.559-.372-.559s-.605-.887-1.285-1.717c-.67-.837-1.404-1.616-1.404-1.616s-.242-.264-.746-.769c-.511-.5-1.269-1.25-2.411-2.128l-.065.081"/></defs><use xlink:href="#a" overflow="visible" fill="#477EFF"/><clipPath id="b"><use xlink:href="#a" overflow="visible"/></clipPath><path clip-path="url(#b)" fill="#477EFF" d="M-21.46 22.749L19.412-4.82l34.065 50.504-40.873 27.569z"/><path fill="#7B1FA2" d="M16.855 16.76l.095.165.093.164.088.166.085.168.042.084.04.085.079.17c.04.083.073.171.073.171l.074.171.07.171.067.173a18.928 18.928 0 0 0 .181.521 26.786 26.786 0 0 0 .128.44l.021.089.042.177.042.176.037.177.07.353.053.355s.027.176.039.354l.029.354s.018.707.004.706l-.018.44-.016.147-.014.146-.017.146-.015.146-.023.145-.025.144-.05.287-.013.072-.018.071-.033.141-.065.283c.014.002-.166.556-.166.556l-.052.163c.004.001-.06.162-.06.162l-.127.321s-.056.161-.129.318l-.148.312-.147.311c-.086.147-.171.298-.171.298l-.169.301c-.039.076-.087.15-.122.204l-.06.091-.094.146-.094.146s-.185.292-.192.29l-.416.56s-.103.141-.218.274l-.225.271-.222.271c-.114.134-.238.261-.238.261l-.482.516a.838.838 0 0 1-.076.08l-.177.17-.254.249-.253.249a3.327 3.327 0 0 1-.262.241l-.536.471-.096.085a3.971 3.971 0 0 1-.261.218l-.804.655-1.215.908-.005.003-.603.468-.601.469s-.039.029-.091.078l-.197.176-.286.256-.57.515-.363.38c-.21.235-.515.525-.78.856-.264.33-.529.66-.728.906l-.299.439-.221.335-.152.227c-.042.062-.066.105-.066.105l-.392.697-.194.349c-.09.179-.171.362-.171.362l-.168.363-.081.183-.082.183s-.023.047-.048.119l-.097.268-.139.389-.138.39-.111.396-.108.396-.074.273a1.012 1.012 0 0 0-.028.125l-.075.404-.037.204-.037.201s-.047.213-.066.433l-.049.432-.048.431s-.006.055-.007.108l-.005.108-.008.217-.015.432-.008.215.004.215.005.215.006.216.006.214.007.215.067.742.018.186c.008.092.023.184.023.184l.027.183.028.183.056.367.029.182.037.181.037.181.039.181.039.179.039.18.126.483c.073.291.183.674.311 1.051.116.38.268.747.367 1.026.105.275.187.457.187.457l.194.447c.128.264.283.619.464.961.172.348.361.686.5.938l.25.414s.366.603.769 1.177c.205.287.419.564.583.771a7.74 7.74 0 0 0 .454.532c-.072-.158-.107-.239-.107-.239s-.285-.634-.524-1.28a22.45 22.45 0 0 1-.463-1.291s-.056-.178-.142-.443c-.086-.268-.201-.621-.298-.979-.108-.354-.187-.717-.258-.982l-.099-.451c.001 0-.171-.724-.281-1.453l-.084-.531-.056-.465-.052-.453-.014-.173-.011-.166-.012-.166-.015-.166-.013-.166L5.624 49l-.01-.331-.005-.165-.004-.164s-.005-.083-.001-.166l.004-.164.013-.654.014-.188.014-.186.013-.188.013-.186.015-.187.025-.185.05-.368.025-.183s.021-.186.025-.185l.07-.362.069-.361c.029-.182.084-.357.084-.357l.045-.167.044-.167.088-.333s.008-.042.032-.103l.076-.223.109-.326.109-.326.134-.314.132-.314.091-.217c.023-.061.045-.097.045-.097l.077-.146.076-.147.148-.295s.071-.147.15-.293l.172-.284.343-.566.387-.539.255-.363.622-.756c.224-.277.491-.521.671-.721l.311-.322.489-.449s.123-.113.244-.227l.168-.154c.044-.043.079-.068.079-.068l.524-.418.522-.419.004-.004s.65-.509 1.29-1.031l.858-.75c.117-.102.211-.193.275-.258l.102-.101.566-.558s.145-.134.277-.286l.27-.295.27-.296c.135-.146.263-.3.264-.3l.501-.629s.128-.154.247-.318l.233-.331s.469-.659.455-.67l.418-.698s.053-.086.098-.179l.094-.182.094-.182.094-.182.059-.114c.035-.067.08-.158.119-.254l.158-.379.157-.379.132-.39s.064-.196.131-.391c.062-.195.107-.397.107-.397l.1-.4.023-.099c.013-.05.02-.102.02-.102l.035-.204s.115-.684.102-.686l.033-.345.017-.172s.012-.173.01-.173l.003-.347.002-.172v-.172l-.011-.172-.011-.172-.012-.172-.011-.171-.069-.511s-.026-.201-.074-.399l-.086-.395-.108-.388c-.05-.195-.119-.383-.119-.383s-.065-.189-.133-.377l-.151-.368-.076-.183-.088-.178-.09-.176-.044-.088-.049-.086-.194-.342-.207-.333s-.052-.084-.107-.163c-.057-.081-.11-.16-.11-.16l-.114-.159-.117-.154s-.058-.079-.121-.152l-.125-.148-.062-.073a8.95 8.95 0 0 0-.065-.072l-.13-.143-.133-.139-.137-.136-.141-.13-.146-.125c.064.114.097.168.097.168"/><path fill="#13DC90" d="M30.755 29.555l.007.174.002.173v.259c0 .043-.004.086-.004.086l-.01.173-.02.344-.027.261-.028.26s-.026.259-.032.258l-.047.257-.053.296s-.053.295-.059.295l-.07.292-.071.29s-.067.291-.075.289l-.094.284-.188.565c.006.002-.108.277-.108.277l-.112.275-.227.548s-.012.035-.039.083c-.025.05-.061.115-.096.183-.066.131-.137.263-.137.263l-.271.524s-.031.065-.07.129l-.08.125-.158.248-.312.5-.156.25-.178.236-.357.469-.356.469s-.021.029-.062.069c-.035.041-.088.097-.137.15l-.201.217-.396.437s-.099.109-.196.22l-.137.149-.067.062s-.435.402-.868.805c-.214.203-.428.406-.609.536l-.291.229-.2.156-.414.328-.414.33-.44.295-.441.294-.23.156-.229.157-.229.156-.23.158-.011.006-.28.187-.28.187-.279.188-.141.095-.135.103-.508.39-.252.196c-.121.104-.241.211-.241.211l-.481.421s-.062.051-.117.108l-.115.113-.227.227-.228.229c-.116.111-.22.234-.22.234l-.424.482-.065.075a2.325 2.325 0 0 0-.141.169l-.197.255-.195.255-.098.127c-.05.062-.092.131-.092.131l-.358.535-.088.133c-.046.065-.084.137-.084.137l-.163.275-.162.277-.08.139-.073.144-.144.286-.144.287s-.033.062-.062.127l-.056.13-.112.257-.112.26-.056.129-.049.133-.24.67-.206.683s-.046.151-.101.384c-.057.231-.138.538-.193.85a12.775 12.775 0 0 0-.201 1.248s-.073.627-.098 1.254c-.015.312-.018.625-.021.86l.008.392s.002.207.018.416l.026.416.023.259c.014.155.031.36.059.567.024.205.048.409.076.563l.042.254s.097.56.229 1.108c.065.274.146.547.206.75s.107.334.107.334l.073.199-.028-.209s-.073-.556-.105-1.112c-.041-.556-.048-1.111-.048-1.111v-.252c0-.151-.002-.353.003-.555 0-.201.01-.401.016-.552l.01-.25.029-.402c.012-.2.036-.4.036-.4s.049-.599.14-1.189c.086-.592.216-1.172.216-1.172s.033-.146.087-.362c.048-.218.117-.507.201-.79.074-.286.171-.566.24-.775.067-.211.121-.348.121-.349l.236-.613.265-.6.052-.118.058-.116.115-.231.115-.229.057-.116c.03-.057.062-.111.062-.111l.145-.254.145-.254.072-.125.079-.123.157-.246.156-.245s.036-.063.081-.121l.085-.118.343-.471s.039-.061.088-.115l.092-.112.185-.226.185-.227a1.99 1.99 0 0 1 .129-.15l.062-.067.395-.428s.096-.109.203-.208l.211-.201.209-.204.104-.101c.051-.053.107-.098.107-.098l.441-.381s.11-.095.223-.189l.231-.178.466-.354.121-.094c.062-.045.127-.088.127-.088l.258-.174.256-.174.258-.175.005-.003.243-.167.242-.167.242-.168.241-.168.459-.323.459-.323.435-.36.431-.362.207-.176.301-.255c.187-.146.409-.372.632-.599l.883-.904s.028-.028.068-.072c.038-.046.09-.107.139-.168l.201-.247.396-.494.197-.249.135-.17c.037-.045.059-.08.059-.08l.348-.531.347-.533.171-.266.146-.281.295-.562.146-.281.071-.141c.033-.072.062-.146.062-.146l.234-.591.116-.294c.027-.074.057-.146.078-.202a.76.76 0 0 0 .033-.094l.178-.606.09-.302.046-.151c.022-.075.032-.154.032-.154l.119-.62.06-.308c.006.001.039-.312.039-.312l.032-.312.033-.312s.012-.077.014-.156l.004-.157.006-.313.005-.269s.003-.068-.002-.135l-.022-.14-.015-.269-.015-.268-.044-.351-.021-.175-.014-.086c-.009-.043-.016-.087-.016-.087l-.033-.172-.034-.172-.044-.17s-.012-.057-.047-.168c.015.116.015.173.015.173"/><defs><path id="c" d="M7.534 23.332a4.237 4.237 0 1 0 8.474 0 4.237 4.237 0 0 0-8.474 0"/></defs><clipPath id="d"><use xlink:href="#c" overflow="visible"/></clipPath><linearGradient id="e" gradientUnits="userSpaceOnUse" x1="-702.081" y1="23.684" x2="-701.767" y2="23.684" gradientTransform="rotate(-46 -10178.839 -21969.889) scale(26.9551)"><stop offset="0" stop-color="#3a0f4d"/><stop offset=".726" stop-color="#7b1fa2"/><stop offset="1" stop-color="#9066a2"/></linearGradient><path clip-path="url(#d)" fill="url(#e)" d="M3.3 23.48l8.324-8.619 8.618 8.324-8.324 8.618z"/><defs><path id="f" d="M7.534 23.332a4.237 4.237 0 1 0 8.474 0 4.237 4.237 0 0 0-8.474 0"/></defs><use xlink:href="#f" overflow="visible" fill="#3A0F4D"/><clipPath id="g"><use xlink:href="#f" overflow="visible"/></clipPath><path clip-path="url(#g)" fill="#3A0F4D" d="M3.3 23.48l8.324-8.619 8.618 8.324-8.324 8.618z"/></svg>