<svg xmlns="http://www.w3.org/2000/svg" xmlns:xlink="http://www.w3.org/1999/xlink" width="108" height="216" viewBox="0 0 108 216"><image overflow="visible" width="59" height="194" xlink:href="1F9FE5B5.png" transform="translate(26.5 13.5)"/><image overflow="visible" width="52.207" height="133.5" xlink:href="B52BB6FA.png" transform="translate(10.807 54.328)"/><image overflow="visible" width="54.178" height="105.166" xlink:href="B52BB6FD.png" transform="translate(44.58 94.994)"/><linearGradient id="a" gradientUnits="userSpaceOnUse" x1="28.116" y1="85.445" x2="46.84" y2="66.055"><stop offset="0" stop-color="#3a0f4d"/><stop offset=".726" stop-color="#7b1fa2"/><stop offset="1" stop-color="#9066a2"/></linearGradient><circle fill="url(#a)" cx="37.478" cy="75.75" r="13.478"/><linearGradient id="b" gradientUnits="userSpaceOnUse" x1="-3.91" y1="144.624" x2="100.092" y2="74.474"><stop offset="0" stop-color="#3a0f4d"/><stop offset=".478" stop-color="#7b1fa2"/><stop offset=".542" stop-color="#7923a6"/><stop offset=".6" stop-color="#732eb1"/><stop offset=".657" stop-color="#6941c3"/><stop offset=".713" stop-color="#5a5bdd"/><stop offset=".767" stop-color="#487dfe"/><stop offset=".769" stop-color="#477eff"/><stop offset=".809" stop-color="#3998e0"/><stop offset=".864" stop-color="#28b5be"/><stop offset=".915" stop-color="#1dcba4"/><stop offset=".962" stop-color="#15d895"/><stop offset="1" stop-color="#13dc90"/></linearGradient><path fill="url(#b)" d="M85.16 70.856l-.065-1.917a61.845 61.845 0 0 0-.352-4.202c-.347-3.051-1.03-6.041-1.03-6.041s-.166-.844-.5-2.088c-.307-1.251-.8-2.897-1.343-4.524-1.069-3.264-2.51-6.378-2.51-6.378s-1.397-3.132-3.098-6.102a79.533 79.533 0 0 0-2.427-4.025c-.692-1.078-1.183-1.777-1.182-1.777-.001 0-1.93-2.822-4.088-5.463-2.133-2.664-4.473-5.141-4.473-5.141s-.765-.613-2.369-2.218c-1.611-1.581-3.998-4.479-7.584-6.479h.002l-.021-.242c-.022-.018-.043-.148-.065-.166-.002.001-.002-.055-.004-.053l-1.698-1.22.937 2.196c-.006.008-.008.002-.014.011 2.723 3.668 4.521 6.531 5.74 8.382 1.192 1.881 1.737 2.839 1.737 2.839s.426.712 1.024 1.797a84.351 84.351 0 0 1 2.184 3.928c.749 1.443 1.498 2.861 2.005 3.952.524 1.08.839 1.812.838 1.812l.813 1.805a69.697 69.697 0 0 1 1.614 3.994c.544 1.458 1.06 2.901 1.407 3.994l.557 1.819.497 1.821c.29 1.089.662 2.533.949 3.981a54.24 54.24 0 0 1 .655 3.973c.172 1.072.233 1.789.233 1.789s.303 2.553.315 5.072c.052 2.521-.111 4.996-.11 4.996l-.111 1.205c-.001 0-.051.694-.2 1.726a24.7 24.7 0 0 1-.269 1.757 27.633 27.633 0 0 1-.34 2.004 30.498 30.498 0 0 1-.423 1.989 24.37 24.37 0 0 1-.437 1.723c-.263 1.006-.482 1.669-.481 1.669-.001 0-.591 1.898-1.263 3.785-.363.938-.7 1.88-1.018 2.573l-.495 1.161s-.076.187-.211.461l-.479 1.011c-.333.738-.722 1.462-.722 1.462 0 .001-.325.639-.798 1.604-.522.952-1.178 2.233-1.939 3.483-.712 1.266-1.549 2.489-2.131 3.423l-1.041 1.531s-1.373 2.084-2.897 4.109l-1.118 1.488-1.023 1.275c-.6.748-.998 1.247-.998 1.247l-.013.015-.704.874-.688.887-1.362 1.758c-.816 1.056-1.916 2.449-2.951 3.915l-2.877 3.985-1.227 1.886-1.223 1.887-1.248 1.935-1.366 2.279c-.935 1.549-1.852 3.098-2.466 4.326l-1.058 2.013-1.052 2.012c-.586 1.244-1.396 2.883-2.147 4.548-.73 1.684-1.399 3.407-1.922 4.677-.266.632-.457 1.181-.593 1.563l-.214.599-.774 2.178c-.471 1.293-.937 3.121-1.463 4.893-.497 1.791-.898 3.63-1.213 4.984l-.403 2.316s-.171.92-.375 2.313l-.286 2.398-.152 1.349-.074 1.413c-.13 1.88-.116 3.782-.103 5.196-.009.704.046 1.304.068 1.717a1695.408 1695.408 0 0 1 .1 1.378c.026.436.077 1.016.16 1.6l.297 2.313.294 1.615c.167.964.497 2.242.83 3.502.152.63.381 1.254.556 1.836.18.583.355 1.121.553 1.575l.61 1.509s.077.198.24.54l.657 1.405a39.124 39.124 0 0 0 2.308 4.061c.937 1.409 2.045 2.694 2.897 3.608.847.921 1.505 1.449 1.504 1.449s.296.271 1.01.796l2.309.885-1.343-1.756-.483.436.241-.218.242-.218c-.213-.254-.387-.497-.494-.641l-.16-.229s-.438-.604-.997-1.586a28.2 28.2 0 0 1-1.793-3.739 35.661 35.661 0 0 1-1.305-3.947l-.327-1.333c-.083-.32-.115-.508-.116-.508.001 0-.477-2.245-.698-4.531-.097-1.144-.194-2.286-.193-3.149l-.039-1.434.057-2.047c.004-.512.041-1.022.078-1.405l.053-.639s.208-3.322.876-6.59c.259-1.646.726-3.252.99-4.473.322-1.208.569-2.006.57-2.006l.589-2.001c.424-1.179.922-2.773 1.532-4.33 1.184-3.128 2.613-6.157 2.613-6.158l.237-.523c.15-.334.361-.813.654-1.369.576-1.116 1.308-2.623 2.1-4.1l2.254-4.022 1.095-1.788 1.097-1.787c.635-1.087 1.592-2.468 2.519-3.868l1.368-2.051 1.256-1.748 1.228-1.704 1.229-1.702 2.828-3.656c1.012-1.344 2.096-2.63 2.899-3.603l1.339-1.62 1.352-1.635.013-.016 1.144-1.383 1.172-1.418 1.292-1.667a103.67 103.67 0 0 0 3.382-4.65l1.185-1.781c.667-1.098 1.607-2.53 2.429-4.036.867-1.478 1.632-3.015 2.229-4.154l.918-1.938s.428-.882.8-1.79c.192-.45.385-.901.528-1.24.148-.336.233-.566.233-.566l.547-1.434c.347-.854.724-2.023 1.118-3.187.368-1.171.713-2.352.952-3.241l.373-1.49s.217-.833.466-2.1a34.09 34.09 0 0 0 .405-2.167c.139-.796.274-1.646.368-2.501.118-.854.208-1.709.265-2.515a34.78 34.78 0 0 0 .144-2.201c.071-1.289.062-2.15.062-2.15l.008-1.496z"/><linearGradient id="c" gradientUnits="userSpaceOnUse" x1="28.116" y1="85.445" x2="46.84" y2="66.055"><stop offset="0" stop-color="#3a0f4d"/><stop offset=".726" stop-color="#7b1fa2"/><stop offset="1" stop-color="#9066a2"/></linearGradient><circle fill="url(#c)" cx="37.478" cy="75.75" r="13.478"/></svg>