<svg xmlns="http://www.w3.org/2000/svg" xmlns:xlink="http://www.w3.org/1999/xlink" width="80.611" height="68.367" viewBox="0 0 80.611 68.367"><defs><path id="a" d="M10.197 3.655h60.217V63.86H10.197z"/></defs><clipPath id="b"><use xlink:href="#a" overflow="visible"/></clipPath><path clip-path="url(#b)" fill="#FFF" d="M22.319 29.726A50.453 50.453 0 0 0 44.37 51.76l7.364-7.377a3.337 3.337 0 0 1 3.391-.82 38.243 38.243 0 0 0 11.946 1.901 3.336 3.336 0 0 1 3.343 3.354v11.706a3.33 3.33 0 0 1-3.343 3.344c-31.417 0-56.874-25.457-56.874-56.874a3.344 3.344 0 0 1 3.343-3.345h11.707A3.34 3.34 0 0 1 28.6 6.994c0 4.163.664 8.197 1.901 11.947a3.342 3.342 0 0 1-.816 3.394l-7.366 7.391z"/></svg>