<svg xmlns="http://www.w3.org/2000/svg" xmlns:xlink="http://www.w3.org/1999/xlink" width="80.611" height="68.367" viewBox="0 0 80.611 68.367"><defs><path id="a" d="M12.88 11.843h54.852v44.681H12.88z"/></defs><clipPath id="b"><use xlink:href="#a" overflow="visible"/></clipPath><path clip-path="url(#b)" fill-rule="evenodd" clip-rule="evenodd" fill="#FFF" d="M12.88 51.7v-.404c.297-.375.715-.283 1.109-.268 3.727.156 7.301-.469 10.715-2.008 1.008-.453 1.93-1.031 2.996-1.703-1.66-.48-3.188-.904-4.5-1.836-1.926-1.357-3.441-3.037-4.359-5.229-.52-1.24-.168-1.729 1.176-1.652.766.035 1.539-.004 2.301.209-1.109-.217-2.051-.742-2.93-1.41-3.023-2.287-4.676-5.31-4.887-9.107-.043-.814.406-1.18 1.191-.947.703.203 1.355.562 2.223.768-.852-1.115-1.672-2.115-2.215-3.309-1.547-3.4-1.449-6.787.008-10.176.406-.943 1.156-1.092 1.902-.355 1.09 1.076 2.07 2.244 3.246 3.244 4.477 3.809 9.566 6.275 15.355 7.283.523.092 1.051.193 1.582.236 1.168.1 1.223.061 1.246-1.16.02-1.027-.059-2.062.172-3.088.855-3.84 3.086-6.588 6.602-8.291.969-.469 2.07-.441 3.129-.537.258-.023.535.084.773-.1h2c.535.236 1.113.133 1.66.168 1.965.113 3.594.932 5.02 2.195.566.5 1.113.621 1.824.422 1.68-.461 3.301-1.053 4.828-1.889.398-.221.801-.436 1.188-.068.367.344.262.775.102 1.207a10.176 10.176 0 0 1-2.879 4.164c.992-.268 2.059-.562 3.09-.982.414-.17.844-.225 1.184.191v.199c-.629 2.297-2.469 3.652-4.098 5.137-.676.611-1.051 1.18-1.051 2.104-.008 8.061-2.773 15.152-7.879 21.281-4.059 4.875-9.215 8.227-15.391 9.898-1.48.404-3.023.393-4.543.52-.293.025-.598-.094-.871.098h-7.41c-.805-.176-1.633-.148-2.453-.209-3.668-.264-6.91-1.768-10.094-3.443-.488-.257-.816-.673-1.062-1.153"/></svg>