<?xml version="1.0" encoding="utf-8"?>
<!-- Generator: Adobe Illustrator 15.1.0, SVG Export Plug-In . SVG Version: 6.00 Build 0)  -->
<!DOCTYPE svg PUBLIC "-//W3C//DTD SVG 1.1//EN" "http://www.w3.org/Graphics/SVG/1.1/DTD/svg11.dtd">
<svg version="1.1" id="Layer_1" xmlns="http://www.w3.org/2000/svg" xmlns:xlink="http://www.w3.org/1999/xlink" x="0px" y="0px"
	 width="80.611px" height="68.367px" viewBox="0 0 80.611 68.367" enable-background="new 0 0 80.611 68.367" xml:space="preserve">
<g>
	<g>
		<defs>
			<rect id="SVGID_1_" x="12.88" y="11.843" width="54.852" height="44.681"/>
		</defs>
		<clipPath id="SVGID_2_">
			<use xlink:href="#SVGID_1_"  overflow="visible"/>
		</clipPath>
		<path clip-path="url(#SVGID_2_)" fill-rule="evenodd" clip-rule="evenodd" fill="#FFFFFF" d="M12.88,51.7v-0.404
			c0.297-0.375,0.715-0.283,1.109-0.268c3.727,0.156,7.301-0.469,10.715-2.008c1.008-0.453,1.93-1.031,2.996-1.703
			c-1.66-0.48-3.188-0.904-4.5-1.836c-1.926-1.357-3.441-3.037-4.359-5.229c-0.52-1.24-0.168-1.729,1.176-1.652
			c0.766,0.035,1.539-0.004,2.301,0.209c-1.109-0.217-2.051-0.742-2.93-1.41c-3.023-2.287-4.676-5.31-4.887-9.107
			c-0.043-0.814,0.406-1.18,1.191-0.947c0.703,0.203,1.355,0.562,2.223,0.768c-0.852-1.115-1.672-2.115-2.215-3.309
			c-1.547-3.4-1.449-6.787,0.008-10.176c0.406-0.943,1.156-1.092,1.902-0.355c1.09,1.076,2.07,2.244,3.246,3.244
			c4.477,3.809,9.566,6.275,15.355,7.283c0.523,0.092,1.051,0.193,1.582,0.236c1.168,0.1,1.223,0.061,1.246-1.16
			c0.02-1.027-0.059-2.062,0.172-3.088c0.855-3.84,3.086-6.588,6.602-8.291c0.969-0.469,2.07-0.441,3.129-0.537
			c0.258-0.023,0.535,0.084,0.773-0.1h2c0.535,0.236,1.113,0.133,1.66,0.168c1.965,0.113,3.594,0.932,5.02,2.195
			c0.566,0.5,1.113,0.621,1.824,0.422c1.68-0.461,3.301-1.053,4.828-1.889c0.398-0.221,0.801-0.436,1.188-0.068
			c0.367,0.344,0.262,0.775,0.102,1.207c-0.617,1.656-1.602,3.053-2.879,4.164c0.992-0.268,2.059-0.562,3.09-0.982
			c0.414-0.17,0.844-0.225,1.184,0.191v0.199c-0.629,2.297-2.469,3.652-4.098,5.137c-0.676,0.611-1.051,1.18-1.051,2.104
			c-0.008,8.061-2.773,15.152-7.879,21.281c-4.059,4.875-9.215,8.227-15.391,9.898c-1.48,0.404-3.023,0.393-4.543,0.52
			c-0.293,0.025-0.598-0.094-0.871,0.098h-7.41c-0.805-0.176-1.633-0.148-2.453-0.209c-3.668-0.264-6.91-1.768-10.094-3.443
			C13.454,52.596,13.126,52.18,12.88,51.7"/>
	</g>
</g>
</svg>
