<?xml version="1.0" standalone="no"?>
<!DOCTYPE svg PUBLIC "-//W3C//DTD SVG 20010904//EN"
 "http://www.w3.org/TR/2001/REC-SVG-20010904/DTD/svg10.dtd">
<svg version="1.0" xmlns="http://www.w3.org/2000/svg"
 width="173.000000pt" height="173.000000pt" viewBox="0 0 173.000000 173.000000"
 preserveAspectRatio="xMidYMid meet">
<metadata>
Created by potrace 1.11, written by Peter Selinger 2001-2013
</metadata>
<g transform="translate(0.000000,173.000000) scale(0.100000,-0.100000)"
fill="#000000" stroke="none">
<path d="M888 1635 c-4 -4 11 -34 34 -67 137 -203 160 -397 67 -579 -10 -20
-54 -84 -98 -143 -99 -131 -146 -214 -183 -321 -56 -162 -39 -327 42 -413 31
-33 34 -23 9 34 -27 59 -32 158 -12 229 8 28 15 55 16 60 2 6 17 40 34 77 37
78 85 151 177 267 84 106 112 153 142 242 47 138 30 281 -49 419 -35 61 -168
206 -179 195z"/>
<path d="M890 1309 c0 -4 7 -23 15 -42 8 -20 15 -60 15 -89 0 -99 -61 -188
-197 -292 -168 -126 -223 -302 -154 -486 21 -57 79 -156 86 -148 2 2 -8 35
-22 73 -22 58 -26 87 -27 175 -1 161 15 190 228 387 108 101 150 219 116 328
-10 34 -60 112 -60 94z"/>
<path d="M702 1237 c-60 -34 -73 -111 -27 -165 63 -76 188 -30 189 68 0 85
-88 138 -162 97z"/>
<path d="M1239 938 c-14 -105 -99 -221 -219 -301 -142 -93 -212 -216 -205
-359 1 -29 3 -66 4 -82 2 -51 13 -20 16 46 6 154 66 261 196 349 146 99 225
224 217 344 l-3 50 -6 -47z"/>
</g>
</svg>
