<svg xmlns="http://www.w3.org/2000/svg" width="80.611" height="68.367" xmlns:xlink="http://www.w3.org/1999/xlink"><defs><path id="a" d="M15.95 9.83h48.7v48.7h-48.7z"/></defs><clipPath id="b"><use xlink:href="#a" overflow="visible"/></clipPath><path fill="#fff" d="M61.97 9.83H18.65c-1.5 0-2.7 1.2-2.7 2.7v43.3c0 1.5 1.2 2.7 2.7 2.7h23.32V39.67h-6.35v-7.35h6.35V26.9c0-6.3 3.84-9.7 9.45-9.7 2.69 0 5 .2 5.67.28v6.57h-3.9c-3.05 0-3.64 1.45-3.64 3.58v4.7h7.27l-.94 7.34h-6.34v18.86h12.4c1.5 0 2.7-1.2 2.7-2.7v-43.3c0-1.5-1.2-2.7-2.7-2.7" clip-path="url(#b)"/></svg>