<svg xmlns="http://www.w3.org/2000/svg" width="59.997" height="53.997"><path fill="#7B1FA2" fill-rule="evenodd" d="M5.05 37.75c1.33-7.3 8.9-10.94 15.06-7.2 1.52.9 2.9 1 4.46.46.68-.22 1.34-.58 2.04-.66.7-.07 1.82-.14 2.07.24.37.57.4 1.66.1 2.3-.88 1.97-2.7 2.73-4.63 3.54-6 2.52-12.24 1.1-18.37 1.46-.23.02-.48-.08-.72-.13M54.95 37.8H38.57l.23-.4c-.7-.5-1.36-1.2-2.14-1.43-1.92-.54-3.53-1.5-4.4-3.28-.35-.7-.27-1.78.02-2.53.1-.27 1.47-.35 2.08-.1 2.62 1.13 4.86 1 7.54-.42 5.42-2.85 13.2 2.15 13.05 8.15M36.77 25.5c.48.7.9 1.35 1.42 2.13-.47 0-.87.13-1.06-.02-2.12-1.63-4.65-.7-6.93-1.16-1.83-.4-3.76-1.1-5.27-2.2-2.04-1.5-1.9-4-.13-5.82 3.08-3.13 10.16-3.18 13.34-.1 2.2 2.15 1.8 4.52-1.37 7.18M45.9 18.13c2.86 0 5.13 2.24 5.1 5.07 0 2.77-2.4 5.13-5.17 5.1-2.7-.06-4.96-2.33-5-5.06-.04-2.85 2.2-5.1 5.06-5.1M15.46 18.27c2.73 0 4.98 2.25 4.94 4.98-.03 2.7-2.17 4.8-4.87 4.82-2.82.02-4.93-2.1-4.9-4.94.02-2.7 2.15-4.84 4.82-4.86" clip-rule="evenodd"/></svg>