<svg xmlns="http://www.w3.org/2000/svg" width="59.997" height="53.997"><path fill="#7B1FA2" fill-rule="evenodd" d="M30.57 6.92h17.65v26.35c-7.83-2-16.85-15.46-17.65-26.35M11.8 33.28V6.98h17.54C28.97 17.2 19.8 31 11.8 33.27" clip-rule="evenodd"/><path fill="#7B1FA2" fill-rule="evenodd" d="M48.22 47.08c-1.23-.3-2.3-.57-3.15-.78 1.18-3.25 2.22-6.14 3.15-8.7v9.48zM14.9 46.3c-.83.2-1.9.47-3.12.77V37.8c.96 2.62 1.95 5.32 3.1 8.5M45.37 37.95H28.8V38H14.48c.04 1.57.52 2.2 2.14 2.2 8.95-.08 17.9-.04 26.87-.04 1.85 0 1.96-.13 1.87-2.2" clip-rule="evenodd"/><path fill="#7B1FA2" d="M29.94 28.52c2.32 0 4.2-1.88 4.2-4.2 0-2.3-1.88-4.2-4.2-4.2-2.32 0-4.2 1.9-4.2 4.2 0 2.32 1.88 4.2 4.2 4.2m0 2.1c-2.8 0-8.4 1.4-8.4 4.2v2.1h16.8v-2.1c0-2.8-5.6-4.2-8.4-4.2"/></svg>