<svg xmlns="http://www.w3.org/2000/svg" width="55.994" height="38.998"><path fill="#477EFF" d="M29.36 9.85V2.12H9.83v34.76h39.05V9.84H29.36zM17.65 33.02h-3.9v-3.87h3.9v3.87zm0-7.73h-3.9v-3.87h3.9v3.86zm0-7.73h-3.9V13.7h3.9v3.87zm0-7.72h-3.9V5.98h3.9v3.87zm7.8 23.17h-3.9v-3.87h3.9v3.87zm0-7.73h-3.9v-3.87h3.9v3.86zm0-7.73h-3.9V13.7h3.9v3.87zm0-7.72h-3.9V5.98h3.9v3.87zm19.53 23.17H29.36v-3.87h3.9V25.3h-3.9v-3.87h3.9v-3.86h-3.9V13.7h15.62v19.32zm-3.9-15.45h-3.9v3.86h3.9v-3.86zm0 7.72h-3.9v3.85h3.9V25.3z"/></svg>