<svg xmlns="http://www.w3.org/2000/svg" width="59.997" height="53.997"><path fill="#7B1FA2" fill-rule="evenodd" d="M18.34 30.1c-.48 1.9-.4 3.6-1.2 4.36-1.8 1.7-4 2.95-6.1 4.26-.34.2-1.46-.16-1.58-.48-.18-.53-.05-1.5.33-1.84 1.13-1.02 2.48-1.78 3.68-2.74.43-.36.97-1 .92-1.48-.45-4.8 1.14-9.05 3.27-13.2.1-.2.1-.46.3-1.35-1.8 1.26-3.18 2.22-4.56 3.17-.57.4-1.12 1-1.75 1.1-.7.1-1.8-.03-2.14-.5-.33-.48-.27-1.85.13-2.17 2.2-1.74 4.55-3.3 6.9-4.84.34-.22 1.03-.1 1.46.1 3.17 1.33 6.35 2.66 9.46 4.15 1.18.56 2.08.72 3.1-.2.5-.5 1.1-1.05 1.73-1.16.74-.13 1.93-.07 2.26.4.36.48.23 1.86-.22 2.28-1.25 1.17-2.73 2.12-4.22 2.97-.48.27-1.35.07-1.95-.16-1.06-.4-2.04-1-3.18-1.55-.88 1.9-1.67 3.64-2.5 5.45.3.15.5.3.74.37 1.5.44 3.72.4 4.4 1.4 1.5 2.23 2.3 4.95 3.2 7.54.14.43-.67 1.67-1.06 1.68-.72.02-1.77-.4-2.12-.98-.83-1.42-1.25-3.08-2.02-4.54-.33-.6-1.08-1.27-1.74-1.4-1.88-.37-3.8-.48-5.56-.67" clip-rule="evenodd"/><path fill="#7B1FA2" fill-rule="evenodd" d="M26.74 39.56v2.98h10.1v-6.8h7.03v-7.4h6.84v-3.1h-9.85v7.1h-7v7.22zM26.66 10.78c1 1.4.7 3.36-.7 4.4-1.46 1.12-3.5.83-4.54-.64-1.04-1.45-.65-3.56.82-4.55 1.42-.96 3.44-.6 4.42.78" clip-rule="evenodd"/></svg>