<svg xmlns="http://www.w3.org/2000/svg" width="59.997" height="53.997"><path fill="#7B1FA2" fill-rule="evenodd" d="M40.23 39.6c2.22-2.66 4.95-3.74 8.3-2.26 2.35 1.04 3.6 3.2 3.38 5.82h-9c.14 1.06.25 1.9.4 2.9-.65.06-1.16.13-1.67.13-6.37 0-12.74-.04-19.1.02-1.2 0-1.77-.38-2.23-1.47-4.32-10.27-8.72-20.5-13.02-30.77-.3-.74-.42-2.1 0-2.48.5-.45 1.8-.42 2.55-.13 5.2 2 10 1.47 14.57-1.8 4.06-2.9 8.6-4.52 13.64-3.48 4.48.92 7.86 3.38 9.47 7.86.14.4.26.8.34 1.2.03.14-.06.32-.15.74-.63-.23-1.2-.5-1.77-.62-2.4-.5-4.8-1.2-7.22-1.38-2.47-.18-4.65 1.03-6.06 3.07-4.25 6.2-10.08 8.15-17.26 6.82-.17-.04-.34-.02-.85-.02 2.6 6.18 5.15 12.2 7.77 18.4 2.72-1 5.37-1.8 7.88-2.9 4.33-1.9 5.82-1.95 10.05.32M39.34 30.76c0 2.8-2.26 5.06-5.06 5.07-2.77 0-5.1-2.28-5.12-5.05-.04-2.8 2.37-5.2 5.2-5.17 2.8.06 5 2.34 4.98 5.16M41.3 31.13c0-2.2 1.72-3.9 3.9-3.9 2.2-.02 3.95 1.7 4 3.86.02 2.22-1.8 4.04-4.03 4-2.16-.03-3.9-1.8-3.87-3.97" clip-rule="evenodd"/></svg>