<svg xmlns="http://www.w3.org/2000/svg" width="34.25" height="68.367" xmlns:xlink="http://www.w3.org/1999/xlink"><defs><path id="a" d="M16.92 4l-.06.08-.06.08s-.02.03-.06.08c.85 1.15 1.42 2.06 1.8 2.64.38.6.55.9.55.9s.12.2.3.56c.2.33.46.78.7 1.23.23.45.47.9.62 1.24.17.35.27.58.27.58s.1.23.25.57c.14.34.34.8.5 1.25.17.46.34.92.44 1.26.1.34.17.57.17.57s.06.23.16.58.2.8.3 1.26c.1.45.16.9.2 1.25.06.34.07.57.07.57s.1.8.1 1.6c.02.78-.03 1.56-.03 1.56l-.04.38s0 .23-.06.56c-.02.16-.05.35-.08.55-.04.2-.07.42-.12.64-.03.2-.08.42-.13.62-.04.2-.1.4-.14.54-.07.32-.14.53-.14.53s-.2.6-.4 1.2c-.1.28-.22.58-.32.8-.1.22-.15.36-.15.36s-.04.05-.08.14c-.04.08-.1.2-.15.32-.1.23-.22.45-.22.45s-.1.22-.25.52c-.17.3-.37.7-.6 1.1-.24.4-.5.78-.68 1.07-.2.28-.33.47-.33.47s-.44.66-.92 1.3c-.12.15-.24.3-.35.46-.12.15-.23.28-.32.4-.18.24-.3.4-.3.4s-.12.13-.23.27c-.1.14-.22.28-.22.28l-.43.55c-.25.33-.6.77-.93 1.23-.33.46-.66.9-.9 1.26-.24.35-.4.6-.4.6s-.15.23-.38.58c-.1.18-.25.4-.4.6-.13.24-.28.48-.42.73-.3.48-.58.97-.78 1.36-.2.37-.33.62-.33.62s-.14.25-.34.63c-.2.4-.44.9-.68 1.43-.22.53-.43 1.07-.6 1.47-.08.2-.14.37-.2.5-.03.1-.05.18-.05.18s-.1.27-.25.7c-.14.4-.3.97-.46 1.52-.15.57-.28 1.15-.38 1.57-.08.44-.13.73-.13.73s-.04.3-.1.73c-.03.22-.07.48-.1.75 0 .14-.03.28-.04.42 0 .15-.02.3-.03.45-.04.6-.04 1.2-.03 1.63 0 .22 0 .4.02.54 0 .13.02.2.02.2s0 .1 0 .24c.02.14.04.32.06.5.05.37.1.74.1.74s.03.2.1.5c.04.3.14.7.25 1.1.05.2.12.4.17.58.06.2.1.36.18.5l.2.47s0 .06.06.16c.05.1.12.26.2.44.2.37.44.84.74 1.28.3.44.64.85.9 1.13.28.3.48.47.48.47s.1.08.32.25c.05-.05.08-.07.08-.07l.07-.07.08-.06s.02-.03.07-.07c-.06-.08-.12-.16-.15-.2-.04-.05-.05-.07-.05-.07s-.14-.2-.3-.5c-.2-.3-.4-.73-.58-1.18-.18-.44-.32-.9-.4-1.24-.05-.17-.1-.32-.1-.42-.04-.1-.05-.16-.05-.16s-.15-.7-.22-1.42c-.03-.36-.06-.72-.06-1-.02-.26-.02-.44-.02-.44s0-.33.02-.65c0-.16 0-.32.02-.44 0-.12.02-.2.02-.2s.06-1.04.27-2.07c.1-.52.24-1.02.33-1.4.1-.4.17-.64.17-.64s.08-.25.2-.63c.12-.38.28-.88.47-1.37.37-.98.82-1.93.82-1.93s.02-.06.07-.17c.04-.1.1-.25.2-.43.18-.35.4-.82.66-1.3.26-.45.52-.9.7-1.25.22-.34.35-.57.35-.57s.14-.22.35-.56c.2-.34.5-.77.8-1.2.14-.23.28-.45.42-.66.15-.2.28-.4.4-.55.23-.3.38-.53.38-.53s.16-.2.4-.53c.23-.3.56-.73.88-1.15.33-.43.67-.84.92-1.14.25-.3.42-.5.42-.5l.43-.52s.14-.18.36-.44c.1-.13.23-.3.37-.45.13-.17.27-.35.4-.52.56-.72 1.07-1.46 1.07-1.46s.14-.23.37-.57c.2-.34.5-.8.76-1.26.27-.47.5-.95.7-1.3l.3-.62s.12-.28.24-.56c.06-.14.12-.28.17-.4.05-.1.08-.17.08-.17s.07-.2.17-.46c.1-.27.23-.64.35-1 .12-.37.23-.74.3-1.02.07-.28.12-.47.12-.47s.07-.26.15-.66c.04-.2.1-.44.13-.7.04-.24.08-.5.1-.78.05-.27.08-.54.1-.8.02-.24.03-.48.04-.68.02-.4.02-.68.02-.68v-.47s0-.25-.02-.6c-.02-.37-.05-.85-.1-1.33-.12-.96-.33-1.9-.33-1.9s-.04-.26-.15-.66c-.1-.38-.25-.9-.42-1.4-.34-1.03-.8-2-.8-2s-.43-1-.96-1.93c-.27-.47-.55-.93-.77-1.27-.22-.33-.37-.55-.37-.55s-.6-.9-1.28-1.72c-.67-.84-1.4-1.62-1.4-1.62s-.25-.25-.75-.76c-.5-.5-1.27-1.25-2.4-2.12-.06.05-.08.08-.08.08"/></defs><use fill="#477EFF" xlink:href="#a" overflow="visible"/><clipPath id="b"><use xlink:href="#a" overflow="visible"/></clipPath><path fill="#477EFF" d="M-21.46 22.75L19.4-4.82l34.08 50.5L12.6 73.25z" clip-path="url(#b)"/><path fill="#7B1FA2" d="M16.86 16.76l.1.17.08.16.1.16.08.16s.02.05.04.1c.02.03.04.07.04.07l.08.16c.04.1.07.17.07.17l.07.17s.07.18.07.18.03.08.06.17c.04.08.06.17.06.17s.07.17.12.35c.05.18.1.35.1.35s.02.05.03.1c0 .03.02.08.02.08l.03.18.05.17.03.18.08.35.06.36s.02.17.03.35l.03.34s.02.7 0 .7v.45l-.03.14v.14l-.03.15v.14l-.04.15-.02.14-.05.3s0 .03 0 .06l-.03.07-.03.13-.07.3s-.17.54-.17.54l-.05.17s-.06.16-.06.16l-.12.32s-.06.16-.13.32l-.15.3-.15.32c-.1.15-.17.3-.17.3s-.1.15-.17.3c-.04.08-.1.15-.12.2-.03.06-.05.1-.05.1l-.1.14-.1.15s-.17.3-.18.3l-.42.55s-.1.14-.22.27c-.1.14-.22.27-.22.27l-.2.27c-.13.15-.25.27-.25.27l-.48.52s-.03.02-.08.07-.12.1-.2.17c-.1.12-.24.25-.24.25s-.13.1-.25.24c-.1.13-.25.24-.25.24l-.54.47s-.02.03-.1.1c-.05.04-.13.12-.25.2-.22.18-.5.42-.8.66-.6.46-1.22.92-1.22.92l-.6.47-.6.46s-.04.03-.1.07c-.05.05-.12.12-.2.18-.14.14-.28.27-.28.27l-.57.5s-.14.16-.36.4c-.2.23-.52.52-.78.85-.27.33-.53.66-.73.9-.17.27-.3.44-.3.44s-.1.17-.2.34c-.07.08-.12.16-.16.22-.04.07-.07.1-.07.1l-.4.7s-.1.18-.18.36c-.1.17-.2.36-.2.36l-.15.36-.08.18-.1.2s0 .03-.03.1c-.03.08-.07.17-.1.27-.07.2-.14.4-.14.4s-.07.2-.14.38c-.05.2-.1.4-.1.4s-.06.2-.12.4c-.02.1-.05.2-.07.27s-.03.12-.03.12l-.07.4-.04.2-.04.2s-.06.22-.07.44l-.05.44-.05.43s0 .05 0 .1v.1l-.02.23v1.7l.08.75s0 .1.02.2c0 .08.02.17.02.17l.03.18.03.18.05.37.03.18.04.2.04.17.03.18.04.18.05.18s.05.2.13.5c.07.28.18.67.3 1.04.13.38.28.75.38 1.03.1.28.18.46.18.46s.08.18.2.45c.13.26.28.6.46.96.17.34.36.68.5.93.15.25.25.42.25.42s.37.6.77 1.17c.2.28.42.56.58.77.17.2.28.33.28.33s.06.07.18.2c-.07-.16-.1-.24-.1-.24s-.3-.63-.53-1.28c-.26-.64-.47-1.3-.47-1.3s-.05-.17-.14-.43c-.08-.27-.2-.63-.3-.98-.1-.36-.18-.72-.25-1-.06-.26-.1-.44-.1-.44s-.17-.72-.28-1.45c-.04-.18-.07-.36-.1-.53-.02-.17-.04-.33-.05-.47-.03-.27-.06-.45-.06-.45l-.02-.17v-.17l-.02-.16-.02-.17v-.17L5.6 49v-.66s-.02-.08-.02-.17c0-.08 0-.16 0-.16l.02-.64v-.2l.03-.18v-.2l.02-.17.02-.18v-.18l.06-.37.03-.2s0-.17.02-.17l.07-.36.05-.36c.03-.2.1-.36.1-.36l.03-.17.05-.16.08-.35s.02-.04.05-.1c.02-.06.04-.14.07-.22.06-.17.1-.33.1-.33s.07-.16.12-.33c.07-.15.13-.3.13-.3s.07-.17.14-.32c.04-.08.07-.16.1-.22.02-.06.04-.1.04-.1l.08-.14.08-.16.14-.3s.07-.14.15-.3l.17-.27.34-.57.4-.54s.1-.14.25-.36c.17-.2.4-.48.62-.76.23-.27.5-.52.67-.72.2-.2.3-.32.3-.32l.5-.45s.13-.1.25-.23c.05-.05.1-.1.16-.15.04-.04.07-.07.07-.07l.53-.42.52-.4v-.02s.65-.5 1.3-1.03c.3-.27.62-.55.85-.75.12-.1.2-.2.28-.26.07-.06.1-.1.1-.1l.58-.56s.14-.13.27-.28c.14-.15.27-.3.27-.3l.27-.3c.13-.14.26-.3.26-.3l.5-.62s.13-.16.25-.32l.24-.33s.47-.65.45-.66l.4-.7s.06-.1.1-.18c.06-.1.1-.18.1-.18l.1-.18.1-.18s0-.05.05-.12c.04-.07.08-.16.12-.25.08-.2.16-.38.16-.38l.15-.38c.07-.2.14-.4.14-.4s.06-.2.13-.4c.06-.2.1-.4.1-.4l.1-.4s.02-.04.03-.1c0-.04.02-.1.02-.1l.03-.2s.12-.68.1-.68l.04-.34v-.18s.03-.17.02-.17V23.08l-.02-.17v-.18l-.03-.17-.06-.5s-.04-.2-.1-.4c-.03-.2-.07-.4-.07-.4l-.1-.4c-.06-.2-.13-.37-.13-.37s-.07-.2-.13-.38c-.08-.2-.16-.37-.16-.37s-.02-.1-.06-.18c-.05-.1-.1-.18-.1-.18l-.08-.18s-.02-.05-.04-.1c-.03-.04-.05-.08-.05-.08s-.1-.17-.2-.34-.2-.33-.2-.33-.06-.1-.1-.17c-.07-.08-.12-.16-.12-.16l-.1-.16-.13-.15s-.06-.07-.12-.14-.13-.15-.13-.15-.03-.03-.06-.06c-.02-.04-.05-.07-.05-.07l-.13-.15-.14-.14-.13-.13-.15-.13-.14-.13c.06.1.1.16.1.16"/><path fill="#13DC90" d="M30.75 29.55v.62c0 .03 0 .08 0 .08v.17l-.02.34-.03.26-.03.26s-.02.26-.03.26l-.04.26-.06.3s-.05.3-.06.3l-.07.28-.06.3s-.06.28-.07.28l-.1.3-.18.55s-.12.3-.12.3l-.1.26-.24.55s0 .05-.04.1c-.03.04-.06.1-.1.18-.06.13-.13.26-.13.26l-.27.52s-.04.07-.07.13c-.04.06-.08.12-.08.12l-.16.25-.32.5-.16.25c-.1.1-.18.23-.18.23l-.36.47-.35.47s-.02.02-.06.06c-.04.04-.1.1-.14.15l-.2.23-.4.43s-.1.1-.2.22c-.04.06-.1.1-.13.15-.04.04-.07.06-.07.06s-.43.4-.87.8c-.2.2-.42.4-.6.53-.18.14-.3.23-.3.23l-.2.16-.4.33-.42.33-.44.3-.44.3-.23.14-.23.16-.23.16-.23.15-.3.2-.27.17-.28.2-.15.1-.14.1-.5.38s-.12.1-.25.2c-.12.1-.24.2-.24.2l-.47.43s-.06.05-.12.1c-.05.06-.1.12-.1.12l-.23.23s-.1.1-.23.22c-.1.12-.22.24-.22.24l-.42.47s-.03.03-.07.08c-.04.04-.1.1-.14.16-.1.14-.2.27-.2.27l-.2.25-.1.13c-.05.06-.1.13-.1.13l-.35.54-.08.13c-.05.07-.1.14-.1.14l-.15.26-.16.28s-.04.07-.08.14l-.08.14-.14.3-.14.28s-.04.06-.07.12c-.02.07-.05.13-.05.13l-.1.26-.13.27-.05.13-.05.13s-.12.34-.24.67l-.2.7c0-.02-.05.14-.1.37-.07.23-.15.54-.2.85-.14.62-.2 1.25-.2 1.25s-.08.62-.1 1.25c-.02.3-.02.63-.02.86 0 .24.02.4.02.4s0 .2 0 .4c.03.22.04.43.04.43s0 .1.02.26.03.36.06.57c.03.2.05.4.08.56l.04.25s.1.56.23 1.1c.05.28.13.55.2.76s.1.34.1.34.03.07.07.2c0-.14-.02-.2-.02-.2s-.08-.57-.1-1.12c-.05-.56-.06-1.1-.06-1.1v-.27c0-.15 0-.35 0-.55 0-.2 0-.4 0-.55.02-.15.02-.25.02-.25s.02-.2.03-.4c0-.2.04-.4.04-.4s.04-.6.13-1.2c.08-.6.2-1.17.2-1.17s.05-.14.1-.36c.05-.22.12-.5.2-.8.08-.27.17-.55.24-.76.07-.2.12-.34.12-.34s.1-.3.23-.6.26-.6.26-.6.02-.07.05-.13c.02-.06.05-.12.05-.12l.12-.22.1-.23.07-.1c.02-.07.05-.13.05-.13l.15-.25.14-.25s.04-.07.07-.13l.1-.13.15-.25.16-.24s.04-.06.1-.12c.03-.06.07-.12.07-.12l.35-.47s.03-.06.08-.12c.05-.05.1-.1.1-.1l.18-.24.2-.2c.03-.07.08-.12.1-.16s.08-.07.08-.07l.4-.43s.1-.1.2-.2.2-.2.2-.2l.2-.2s.07-.06.12-.1c.05-.06.1-.1.1-.1l.45-.4s.1-.08.22-.18l.23-.18.47-.35.12-.1c.06-.04.12-.08.12-.08l.25-.18.26-.17.27-.18.24-.17.26-.16.24-.18.24-.17.46-.32.46-.32.43-.35.42-.37.2-.17s.13-.1.3-.25c.2-.14.42-.37.64-.6l.9-.9s0-.03.05-.07c.05-.05.1-.1.15-.17.1-.1.2-.24.2-.24l.4-.5s.1-.12.2-.24c.05-.06.1-.13.13-.17s.06-.08.06-.08l.35-.53.34-.53.17-.26c.08-.14.15-.28.15-.28l.3-.56.14-.28s.03-.07.07-.15c.03-.07.06-.14.06-.14l.23-.6.12-.3c.02-.06.05-.13.08-.2.02-.04.03-.08.03-.08l.17-.6.1-.3s0-.1.03-.16c.02-.1.03-.17.03-.17l.12-.62.06-.3c.02 0 .05-.3.05-.3l.03-.32.04-.3s0-.1 0-.17c0-.06.02-.14.02-.14V31.58s0-.07 0-.14l-.02-.14v-.27l-.03-.27-.05-.35-.02-.16s0-.05-.02-.1c0-.03 0-.08 0-.08l-.03-.17-.04-.18-.04-.17s-.03-.06-.06-.17c.02.12.02.18.02.18"/><defs><path id="c" d="M7.53 23.33c0 2.34 1.9 4.24 4.24 4.24 2.34 0 4.24-1.9 4.24-4.24 0-2.34-1.9-4.23-4.23-4.23-2.34 0-4.24 1.9-4.24 4.23"/></defs><clipPath id="d"><use xlink:href="#c" overflow="visible"/></clipPath><linearGradient id="e" x1="-702.081" x2="-701.767" y1="23.684" y2="23.684" gradientUnits="userSpaceOnUse" gradientTransform="matrix(18.725 -19.39 19.39 18.725 12695.795 -14030.39)"><stop offset="0" stop-color="#3A0F4D"/><stop offset=".726" stop-color="#7B1FA2"/><stop offset="1" stop-color="#9066A2"/></linearGradient><path fill="url(#e)" d="M3.3 23.48l8.32-8.62 8.62 8.32-8.32 8.62z" clip-path="url(#d)"/><defs><path id="f" d="M7.53 23.33c0 2.34 1.9 4.24 4.24 4.24 2.34 0 4.24-1.9 4.24-4.24 0-2.34-1.9-4.23-4.23-4.23-2.34 0-4.24 1.9-4.24 4.23"/></defs><use fill="#3A0F4D" xlink:href="#f" overflow="visible"/><clipPath id="g"><use xlink:href="#f" overflow="visible"/></clipPath><path fill="#3A0F4D" d="M3.3 23.48l8.32-8.62 8.62 8.32-8.32 8.62z" clip-path="url(#g)"/></svg>