<svg xmlns="http://www.w3.org/2000/svg" width="80.611" height="68.367" xmlns:xlink="http://www.w3.org/1999/xlink"><defs><path id="a" d="M10.2 3.65h60.2v60.2H10.2z"/></defs><clipPath id="b"><use xlink:href="#a" overflow="visible"/></clipPath><path fill="#fff" d="M22.32 29.73c4.82 9.46 12.56 17.2 22.05 22.03l7.36-7.38c.92-.92 2.24-1.2 3.4-.82 3.74 1.24 7.77 1.9 11.94 1.9 1.86 0 3.34 1.5 3.34 3.36v11.7c0 1.86-1.47 3.35-3.33 3.35C35.65 63.87 10.2 38.4 10.2 7c0-1.86 1.5-3.35 3.34-3.35h11.7c1.86 0 3.36 1.5 3.36 3.34 0 4.16.66 8.2 1.9 11.94.38 1.15.1 2.47-.82 3.4l-7.36 7.4z" clip-path="url(#b)"/></svg>