<svg xmlns="http://www.w3.org/2000/svg" width="80.611" height="68.367" xmlns:xlink="http://www.w3.org/1999/xlink"><defs><path id="a" d="M12.88 11.84h54.85v44.68H12.88z"/></defs><clipPath id="b"><use xlink:href="#a" overflow="visible"/></clipPath><path fill="#fff" fill-rule="evenodd" d="M12.88 51.7v-.4c.3-.38.71-.3 1.1-.27 3.74.15 7.3-.47 10.72-2 1-.46 1.93-1.04 3-1.7-1.66-.5-3.2-.92-4.5-1.85-1.93-1.36-3.44-3.04-4.36-5.23-.52-1.24-.17-1.73 1.18-1.65.76.03 1.54 0 2.3.2-1.1-.2-2.05-.73-2.93-1.4-3.04-2.3-4.7-5.3-4.9-9.1-.04-.82.4-1.2 1.2-.95.7.2 1.35.56 2.2.76-.84-1.1-1.66-2.1-2.2-3.3-1.55-3.4-1.45-6.78 0-10.17.4-.94 1.16-1.1 1.9-.36 1.1 1.08 2.08 2.25 3.26 3.25 4.47 3.8 9.56 6.27 15.35 7.28.53.1 1.06.2 1.6.24 1.16.1 1.22.06 1.24-1.16.02-1.03-.06-2.07.17-3.1.87-3.83 3.1-6.58 6.6-8.28.98-.47 2.08-.44 3.14-.54.26-.02.54.08.78-.1h2c.53.24 1.1.13 1.66.17 1.96.1 3.6.93 5 2.2.58.5 1.13.6 1.84.42 1.68-.47 3.3-1.06 4.83-1.9.4-.2.8-.43 1.18-.06.37.33.27.76.1 1.2-.6 1.65-1.6 3.05-2.87 4.16 1-.27 2.06-.56 3.1-.98.4-.17.83-.23 1.17.2v.2c-.63 2.28-2.47 3.64-4.1 5.12-.67.62-1.05 1.18-1.05 2.1 0 8.07-2.77 15.16-7.88 21.3-4.06 4.86-9.2 8.22-15.4 9.9-1.47.4-3 .38-4.53.5-.3.03-.6-.1-.87.1h-7.4c-.82-.17-1.64-.14-2.46-.2-3.67-.27-6.9-1.77-10.1-3.45-.5-.25-.8-.67-1.06-1.15" clip-path="url(#b)" clip-rule="evenodd"/></svg>