<?xml version="1.0" encoding="utf-8"?>
<!-- Generator: Adobe Illustrator 15.1.0, SVG Export Plug-In . SVG Version: 6.00 Build 0)  -->
<!DOCTYPE svg PUBLIC "-//W3C//DTD SVG 1.1//EN" "http://www.w3.org/Graphics/SVG/1.1/DTD/svg11.dtd">
<svg version="1.1" id="Layer_1" xmlns="http://www.w3.org/2000/svg" xmlns:xlink="http://www.w3.org/1999/xlink" x="0px" y="0px"
	 width="80.611px" height="68.367px" viewBox="0 0 80.611 68.367" enable-background="new 0 0 80.611 68.367" xml:space="preserve">
<path d="M61.969,9.833H18.646c-1.488,0-2.692,1.204-2.692,2.692v43.317c0,1.488,1.204,2.693,2.692,2.693H41.97V39.672h-6.349v-7.348
	h6.349v-5.42c0-6.293,3.84-9.717,9.446-9.717c2.688,0,5.009,0.202,5.678,0.288v6.578h-3.896c-3.052,0-3.64,1.45-3.64,3.579v4.691
	h7.275l-0.947,7.348h-6.328v18.861h12.411c1.483,0,2.688-1.203,2.688-2.691V12.523C64.657,11.037,63.453,9.833,61.969,9.833z"/>
</svg>
