<?xml version="1.0" encoding="utf-8"?>
<!-- Generator: Adobe Illustrator 15.1.0, SVG Export Plug-In . SVG Version: 6.00 Build 0)  -->
<!DOCTYPE svg PUBLIC "-//W3C//DTD SVG 1.1//EN" "http://www.w3.org/Graphics/SVG/1.1/DTD/svg11.dtd">
<svg version="1.1" id="Layer_1" xmlns="http://www.w3.org/2000/svg" xmlns:xlink="http://www.w3.org/1999/xlink" x="0px" y="0px"
	 width="80.611px" height="68.367px" viewBox="0 0 80.611 68.367" enable-background="new 0 0 80.611 68.367" xml:space="preserve">
<g>
	<g>
		<defs>
			<rect id="SVGID_1_" x="15.954" y="9.833" width="48.703" height="48.702"/>
		</defs>
		<clipPath id="SVGID_2_">
			<use xlink:href="#SVGID_1_"  overflow="visible"/>
		</clipPath>
		<path clip-path="url(#SVGID_2_)" fill="#FFFFFF" d="M61.969,9.833H18.646c-1.488,0-2.692,1.204-2.692,2.692v43.318
			c0,1.488,1.204,2.692,2.692,2.692H41.97V39.672h-6.348v-7.348h6.348v-5.42c0-6.292,3.84-9.716,9.447-9.716
			c2.688,0,5.009,0.202,5.677,0.288v6.578h-3.896c-3.052,0-3.64,1.45-3.64,3.58v4.69h7.276l-0.948,7.348h-6.328v18.862h12.411
			c1.484,0,2.688-1.204,2.688-2.692V12.524C64.657,11.037,63.453,9.833,61.969,9.833"/>
	</g>
</g>
</svg>
