<?xml version="1.0" encoding="utf-8"?>
<!-- Generator: Adobe Illustrator 15.1.0, SVG Export Plug-In . SVG Version: 6.00 Build 0)  -->
<!DOCTYPE svg PUBLIC "-//W3C//DTD SVG 1.1//EN" "http://www.w3.org/Graphics/SVG/1.1/DTD/svg11.dtd">
<svg version="1.1" id="Layer_1" xmlns="http://www.w3.org/2000/svg" xmlns:xlink="http://www.w3.org/1999/xlink" x="0px" y="0px"
	 width="59.997px" height="53.997px" viewBox="0 0 59.997 53.997" enable-background="new 0 0 59.997 53.997" xml:space="preserve">
<path fill="#FFFFFF" d="M38.998,26.998c2.76,0,4.98-2.24,4.98-5s-2.221-5-4.98-5s-5,2.24-5,5S36.238,26.998,38.998,26.998"/>
<path fill="#FFFFFF" d="M23.998,24.998c3.311,0,5.979-2.689,5.979-6c0-3.31-2.668-6-5.979-6s-6,2.69-6,6
	C17.998,22.309,20.688,24.998,23.998,24.998"/>
<path fill="#FFFFFF" d="M38.998,30.998c-3.67,0-11,1.84-11,5.5v4.5h22v-4.5C49.998,32.838,42.668,30.998,38.998,30.998"/>
<path fill="#FFFFFF" d="M23.998,28.998c-4.67,0-14,2.34-14,7v5h14v-4.5c0-1.699,0.67-4.67,4.74-6.939
	C26.998,29.188,25.309,28.998,23.998,28.998"/>
</svg>
