<?xml version="1.0" encoding="utf-8"?>
<!-- Generator: Adobe Illustrator 15.1.0, SVG Export Plug-In . SVG Version: 6.00 Build 0)  -->
<!DOCTYPE svg PUBLIC "-//W3C//DTD SVG 1.1//EN" "http://www.w3.org/Graphics/SVG/1.1/DTD/svg11.dtd">
<svg version="1.1" id="Layer_1" xmlns="http://www.w3.org/2000/svg" xmlns:xlink="http://www.w3.org/1999/xlink" x="0px" y="0px"
	 width="59.997px" height="53.997px" viewBox="0 0 59.997 53.997" enable-background="new 0 0 59.997 53.997" xml:space="preserve">
<path fill-rule="evenodd" clip-rule="evenodd" fill="#7B1FA2" d="M5.048,37.752c1.335-7.301,8.905-10.938,15.065-7.206
	c1.509,0.914,2.895,0.991,4.447,0.462c0.678-0.233,1.341-0.585,2.035-0.664c0.707-0.079,1.828-0.143,2.078,0.239
	c0.371,0.568,0.406,1.654,0.111,2.309c-0.889,1.957-2.705,2.715-4.645,3.529c-6.002,2.516-12.242,1.09-18.366,1.46
	C5.535,37.896,5.29,37.797,5.048,37.752"/>
<path fill-rule="evenodd" clip-rule="evenodd" fill="#7B1FA2" d="M54.947,37.795H38.572l0.223-0.404
	c-0.708-0.487-1.354-1.195-2.136-1.418c-1.924-0.545-3.529-1.498-4.402-3.28c-0.343-0.696-0.263-1.769,0.021-2.521
	c0.102-0.271,1.474-0.351,2.083-0.089c2.623,1.122,4.861,0.986,7.543-0.428C47.316,26.801,55.092,31.797,54.947,37.795"/>
<path fill-rule="evenodd" clip-rule="evenodd" fill="#7B1FA2" d="M36.775,25.5c0.471,0.708,0.893,1.347,1.414,2.13
	c-0.463,0-0.863,0.127-1.053-0.02c-2.121-1.635-4.645-0.703-6.922-1.174c-1.848-0.381-3.779-1.104-5.286-2.205
	c-2.042-1.493-1.911-3.989-0.124-5.808c3.08-3.134,10.159-3.186,13.333-0.1C40.341,20.467,39.936,22.84,36.775,25.5"/>
<path fill-rule="evenodd" clip-rule="evenodd" fill="#7B1FA2" d="M45.886,18.131c2.872-0.008,5.147,2.24,5.128,5.065
	c-0.018,2.772-2.426,5.138-5.182,5.09c-2.717-0.047-4.963-2.312-5.002-5.043C40.789,20.39,43.016,18.139,45.886,18.131"/>
<path fill-rule="evenodd" clip-rule="evenodd" fill="#7B1FA2" d="M15.455,18.271c2.737-0.015,4.987,2.248,4.949,4.978
	c-0.037,2.686-2.179,4.802-4.877,4.821c-2.813,0.021-4.932-2.114-4.905-4.944C10.646,20.433,12.783,18.288,15.455,18.271"/>
</svg>
