<?xml version="1.0" encoding="utf-8"?>
<!-- Generator: Adobe Illustrator 15.1.0, SVG Export Plug-In . SVG Version: 6.00 Build 0)  -->
<!DOCTYPE svg PUBLIC "-//W3C//DTD SVG 1.1//EN" "http://www.w3.org/Graphics/SVG/1.1/DTD/svg11.dtd">
<svg version="1.1" id="Layer_1" xmlns="http://www.w3.org/2000/svg" xmlns:xlink="http://www.w3.org/1999/xlink" x="0px" y="0px"
	 width="59.997px" height="53.997px" viewBox="0 0 59.997 53.997" enable-background="new 0 0 59.997 53.997" xml:space="preserve">
<path fill-rule="evenodd" clip-rule="evenodd" fill="#7B1FA2" d="M30.573,6.921H48.22v26.352
	C40.386,31.266,31.368,17.811,30.573,6.921"/>
<path fill-rule="evenodd" clip-rule="evenodd" fill="#7B1FA2" d="M11.791,33.279V6.967h17.55
	C28.968,17.204,19.798,31.008,11.791,33.279"/>
<path fill-rule="evenodd" clip-rule="evenodd" fill="#7B1FA2" d="M48.22,47.076c-1.225-0.305-2.292-0.568-3.146-0.779
	c1.175-3.25,2.219-6.141,3.146-8.705V47.076z"/>
<path fill-rule="evenodd" clip-rule="evenodd" fill="#7B1FA2" d="M14.894,46.295c-0.828,0.205-1.893,0.471-3.115,0.773v-9.279
	C12.741,40.418,13.729,43.115,14.894,46.295"/>
<path fill-rule="evenodd" clip-rule="evenodd" fill="#7B1FA2" d="M45.369,37.947H34.742h-3.455h-2.463v0.068H14.481
	c0.043,1.551,0.521,2.199,2.135,2.186c8.959-0.082,17.918-0.037,26.876-0.041C45.347,40.16,45.461,40.029,45.369,37.947"/>
<path fill="#7B1FA2" d="M29.937,28.523c2.32,0,4.198-1.882,4.198-4.197c0-2.319-1.878-4.198-4.198-4.198
	c-2.319,0-4.198,1.879-4.198,4.198C25.738,26.641,27.617,28.523,29.937,28.523 M29.937,30.623c-2.797,0-8.396,1.402-8.396,4.199v2.1
	h16.793v-2.1C38.333,32.025,32.733,30.623,29.937,30.623"/>
</svg>
