<?xml version="1.0" encoding="utf-8"?>
<!-- Generator: Adobe Illustrator 16.0.0, SVG Export Plug-In . SVG Version: 6.00 Build 0)  -->
<!DOCTYPE svg PUBLIC "-//W3C//DTD SVG 1.1//EN" "http://www.w3.org/Graphics/SVG/1.1/DTD/svg11.dtd">
<svg version="1.1" id="Layer_1" xmlns="http://www.w3.org/2000/svg" xmlns:xlink="http://www.w3.org/1999/xlink" x="0px" y="0px"
	 width="55.994px" height="54.333px" viewBox="0 0 55.994 54.333" enable-background="new 0 0 55.994 54.333" xml:space="preserve">
<path fill="#13DC90" d="M21.352,26.713c-1.528,0-2.771,1.227-2.771,2.738s1.242,2.738,2.771,2.738c1.527,0,2.769-1.226,2.769-2.738
	S22.879,26.713,21.352,26.713 M34.644,26.713c-1.528,0-2.77,1.227-2.77,2.738s1.241,2.738,2.77,2.738s2.769-1.226,2.769-2.738
	S36.172,26.713,34.644,26.713 M27.997,5.362c-12.24,0-22.155,9.801-22.155,21.898c0,12.101,9.915,21.9,22.155,21.9
	s22.155-9.799,22.155-21.9C50.152,15.163,40.237,5.362,27.997,5.362 M27.997,44.781c-9.77,0-17.724-7.863-17.724-17.521
	c0-0.633,0.045-1.258,0.111-1.871c5.217-2.287,9.383-6.516,11.542-11.76c4.01,5.584,10.601,9.252,18.067,9.252
	c1.716,0,3.391-0.207,4.984-0.58c0.477,1.576,0.742,3.242,0.742,4.959C45.721,36.918,37.769,44.781,27.997,44.781"/>
</svg>
