<?xml version="1.0" encoding="utf-8"?>
<!-- Generator: Adobe Illustrator 16.0.0, SVG Export Plug-In . SVG Version: 6.00 Build 0)  -->
<!DOCTYPE svg PUBLIC "-//W3C//DTD SVG 1.1//EN" "http://www.w3.org/Graphics/SVG/1.1/DTD/svg11.dtd">
<svg version="1.1" id="Layer_1" xmlns="http://www.w3.org/2000/svg" xmlns:xlink="http://www.w3.org/1999/xlink" x="0px" y="0px"
	 width="55.994px" height="38.998px" viewBox="0 0 55.994 38.998" enable-background="new 0 0 55.994 38.998" xml:space="preserve">
<path fill="#477EFF" d="M29.357,9.845V2.122H9.834v34.754h39.049V9.845H29.357z M17.645,33.015h-3.906v-3.861h3.906V33.015z
	 M17.645,25.292h-3.906v-3.861h3.906V25.292z M17.645,17.567h-3.906v-3.861h3.906V17.567z M17.645,9.845h-3.906V5.983h3.906V9.845z
	 M25.453,33.015h-3.904v-3.861h3.904V33.015z M25.453,25.292h-3.904v-3.861h3.904V25.292z M25.453,17.567h-3.904v-3.861h3.904
	V17.567z M25.453,9.845h-3.904V5.983h3.904V9.845z M44.978,33.015h-15.62v-3.861h3.905v-3.861h-3.905v-3.861h3.905v-3.864h-3.905
	v-3.861h15.62V33.015z M41.071,17.567h-3.904v3.864h3.904V17.567z M41.071,25.292h-3.904v3.861h3.904V25.292z"/>
</svg>
