<?xml version="1.0" encoding="utf-8"?>
<!-- Generator: Adobe Illustrator 15.1.0, SVG Export Plug-In . SVG Version: 6.00 Build 0)  -->
<!DOCTYPE svg PUBLIC "-//W3C//DTD SVG 1.1//EN" "http://www.w3.org/Graphics/SVG/1.1/DTD/svg11.dtd">
<svg version="1.1" id="Layer_1" xmlns="http://www.w3.org/2000/svg" xmlns:xlink="http://www.w3.org/1999/xlink" x="0px" y="0px"
	 width="59.997px" height="53.997px" viewBox="0 0 59.997 53.997" enable-background="new 0 0 59.997 53.997" xml:space="preserve">
<path fill-rule="evenodd" clip-rule="evenodd" fill="#FFFFFF" d="M18.339,31.092c-0.482,1.908-0.402,3.606-1.207,4.368
	c-1.786,1.687-3.984,2.954-6.096,4.26c-0.331,0.205-1.457-0.157-1.572-0.485c-0.186-0.526-0.054-1.483,0.331-1.83
	c1.132-1.02,2.49-1.784,3.683-2.747c0.437-0.354,0.969-1.008,0.926-1.476c-0.455-4.794,1.136-9.051,3.264-13.19
	c0.107-0.208,0.107-0.47,0.296-1.361c-1.806,1.258-3.176,2.217-4.551,3.167c-0.578,0.399-1.136,1.015-1.763,1.107
	c-0.707,0.105-1.801-0.039-2.136-0.502c-0.347-0.479-0.286-1.854,0.12-2.174c2.203-1.736,4.551-3.298,6.903-4.834
	c0.331-0.216,1.022-0.092,1.454,0.092c3.175,1.344,6.361,2.673,9.468,4.161c1.178,0.563,2.085,0.723,3.093-0.21
	c0.51-0.473,1.107-1.042,1.736-1.147c0.754-0.124,1.943-0.062,2.277,0.399c0.352,0.492,0.227,1.873-0.223,2.292
	c-1.25,1.164-2.729,2.12-4.225,2.966c-0.477,0.27-1.348,0.072-1.947-0.153c-1.058-0.396-2.042-0.98-3.181-1.547
	c-0.875,1.916-1.662,3.646-2.483,5.449c0.3,0.153,0.505,0.301,0.733,0.369c1.51,0.447,3.722,0.407,4.395,1.407
	c1.499,2.229,2.301,4.948,3.196,7.533c0.148,0.422-0.66,1.664-1.049,1.674c-0.717,0.02-1.776-0.4-2.118-0.979
	c-0.835-1.418-1.251-3.076-2.026-4.536c-0.327-0.617-1.079-1.271-1.737-1.399C22.021,31.395,20.085,31.285,18.339,31.092"/>
<polygon fill-rule="evenodd" clip-rule="evenodd" fill="#FFFFFF" points="26.74,40.558 26.74,43.538 36.836,43.538 36.836,36.726 
	43.867,36.726 43.867,29.346 50.709,29.346 50.709,26.251 40.852,26.251 40.852,33.345 33.857,33.345 33.857,40.558 "/>
<path fill-rule="evenodd" clip-rule="evenodd" fill="#FFFFFF" d="M26.665,11.784c1.004,1.402,0.694,3.357-0.696,4.405
	c-1.472,1.107-3.494,0.817-4.549-0.65c-1.036-1.447-0.652-3.561,0.825-4.55C23.665,10.04,25.677,10.401,26.665,11.784"/>
</svg>
