<?xml version="1.0" encoding="utf-8"?>
<!-- Generator: Adobe Illustrator 15.1.0, SVG Export Plug-In . SVG Version: 6.00 Build 0)  -->
<!DOCTYPE svg PUBLIC "-//W3C//DTD SVG 1.1//EN" "http://www.w3.org/Graphics/SVG/1.1/DTD/svg11.dtd">
<svg version="1.1" id="Layer_1" xmlns="http://www.w3.org/2000/svg" xmlns:xlink="http://www.w3.org/1999/xlink" x="0px" y="0px"
	 width="59.997px" height="53.997px" viewBox="0 0 59.997 53.997" enable-background="new 0 0 59.997 53.997" xml:space="preserve">
<path fill-rule="evenodd" clip-rule="evenodd" fill="#7B1FA2" d="M40.227,39.597c2.225-2.654,4.953-3.737,8.301-2.257
	c2.352,1.04,3.6,3.212,3.385,5.824h-9.023c0.146,1.052,0.263,1.897,0.402,2.906c-0.639,0.048-1.15,0.116-1.661,0.116
	c-6.371,0.008-12.743-0.027-19.112,0.034c-1.197,0.012-1.757-0.381-2.217-1.473c-4.32-10.264-8.719-20.495-13.025-30.767
	c-0.311-0.742-0.42-2.113,0-2.479c0.516-0.449,1.791-0.422,2.555-0.127c5.205,2.009,9.992,1.469,14.564-1.799
	c4.064-2.906,8.599-4.526,13.646-3.484c4.477,0.924,7.86,3.387,9.463,7.873c0.137,0.385,0.253,0.781,0.336,1.182
	c0.031,0.152-0.059,0.331-0.146,0.752c-0.627-0.225-1.182-0.494-1.767-0.617c-2.398-0.508-4.789-1.209-7.216-1.383
	c-2.483-0.18-4.664,1.03-6.068,3.076c-4.251,6.189-10.088,8.145-17.265,6.814c-0.167-0.031-0.343-0.004-0.845-0.004
	c2.606,6.172,5.15,12.193,7.766,18.383c2.719-0.982,5.367-1.776,7.877-2.884C34.512,37.368,35.998,37.325,40.227,39.597"/>
<path fill-rule="evenodd" clip-rule="evenodd" fill="#7B1FA2" d="M39.342,30.76c-0.015,2.812-2.266,5.063-5.059,5.065
	c-2.777,0.002-5.089-2.273-5.125-5.044c-0.035-2.815,2.375-5.214,5.193-5.167C37.145,25.661,39.357,27.943,39.342,30.76"/>
<path fill-rule="evenodd" clip-rule="evenodd" fill="#7B1FA2" d="M41.297,31.132c0.011-2.195,1.723-3.904,3.916-3.913
	c2.188-0.009,3.938,1.696,3.973,3.868c0.035,2.23-1.785,4.053-4.015,4.02C43.014,35.073,41.285,33.3,41.297,31.132"/>
</svg>
