<?xml version="1.0" encoding="utf-8"?>
<!-- Generator: Adobe Illustrator 16.0.0, SVG Export Plug-In . SVG Version: 6.00 Build 0)  -->
<!DOCTYPE svg PUBLIC "-//W3C//DTD SVG 1.1//EN" "http://www.w3.org/Graphics/SVG/1.1/DTD/svg11.dtd">
<svg version="1.1" id="Layer_1" xmlns="http://www.w3.org/2000/svg" xmlns:xlink="http://www.w3.org/1999/xlink" x="0px" y="0px"
	 width="55.994px" height="38.998px" viewBox="0 0 55.994 38.998" enable-background="new 0 0 55.994 38.998" xml:space="preserve">
<path fill="#7B1FA2" d="M35.868,15.686c3.301,0,5.963-2.683,5.963-5.984c0-3.301-2.662-5.983-5.963-5.983
	c-3.303,0-5.984,2.683-5.984,5.983C29.884,13.003,32.565,15.686,35.868,15.686 M19.91,15.686c3.301,0,5.964-2.683,5.964-5.984
	c0-3.301-2.663-5.983-5.964-5.983s-5.984,2.683-5.984,5.983C13.926,13.003,16.609,15.686,19.91,15.686 M19.91,19.675
	c-4.657,0-13.962,2.334-13.962,6.981v4.986h27.924v-4.986C33.872,22.009,24.568,19.675,19.91,19.675 M35.868,19.675
	c-0.58,0-1.229,0.039-1.926,0.109c2.314,1.665,3.92,3.91,3.92,6.872v4.986h11.967v-4.986C49.829,22.009,40.524,19.675,35.868,19.675
	"/>
</svg>
