<?xml version="1.0" encoding="utf-8"?>
<!-- Generator: Adobe Illustrator 15.1.0, SVG Export Plug-In . SVG Version: 6.00 Build 0)  -->
<!DOCTYPE svg PUBLIC "-//W3C//DTD SVG 1.1//EN" "http://www.w3.org/Graphics/SVG/1.1/DTD/svg11.dtd">
<svg version="1.1" id="Layer_1" xmlns="http://www.w3.org/2000/svg" xmlns:xlink="http://www.w3.org/1999/xlink" x="0px" y="0px"
	 width="59.997px" height="53.997px" viewBox="0 0 59.997 53.997" enable-background="new 0 0 59.997 53.997" xml:space="preserve">
<path fill-rule="evenodd" clip-rule="evenodd" fill="#7B1FA2" d="M18.339,30.092c-0.482,1.908-0.402,3.606-1.207,4.368
	c-1.786,1.687-3.984,2.954-6.096,4.26c-0.331,0.205-1.457-0.157-1.572-0.485c-0.186-0.526-0.054-1.483,0.331-1.831
	c1.132-1.019,2.49-1.783,3.682-2.746c0.438-0.354,0.971-1.008,0.927-1.476c-0.454-4.794,1.136-9.051,3.264-13.19
	c0.107-0.208,0.107-0.47,0.296-1.361c-1.805,1.258-3.176,2.217-4.551,3.167c-0.578,0.398-1.136,1.015-1.764,1.106
	c-0.706,0.106-1.8-0.038-2.135-0.502c-0.347-0.478-0.286-1.854,0.12-2.173c2.203-1.736,4.55-3.298,6.903-4.834
	c0.331-0.216,1.022-0.092,1.454,0.091c3.175,1.345,6.36,2.674,9.468,4.162c1.178,0.563,2.086,0.723,3.093-0.21
	c0.51-0.473,1.108-1.042,1.737-1.147c0.753-0.124,1.942-0.062,2.275,0.399c0.353,0.492,0.228,1.873-0.222,2.292
	c-1.25,1.164-2.728,2.12-4.225,2.965c-0.477,0.271-1.348,0.073-1.946-0.152c-1.057-0.396-2.042-0.98-3.181-1.547
	c-0.874,1.916-1.662,3.646-2.483,5.448c0.299,0.154,0.505,0.302,0.734,0.37c1.509,0.447,3.721,0.407,4.394,1.407
	c1.499,2.229,2.3,4.948,3.196,7.533c0.146,0.422-0.66,1.664-1.049,1.674c-0.719,0.02-1.776-0.401-2.118-0.979
	c-0.835-1.418-1.251-3.076-2.026-4.536c-0.327-0.617-1.079-1.271-1.737-1.399C22.02,30.395,20.085,30.285,18.339,30.092"/>
<polygon fill-rule="evenodd" clip-rule="evenodd" fill="#7B1FA2" points="26.739,39.558 26.739,42.538 36.835,42.538 36.835,35.726 
	43.867,35.726 43.867,28.346 50.709,28.346 50.709,25.251 40.852,25.251 40.852,32.345 33.857,32.345 33.857,39.558 "/>
<path fill-rule="evenodd" clip-rule="evenodd" fill="#7B1FA2" d="M26.664,10.784c1.004,1.402,0.694,3.357-0.696,4.405
	c-1.472,1.107-3.495,0.817-4.549-0.65c-1.036-1.447-0.652-3.561,0.825-4.55C23.664,9.04,25.677,9.401,26.664,10.784"/>
</svg>
