<?xml version="1.0" encoding="utf-8"?>
<!-- Generator: Adobe Illustrator 15.1.0, SVG Export Plug-In . SVG Version: 6.00 Build 0)  -->
<!DOCTYPE svg PUBLIC "-//W3C//DTD SVG 1.1//EN" "http://www.w3.org/Graphics/SVG/1.1/DTD/svg11.dtd">
<svg version="1.1" id="Layer_1" xmlns="http://www.w3.org/2000/svg" xmlns:xlink="http://www.w3.org/1999/xlink" x="0px" y="0px"
	 width="34.25px" height="68.367px" viewBox="0 0 34.25 68.367" enable-background="new 0 0 34.25 68.367" xml:space="preserve">
<g>
	<g>
		<defs>
			<path id="SVGID_1_" d="M16.92,3.996l-0.061,0.082L16.798,4.16c0,0-0.021,0.027-0.062,0.082c0.856,1.153,1.421,2.054,1.805,2.636
				c0.375,0.591,0.546,0.893,0.546,0.893s0.134,0.224,0.322,0.565c0.194,0.334,0.45,0.781,0.687,1.235
				c0.234,0.453,0.471,0.9,0.629,1.242c0.166,0.339,0.266,0.569,0.264,0.569c0,0,0.104,0.227,0.258,0.568
				c0.148,0.34,0.339,0.796,0.506,1.255c0.171,0.458,0.333,0.912,0.441,1.256c0.105,0.343,0.178,0.572,0.178,0.572
				s0.062,0.229,0.154,0.573c0.092,0.342,0.209,0.796,0.3,1.251c0.091,0.456,0.165,0.909,0.204,1.249
				c0.056,0.338,0.074,0.563,0.074,0.563s0.096,0.802,0.1,1.594c0.018,0.792-0.035,1.571-0.035,1.571l-0.035,0.379
				c0,0-0.015,0.218-0.062,0.542c-0.019,0.162-0.047,0.351-0.084,0.552c-0.026,0.201-0.062,0.417-0.106,0.63
				c-0.036,0.214-0.085,0.427-0.132,0.625c-0.043,0.199-0.092,0.384-0.139,0.542c-0.084,0.316-0.151,0.525-0.151,0.525
				s-0.185,0.597-0.396,1.19c-0.114,0.294-0.221,0.59-0.319,0.809c-0.095,0.219-0.156,0.365-0.156,0.365s-0.024,0.059-0.065,0.145
				c-0.041,0.086-0.097,0.202-0.15,0.317c-0.104,0.232-0.227,0.459-0.227,0.459s-0.104,0.201-0.25,0.504
				c-0.166,0.299-0.371,0.702-0.61,1.095c-0.226,0.397-0.487,0.782-0.671,1.076c-0.196,0.289-0.326,0.481-0.326,0.481
				s-0.434,0.655-0.911,1.292c-0.12,0.159-0.239,0.318-0.353,0.468c-0.117,0.146-0.227,0.283-0.32,0.4
				c-0.189,0.236-0.314,0.393-0.314,0.393l-0.003,0.004c0,0-0.111,0.137-0.221,0.273c-0.109,0.141-0.217,0.279-0.217,0.279
				l-0.428,0.553c-0.257,0.332-0.603,0.771-0.928,1.23c-0.329,0.457-0.658,0.911-0.904,1.253c-0.231,0.356-0.385,0.593-0.385,0.593
				s-0.154,0.238-0.385,0.594c-0.114,0.178-0.249,0.386-0.392,0.607c-0.138,0.229-0.284,0.473-0.429,0.717
				c-0.294,0.487-0.583,0.974-0.776,1.359c-0.2,0.38-0.333,0.632-0.333,0.632s-0.132,0.255-0.331,0.634
				c-0.185,0.391-0.438,0.905-0.675,1.43c-0.229,0.529-0.439,1.07-0.604,1.47c-0.083,0.199-0.144,0.371-0.187,0.491
				c-0.043,0.121-0.067,0.188-0.067,0.188s-0.097,0.274-0.243,0.686c-0.148,0.406-0.295,0.98-0.46,1.537
				c-0.157,0.563-0.283,1.142-0.382,1.566C8.96,51.158,8.91,51.45,8.91,51.45s-0.054,0.289-0.118,0.726
				c-0.025,0.221-0.057,0.479-0.089,0.754c-0.016,0.137-0.032,0.279-0.048,0.424C8.648,53.5,8.64,53.648,8.632,53.798
				C8.59,54.391,8.595,54.986,8.6,55.432c-0.003,0.221,0.014,0.41,0.021,0.541c0.01,0.129,0.015,0.204,0.015,0.204
				s0.006,0.093,0.016,0.229c0.009,0.137,0.024,0.318,0.051,0.502c0.046,0.363,0.094,0.728,0.094,0.728s0.036,0.204,0.091,0.509
				c0.053,0.303,0.157,0.705,0.261,1.101c0.047,0.198,0.119,0.396,0.174,0.577c0.057,0.184,0.112,0.353,0.174,0.494l0.192,0.476
				c0,0,0.024,0.062,0.076,0.17c0.05,0.106,0.12,0.259,0.206,0.44c0.179,0.363,0.434,0.834,0.726,1.277
				c0.295,0.442,0.644,0.848,0.912,1.133c0.266,0.291,0.473,0.457,0.473,0.457s0.093,0.084,0.317,0.25
				c0.051-0.047,0.077-0.068,0.077-0.068l0.076-0.069l0.076-0.067c0,0,0.025-0.022,0.075-0.068
				c-0.066-0.081-0.121-0.156-0.155-0.202c-0.034-0.048-0.05-0.071-0.05-0.071s-0.138-0.189-0.313-0.5
				c-0.176-0.308-0.393-0.73-0.564-1.176c-0.177-0.439-0.318-0.896-0.41-1.24c-0.043-0.174-0.079-0.318-0.104-0.42
				c-0.026-0.101-0.036-0.16-0.036-0.16s-0.15-0.705-0.22-1.424c-0.03-0.359-0.06-0.719-0.06-0.99
				c-0.008-0.27-0.012-0.449-0.012-0.449s0.009-0.322,0.018-0.646c0.001-0.159,0.012-0.321,0.025-0.44
				c0.01-0.121,0.016-0.201,0.016-0.201s0.066-1.044,0.275-2.071c0.082-0.517,0.228-1.022,0.312-1.405
				c0.101-0.38,0.179-0.631,0.179-0.631s0.074-0.251,0.185-0.629c0.133-0.37,0.29-0.871,0.482-1.361
				c0.372-0.982,0.821-1.935,0.821-1.936c0,0,0.027-0.061,0.075-0.165c0.046-0.104,0.113-0.256,0.205-0.431
				c0.181-0.352,0.411-0.824,0.66-1.289c0.257-0.46,0.515-0.919,0.708-1.266c0.207-0.336,0.344-0.562,0.344-0.562
				s0.139-0.224,0.345-0.562c0.2-0.342,0.5-0.775,0.792-1.216c0.146-0.22,0.293-0.438,0.43-0.645c0.144-0.201,0.279-0.39,0.396-0.55
				c0.231-0.321,0.385-0.536,0.385-0.536s0.155-0.214,0.386-0.534c0.244-0.312,0.568-0.73,0.89-1.148
				c0.317-0.424,0.659-0.828,0.911-1.134c0.253-0.305,0.421-0.509,0.421-0.509l0.425-0.514l0.006-0.006c0,0,0.143-0.172,0.358-0.434
				c0.106-0.13,0.231-0.283,0.368-0.445c0.13-0.168,0.268-0.347,0.404-0.523c0.556-0.713,1.064-1.462,1.064-1.462
				s0.148-0.224,0.372-0.562c0.21-0.345,0.505-0.795,0.763-1.268c0.273-0.464,0.514-0.948,0.701-1.306l0.289-0.609
				c0,0,0.134-0.278,0.251-0.562c0.062-0.142,0.121-0.283,0.166-0.39c0.046-0.105,0.071-0.178,0.071-0.178s0.07-0.181,0.174-0.451
				c0.107-0.269,0.229-0.636,0.352-1.002c0.115-0.368,0.225-0.739,0.301-1.019c0.068-0.281,0.117-0.468,0.117-0.468
				s0.066-0.262,0.146-0.661c0.043-0.198,0.09-0.43,0.128-0.681c0.043-0.25,0.086-0.517,0.115-0.786
				c0.037-0.269,0.065-0.538,0.082-0.79c0.024-0.253,0.039-0.489,0.047-0.693c0.021-0.405,0.02-0.676,0.02-0.676l0.002-0.47
				c0,0-0.009-0.242-0.021-0.603c-0.02-0.361-0.051-0.843-0.11-1.321c-0.108-0.959-0.323-1.899-0.323-1.899
				s-0.052-0.265-0.156-0.657c-0.098-0.393-0.252-0.91-0.422-1.421c-0.338-1.026-0.791-2.005-0.791-2.005s-0.438-0.984-0.973-1.917
				c-0.264-0.47-0.546-0.926-0.763-1.266c-0.22-0.338-0.372-0.559-0.372-0.559s-0.605-0.887-1.285-1.717
				c-0.67-0.837-1.404-1.616-1.404-1.616s-0.242-0.264-0.746-0.769c-0.511-0.5-1.269-1.25-2.411-2.128
				C16.941,3.97,16.92,3.996,16.92,3.996"/>
		</defs>
		<use xlink:href="#SVGID_1_"  overflow="visible" fill="#477EFF"/>
		<clipPath id="SVGID_2_">
			<use xlink:href="#SVGID_1_"  overflow="visible"/>
		</clipPath>
		<polygon clip-path="url(#SVGID_2_)" fill="#477EFF" points="-21.46,22.749 19.412,-4.82 53.477,45.684 12.604,73.253 		"/>
	</g>
</g>
<path fill="#7B1FA2" d="M16.855,16.76l0.095,0.165l0.093,0.164l0.088,0.166l0.085,0.168c0,0,0.021,0.042,0.042,0.084
	c0.02,0.043,0.04,0.085,0.04,0.085l0.079,0.17c0.04,0.083,0.073,0.171,0.073,0.171l0.074,0.171c0,0,0.069,0.171,0.07,0.171
	c0,0,0.033,0.086,0.067,0.173c0.034,0.085,0.063,0.172,0.063,0.172s0.061,0.174,0.118,0.349c0.05,0.176,0.103,0.352,0.103,0.352
	s0.013,0.044,0.025,0.088c0.01,0.044,0.021,0.089,0.021,0.089l0.042,0.177l0.042,0.176l0.037,0.177l0.07,0.353l0.053,0.355
	c0,0,0.027,0.176,0.039,0.354l0.029,0.354c0,0,0.018,0.707,0.004,0.706l-0.018,0.44l-0.016,0.147l-0.014,0.146l-0.017,0.146
	l-0.015,0.146l-0.023,0.145l-0.025,0.144l-0.05,0.287c0,0-0.006,0.036-0.013,0.072l-0.018,0.071l-0.033,0.141L18,24.318
	c0.014,0.002-0.166,0.556-0.166,0.556l-0.052,0.163c0.004,0.001-0.06,0.162-0.06,0.162l-0.127,0.321c0,0-0.056,0.161-0.129,0.318
	l-0.148,0.312l-0.147,0.311C17.085,26.608,17,26.759,17,26.759s-0.085,0.15-0.169,0.301c-0.039,0.076-0.087,0.15-0.122,0.204
	c-0.036,0.054-0.06,0.091-0.06,0.091l-0.094,0.146l-0.094,0.146c0,0-0.185,0.292-0.192,0.29l-0.416,0.56
	c0,0-0.103,0.141-0.218,0.274c-0.111,0.135-0.225,0.271-0.225,0.271l-0.222,0.271c-0.114,0.134-0.238,0.261-0.238,0.261
	l-0.482,0.516c0.001,0-0.028,0.034-0.076,0.08s-0.113,0.108-0.177,0.17c-0.127,0.124-0.254,0.249-0.254,0.249
	s-0.126,0.125-0.253,0.249c-0.123,0.127-0.262,0.242-0.262,0.241L12.91,31.55c0,0-0.034,0.031-0.096,0.085
	c-0.061,0.055-0.148,0.132-0.261,0.218c-0.22,0.179-0.512,0.417-0.804,0.655c-0.608,0.454-1.215,0.908-1.215,0.908l-0.005,0.003
	l-0.603,0.468l-0.601,0.469c0,0-0.039,0.029-0.091,0.078c-0.054,0.048-0.125,0.112-0.197,0.176
	c-0.144,0.129-0.286,0.256-0.286,0.256l-0.57,0.515c0,0-0.146,0.152-0.363,0.38c-0.21,0.235-0.515,0.525-0.78,0.856
	c-0.264,0.33-0.529,0.66-0.728,0.906c-0.18,0.264-0.299,0.439-0.299,0.439S5.9,38.131,5.79,38.297
	c-0.056,0.082-0.11,0.165-0.152,0.227c-0.042,0.062-0.066,0.105-0.066,0.105L5.18,39.326c0,0-0.097,0.174-0.194,0.349
	c-0.09,0.179-0.171,0.362-0.171,0.362L4.647,40.4l-0.081,0.183l-0.082,0.183c0,0-0.023,0.047-0.048,0.119
	c-0.026,0.073-0.061,0.17-0.097,0.268C4.27,41.348,4.2,41.542,4.2,41.542s-0.069,0.194-0.138,0.39
	c-0.055,0.197-0.111,0.396-0.111,0.396s-0.054,0.199-0.108,0.396c-0.027,0.1-0.053,0.199-0.074,0.273s-0.028,0.125-0.028,0.125
	l-0.075,0.404L3.629,43.73l-0.037,0.201c0,0-0.047,0.213-0.066,0.433l-0.049,0.432l-0.048,0.431c0,0-0.006,0.055-0.007,0.108
	l-0.005,0.108L3.409,45.66l-0.015,0.432l-0.008,0.215l0.004,0.215l0.005,0.215l0.006,0.216l0.006,0.214l0.007,0.215l0.067,0.742
	c0,0,0.009,0.092,0.018,0.186c0.008,0.092,0.023,0.184,0.023,0.184l0.027,0.183l0.028,0.183l0.056,0.367l0.029,0.182l0.037,0.181
	l0.037,0.181l0.039,0.181l0.039,0.179l0.039,0.18c0,0,0.05,0.193,0.126,0.483c0.073,0.291,0.183,0.674,0.311,1.051
	c0.116,0.38,0.268,0.747,0.367,1.026c0.105,0.275,0.187,0.457,0.187,0.457s0.078,0.178,0.194,0.447
	c0.128,0.264,0.283,0.619,0.464,0.961c0.172,0.348,0.361,0.686,0.5,0.938c0.15,0.248,0.25,0.414,0.25,0.414s0.366,0.603,0.769,1.177
	c0.205,0.287,0.419,0.564,0.583,0.771c0.162,0.206,0.279,0.337,0.279,0.337s0.059,0.066,0.175,0.195
	c-0.072-0.158-0.107-0.239-0.107-0.239s-0.285-0.634-0.524-1.28c-0.254-0.64-0.464-1.291-0.463-1.291c0,0-0.056-0.178-0.142-0.443
	c-0.086-0.268-0.201-0.621-0.298-0.979c-0.108-0.354-0.187-0.717-0.258-0.982c-0.059-0.271-0.099-0.451-0.099-0.451
	c0.001,0-0.171-0.724-0.281-1.453c-0.028-0.18-0.057-0.361-0.084-0.531c-0.021-0.169-0.04-0.329-0.056-0.465
	c-0.031-0.272-0.052-0.453-0.052-0.453L5.68,49.828l-0.011-0.166l-0.012-0.166L5.642,49.33l-0.013-0.166L5.624,49l-0.01-0.331
	l-0.005-0.165L5.605,48.34c0,0-0.005-0.083-0.001-0.166c0.002-0.082,0.004-0.164,0.004-0.164l0.013-0.654l0.014-0.188l0.014-0.186
	l0.013-0.188l0.013-0.186l0.015-0.187l0.025-0.185l0.05-0.368l0.025-0.183c0,0,0.021-0.186,0.025-0.185l0.07-0.362l0.069-0.361
	c0.029-0.182,0.084-0.357,0.084-0.357l0.045-0.167l0.044-0.167l0.088-0.333c0,0,0.008-0.042,0.032-0.103
	c0.021-0.062,0.048-0.143,0.076-0.223c0.054-0.164,0.109-0.326,0.109-0.326s0.055-0.162,0.109-0.326
	c0.067-0.156,0.134-0.314,0.134-0.314s0.067-0.158,0.132-0.314c0.034-0.08,0.066-0.158,0.091-0.217
	c0.023-0.061,0.045-0.097,0.045-0.097l0.077-0.146l0.076-0.147l0.148-0.295c0,0,0.071-0.147,0.15-0.293l0.172-0.284l0.343-0.566
	l0.387-0.539c0,0,0.102-0.146,0.255-0.363c0.169-0.206,0.396-0.48,0.622-0.756c0.224-0.277,0.491-0.521,0.671-0.721
	c0.186-0.192,0.311-0.322,0.311-0.322l0.489-0.449c0,0,0.123-0.113,0.244-0.227c0.062-0.057,0.122-0.111,0.168-0.154
	c0.044-0.043,0.079-0.068,0.079-0.068l0.524-0.418l0.522-0.419l0.004-0.004c0,0,0.65-0.509,1.29-1.031
	c0.312-0.272,0.624-0.546,0.858-0.75c0.117-0.102,0.211-0.193,0.275-0.258c0.065-0.064,0.102-0.101,0.102-0.101l0.566-0.558
	c0,0,0.145-0.134,0.277-0.286c0.135-0.147,0.27-0.295,0.27-0.295l0.27-0.296c0.135-0.146,0.263-0.3,0.264-0.3l0.501-0.629
	c0,0,0.128-0.154,0.247-0.318l0.233-0.331c0,0,0.469-0.659,0.455-0.67l0.418-0.698c0,0,0.053-0.086,0.098-0.179
	c0.047-0.091,0.094-0.182,0.094-0.182l0.094-0.182l0.094-0.182c0,0,0.023-0.045,0.059-0.114c0.035-0.067,0.08-0.158,0.119-0.254
	c0.08-0.19,0.158-0.379,0.158-0.379l0.157-0.379c0.065-0.195,0.132-0.39,0.132-0.39s0.064-0.196,0.131-0.391
	c0.062-0.195,0.107-0.397,0.107-0.397l0.1-0.4c0,0,0.012-0.049,0.023-0.099c0.013-0.05,0.02-0.102,0.02-0.102l0.035-0.204
	c0,0,0.115-0.684,0.102-0.686l0.033-0.345l0.017-0.172c0,0,0.012-0.173,0.01-0.173l0.003-0.347l0.002-0.172V23.24l-0.011-0.172
	l-0.011-0.172l-0.012-0.172l-0.011-0.171l-0.069-0.511c0,0-0.026-0.201-0.074-0.399c-0.043-0.198-0.086-0.395-0.086-0.395
	l-0.108-0.388c-0.05-0.195-0.119-0.383-0.119-0.383s-0.065-0.189-0.133-0.377c-0.075-0.185-0.151-0.368-0.151-0.368
	s-0.037-0.091-0.076-0.183c-0.045-0.089-0.088-0.178-0.088-0.178l-0.09-0.176c0,0-0.021-0.044-0.044-0.088
	c-0.024-0.043-0.049-0.086-0.049-0.086s-0.097-0.171-0.194-0.342c-0.104-0.167-0.207-0.333-0.207-0.333s-0.052-0.084-0.107-0.163
	c-0.057-0.081-0.11-0.16-0.11-0.16l-0.114-0.159l-0.117-0.154c0,0-0.058-0.079-0.121-0.152c-0.062-0.073-0.125-0.148-0.125-0.148
	s-0.031-0.037-0.062-0.073c-0.033-0.037-0.065-0.072-0.065-0.072l-0.13-0.143l-0.133-0.139l-0.137-0.136l-0.141-0.13l-0.146-0.125
	C16.822,16.706,16.855,16.76,16.855,16.76"/>
<path fill="#13DC90" d="M30.755,29.555l0.007,0.174l0.002,0.173v0.173v0.086c0,0.043-0.004,0.086-0.004,0.086l-0.01,0.173
	l-0.02,0.344l-0.027,0.261l-0.028,0.26c0,0-0.026,0.259-0.032,0.258L30.596,31.8l-0.053,0.296c0,0-0.053,0.295-0.059,0.295
	l-0.07,0.292l-0.071,0.29c0,0-0.067,0.291-0.075,0.289l-0.094,0.284l-0.188,0.565c0.006,0.002-0.108,0.277-0.108,0.277l-0.112,0.275
	l-0.227,0.548c0,0-0.012,0.035-0.039,0.083c-0.025,0.05-0.061,0.115-0.096,0.183c-0.066,0.131-0.137,0.263-0.137,0.263l-0.271,0.524
	c0,0-0.031,0.065-0.07,0.129c-0.039,0.062-0.08,0.125-0.08,0.125l-0.158,0.248l-0.312,0.5l-0.156,0.25
	c-0.088,0.118-0.178,0.236-0.178,0.236l-0.357,0.469l-0.356,0.469c0,0-0.021,0.029-0.062,0.069c-0.035,0.041-0.088,0.097-0.137,0.15
	l-0.201,0.217l-0.396,0.437c0,0-0.099,0.109-0.196,0.22c-0.05,0.055-0.1,0.108-0.137,0.149c-0.041,0.039-0.067,0.062-0.067,0.062
	s-0.435,0.402-0.868,0.805c-0.214,0.203-0.428,0.406-0.609,0.536c-0.174,0.138-0.291,0.229-0.291,0.229l-0.2,0.156l-0.414,0.328
	l-0.414,0.33l-0.44,0.295l-0.441,0.294l-0.23,0.156l-0.229,0.157l-0.229,0.156l-0.23,0.158L21.527,43.6l-0.28,0.187l-0.28,0.187
	l-0.279,0.188l-0.141,0.095l-0.135,0.103l-0.508,0.39c0,0-0.127,0.099-0.252,0.196c-0.121,0.104-0.241,0.211-0.241,0.211
	l-0.481,0.421c0,0-0.062,0.051-0.117,0.108c-0.06,0.058-0.115,0.113-0.115,0.113l-0.227,0.227c0,0-0.115,0.115-0.228,0.229
	c-0.116,0.111-0.22,0.234-0.22,0.234l-0.424,0.482c0,0-0.025,0.03-0.065,0.075c-0.041,0.045-0.094,0.106-0.141,0.169
	c-0.099,0.127-0.197,0.255-0.197,0.255l-0.195,0.255l-0.098,0.127c-0.05,0.062-0.092,0.131-0.092,0.131l-0.358,0.535l-0.088,0.133
	c-0.046,0.065-0.084,0.137-0.084,0.137l-0.163,0.275l-0.162,0.277c0,0-0.04,0.069-0.08,0.139l-0.073,0.144l-0.144,0.286
	l-0.144,0.287c0,0-0.033,0.062-0.062,0.127c-0.027,0.064-0.056,0.13-0.056,0.13l-0.112,0.257l-0.112,0.26l-0.056,0.129l-0.049,0.133
	c0,0-0.12,0.334-0.24,0.67l-0.206,0.683c0,0-0.046,0.151-0.101,0.384c-0.057,0.231-0.138,0.538-0.193,0.85
	c-0.135,0.619-0.202,1.248-0.201,1.248c0,0-0.073,0.627-0.098,1.254c-0.015,0.312-0.018,0.625-0.021,0.86
	c0.004,0.235,0.008,0.392,0.008,0.392s0.002,0.207,0.018,0.416c0.013,0.209,0.026,0.416,0.026,0.416s0.009,0.104,0.023,0.259
	c0.014,0.155,0.031,0.36,0.059,0.567c0.024,0.205,0.048,0.409,0.076,0.563l0.042,0.254c0,0,0.097,0.56,0.229,1.108
	c0.065,0.274,0.146,0.547,0.206,0.75s0.107,0.334,0.107,0.334s0.025,0.066,0.073,0.199c-0.019-0.141-0.028-0.209-0.028-0.209
	s-0.073-0.556-0.105-1.112c-0.041-0.556-0.048-1.111-0.048-1.111v-0.252c0-0.151-0.002-0.353,0.003-0.555
	c0-0.201,0.01-0.401,0.016-0.552c0.006-0.149,0.01-0.25,0.01-0.25s0.015-0.201,0.029-0.402c0.012-0.2,0.036-0.4,0.036-0.4
	s0.049-0.599,0.14-1.189c0.086-0.592,0.216-1.172,0.216-1.172s0.033-0.146,0.087-0.362c0.048-0.218,0.117-0.507,0.201-0.79
	c0.074-0.286,0.171-0.566,0.24-0.775c0.067-0.211,0.121-0.348,0.121-0.349c0,0,0.118-0.308,0.236-0.613
	c0.133-0.3,0.265-0.6,0.265-0.6s0.027-0.06,0.052-0.118c0.029-0.059,0.058-0.116,0.058-0.116l0.115-0.231l0.115-0.229l0.057-0.116
	c0.03-0.057,0.062-0.111,0.062-0.111l0.145-0.254l0.145-0.254c0,0,0.036-0.062,0.072-0.125l0.079-0.123l0.157-0.246l0.156-0.245
	c0,0,0.036-0.063,0.081-0.121c0.042-0.06,0.085-0.118,0.085-0.118l0.343-0.471c0,0,0.039-0.061,0.088-0.115
	c0.047-0.057,0.092-0.112,0.092-0.112l0.185-0.226l0.185-0.227c0.043-0.057,0.092-0.11,0.129-0.15s0.062-0.067,0.062-0.067
	l0.395-0.428c0,0,0.096-0.109,0.203-0.208c0.105-0.1,0.211-0.201,0.211-0.201l0.209-0.204c0,0,0.052-0.05,0.104-0.101
	c0.051-0.053,0.107-0.098,0.107-0.098l0.441-0.381c0,0,0.11-0.095,0.223-0.189l0.231-0.178l0.466-0.354l0.121-0.094
	c0.062-0.045,0.127-0.088,0.127-0.088l0.258-0.174l0.256-0.174l0.258-0.175l0.005-0.003l0.243-0.167l0.242-0.167l0.242-0.168
	l0.241-0.168l0.459-0.323l0.459-0.323l0.435-0.36l0.431-0.362l0.207-0.176c0,0,0.12-0.102,0.301-0.255
	c0.187-0.146,0.409-0.372,0.632-0.599l0.883-0.904c0,0,0.028-0.028,0.068-0.072c0.038-0.046,0.09-0.107,0.139-0.168
	c0.102-0.124,0.201-0.247,0.201-0.247l0.396-0.494c0,0,0.099-0.125,0.197-0.249c0.049-0.062,0.098-0.125,0.135-0.17
	s0.059-0.08,0.059-0.08l0.348-0.531l0.347-0.533l0.171-0.266c0.074-0.141,0.146-0.281,0.146-0.281l0.295-0.562l0.146-0.281
	c0,0,0.036-0.07,0.071-0.141c0.033-0.072,0.062-0.146,0.062-0.146l0.234-0.591l0.116-0.294c0.027-0.074,0.057-0.146,0.078-0.202
	c0.023-0.055,0.033-0.094,0.033-0.094l0.178-0.606l0.09-0.302c0,0,0.023-0.076,0.046-0.151c0.022-0.075,0.032-0.154,0.032-0.154
	l0.119-0.62l0.06-0.308c0.006,0.001,0.039-0.312,0.039-0.312l0.032-0.312l0.033-0.312c0,0,0.012-0.077,0.014-0.156
	c0.003-0.079,0.004-0.157,0.004-0.157l0.006-0.313l0.005-0.269c0,0,0.003-0.068-0.002-0.135L31.023,31.3l-0.015-0.269l-0.015-0.268
	l-0.044-0.351l-0.021-0.175c0,0-0.006-0.043-0.014-0.086c-0.009-0.043-0.016-0.087-0.016-0.087l-0.033-0.172l-0.034-0.172
	l-0.044-0.17c0,0-0.012-0.057-0.047-0.168C30.755,29.498,30.755,29.555,30.755,29.555"/>
<g>
	<g>
		<defs>
			<path id="SVGID_3_" d="M7.534,23.332c0,2.34,1.897,4.237,4.236,4.237c2.34,0,4.238-1.897,4.238-4.237
				c0-2.339-1.897-4.235-4.238-4.235C9.431,19.096,7.534,20.993,7.534,23.332"/>
		</defs>
		<clipPath id="SVGID_4_">
			<use xlink:href="#SVGID_3_"  overflow="visible"/>
		</clipPath>
		
			<linearGradient id="SVGID_5_" gradientUnits="userSpaceOnUse" x1="-702.0806" y1="23.6836" x2="-701.7666" y2="23.6836" gradientTransform="matrix(18.7246 -19.3899 19.3899 18.7246 12695.7949 -14030.3896)">
			<stop  offset="0" style="stop-color:#3A0F4D"/>
			<stop  offset="0.7258" style="stop-color:#7B1FA2"/>
			<stop  offset="1" style="stop-color:#9066A2"/>
		</linearGradient>
		<polygon clip-path="url(#SVGID_4_)" fill="url(#SVGID_5_)" points="3.3,23.48 11.624,14.861 20.242,23.185 11.918,31.803 		"/>
	</g>
</g>
<g>
	<g>
		<defs>
			<path id="SVGID_6_" d="M7.534,23.332c0,2.34,1.897,4.237,4.236,4.237c2.34,0,4.238-1.897,4.238-4.237
				c0-2.339-1.897-4.235-4.238-4.235C9.431,19.096,7.534,20.993,7.534,23.332"/>
		</defs>
		<use xlink:href="#SVGID_6_"  overflow="visible" fill="#3A0F4D"/>
		<clipPath id="SVGID_7_">
			<use xlink:href="#SVGID_6_"  overflow="visible"/>
		</clipPath>
		<polygon clip-path="url(#SVGID_7_)" fill="#3A0F4D" points="3.3,23.48 11.624,14.861 20.242,23.185 11.918,31.803 		"/>
	</g>
</g>
</svg>
