<?xml version="1.0" encoding="utf-8"?>
<!-- Generator: Adobe Illustrator 16.0.0, SVG Export Plug-In . SVG Version: 6.00 Build 0)  -->
<!DOCTYPE svg PUBLIC "-//W3C//DTD SVG 1.1//EN" "http://www.w3.org/Graphics/SVG/1.1/DTD/svg11.dtd">
<svg version="1.1" id="Layer_1" xmlns="http://www.w3.org/2000/svg" xmlns:xlink="http://www.w3.org/1999/xlink" x="0px" y="0px"
	 width="108px" height="216px" viewBox="0 0 108 216" enable-background="new 0 0 108 216" xml:space="preserve">
<image overflow="visible" width="59" height="194" xlink:href="1F9FE5B5.png"  transform="matrix(1 0 0 1 26.5 13.5)">
</image>
<g>
	<g>
		
			<image overflow="visible" width="52.207" height="133.5" xlink:href="B52BB6FA.png"  transform="matrix(1 0 0 1 10.8066 54.3281)"/>
	</g>
</g>
<g>
	<g>
		
			<image overflow="visible" width="54.178" height="105.166" xlink:href="B52BB6FD.png"  transform="matrix(1 0 0 1 44.5791 94.9941)"/>
	</g>
</g>
<linearGradient id="SVGID_1_" gradientUnits="userSpaceOnUse" x1="28.1157" y1="85.4453" x2="46.8404" y2="66.0554">
	<stop  offset="0" style="stop-color:#3A0F4D"/>
	<stop  offset="0.7258" style="stop-color:#7B1FA2"/>
	<stop  offset="1" style="stop-color:#9066A2"/>
</linearGradient>
<circle fill="url(#SVGID_1_)" cx="37.478" cy="75.75" r="13.478"/>
<linearGradient id="SVGID_2_" gradientUnits="userSpaceOnUse" x1="-3.9102" y1="144.624" x2="100.0922" y2="74.4736">
	<stop  offset="0" style="stop-color:#3A0F4D"/>
	<stop  offset="0.4785" style="stop-color:#7B1FA2"/>
	<stop  offset="0.5416" style="stop-color:#7923A6"/>
	<stop  offset="0.6002" style="stop-color:#732EB1"/>
	<stop  offset="0.657" style="stop-color:#6941C3"/>
	<stop  offset="0.7127" style="stop-color:#5A5BDD"/>
	<stop  offset="0.7672" style="stop-color:#487DFE"/>
	<stop  offset="0.7688" style="stop-color:#477EFF"/>
	<stop  offset="0.8093" style="stop-color:#3998E0"/>
	<stop  offset="0.8638" style="stop-color:#28B5BE"/>
	<stop  offset="0.9153" style="stop-color:#1DCBA4"/>
	<stop  offset="0.9621" style="stop-color:#15D895"/>
	<stop  offset="1" style="stop-color:#13DC90"/>
</linearGradient>
<path fill="url(#SVGID_2_)" d="M85.16,70.856c0,0-0.026-0.767-0.065-1.917c-0.06-1.148-0.165-2.681-0.352-4.202
	c-0.347-3.051-1.03-6.041-1.03-6.041s-0.166-0.844-0.5-2.088c-0.307-1.251-0.8-2.897-1.343-4.524
	c-1.069-3.264-2.51-6.378-2.51-6.378s-1.397-3.132-3.098-6.102c-0.836-1.492-1.733-2.947-2.427-4.025
	c-0.692-1.078-1.183-1.777-1.182-1.777c-0.001,0-1.93-2.822-4.088-5.463c-2.133-2.664-4.473-5.141-4.473-5.141
	s-0.765-0.613-2.369-2.218c-1.611-1.581-3.998-4.479-7.584-6.479h0.002l-0.021-0.242c-0.022-0.018-0.043-0.148-0.065-0.166
	c-0.002,0.001-0.002-0.055-0.004-0.053l-1.698-1.22l0.937,2.196c-0.006,0.008-0.008,0.002-0.014,0.011
	c2.723,3.668,4.521,6.531,5.74,8.382c1.192,1.881,1.737,2.839,1.737,2.839s0.426,0.712,1.024,1.797
	c0.626,1.062,1.436,2.483,2.184,3.928c0.749,1.443,1.498,2.861,2.005,3.952c0.524,1.08,0.839,1.812,0.838,1.812
	c0,0,0.325,0.722,0.813,1.805c0.477,1.084,1.08,2.533,1.614,3.994c0.544,1.458,1.06,2.901,1.407,3.994
	c0.334,1.092,0.557,1.819,0.557,1.819s0.199,0.729,0.497,1.821c0.29,1.089,0.662,2.533,0.949,3.981
	c0.29,1.448,0.526,2.892,0.655,3.973c0.172,1.072,0.233,1.789,0.233,1.789s0.303,2.553,0.315,5.072
	c0.052,2.521-0.111,4.996-0.11,4.996l-0.111,1.205c-0.001,0-0.051,0.694-0.2,1.726c-0.058,0.517-0.149,1.116-0.269,1.757
	c-0.084,0.642-0.199,1.324-0.34,2.004c-0.116,0.681-0.271,1.356-0.423,1.989c-0.136,0.634-0.29,1.221-0.437,1.723
	c-0.263,1.006-0.482,1.669-0.481,1.669c-0.001,0-0.591,1.898-1.263,3.785c-0.363,0.938-0.7,1.88-1.018,2.573
	c-0.297,0.696-0.495,1.161-0.495,1.161s-0.076,0.187-0.211,0.461c-0.131,0.275-0.305,0.644-0.479,1.011
	c-0.333,0.738-0.722,1.462-0.722,1.462c0,0.001-0.325,0.639-0.798,1.604c-0.522,0.952-1.178,2.233-1.939,3.483
	c-0.712,1.266-1.549,2.489-2.131,3.423c-0.625,0.919-1.041,1.531-1.041,1.531s-1.373,2.084-2.897,4.109
	c-0.38,0.507-0.761,1.013-1.118,1.488c-0.374,0.467-0.724,0.902-1.023,1.275c-0.6,0.748-0.998,1.247-0.998,1.247l-0.013,0.015
	c0,0-0.353,0.438-0.704,0.874c-0.344,0.443-0.688,0.887-0.688,0.887s-0.545,0.703-1.362,1.758c-0.816,1.056-1.916,2.449-2.951,3.915
	c-1.046,1.449-2.092,2.898-2.877,3.985c-0.736,1.132-1.227,1.886-1.227,1.886s-0.489,0.755-1.223,1.887
	c-0.365,0.566-0.791,1.227-1.248,1.935c-0.436,0.728-0.901,1.504-1.366,2.279c-0.935,1.549-1.852,3.098-2.466,4.326
	c-0.635,1.207-1.058,2.013-1.058,2.013s-0.421,0.805-1.052,2.012c-0.586,1.244-1.396,2.883-2.147,4.548
	c-0.73,1.684-1.399,3.407-1.922,4.677c-0.266,0.632-0.457,1.181-0.593,1.563c-0.137,0.381-0.214,0.599-0.214,0.599
	s-0.31,0.871-0.774,2.178c-0.471,1.293-0.937,3.121-1.463,4.893c-0.497,1.791-0.898,3.63-1.213,4.984
	c-0.242,1.39-0.403,2.316-0.403,2.316s-0.171,0.92-0.375,2.313c-0.083,0.702-0.182,1.521-0.286,2.398
	c-0.049,0.438-0.1,0.89-0.152,1.349c-0.024,0.466-0.049,0.939-0.074,1.413c-0.13,1.88-0.116,3.782-0.103,5.196
	c-0.009,0.704,0.046,1.304,0.068,1.717c0.03,0.414,0.047,0.65,0.047,0.65s0.021,0.291,0.053,0.728c0.026,0.436,0.077,1.016,0.16,1.6
	c0.148,1.157,0.297,2.313,0.297,2.313s0.118,0.646,0.294,1.615c0.167,0.964,0.497,2.242,0.83,3.502
	c0.152,0.63,0.381,1.254,0.556,1.836c0.18,0.583,0.355,1.121,0.553,1.575c0.366,0.905,0.61,1.509,0.61,1.509s0.077,0.198,0.24,0.54
	c0.159,0.339,0.385,0.823,0.657,1.405c0.568,1.151,1.378,2.648,2.308,4.061c0.937,1.409,2.045,2.694,2.897,3.608
	c0.847,0.921,1.505,1.449,1.504,1.449s0.296,0.271,1.01,0.796l2.309,0.885l-1.343-1.756l-0.483,0.436l0.241-0.218
	c0,0,0.081-0.072,0.242-0.218c-0.213-0.254-0.387-0.497-0.494-0.641c-0.107-0.153-0.16-0.229-0.16-0.229s-0.438-0.604-0.997-1.586
	c-0.56-0.979-1.25-2.327-1.793-3.739c-0.566-1.402-1.01-2.852-1.305-3.947c-0.136-0.552-0.249-1.012-0.327-1.333
	c-0.083-0.32-0.115-0.508-0.116-0.508c0.001,0-0.477-2.245-0.698-4.531c-0.097-1.144-0.194-2.286-0.193-3.149
	c-0.023-0.86-0.039-1.434-0.039-1.434s0.029-1.023,0.057-2.047c0.004-0.512,0.041-1.022,0.078-1.405
	c0.032-0.384,0.053-0.639,0.053-0.639c0,0,0.208-3.322,0.876-6.59c0.259-1.646,0.726-3.252,0.99-4.473
	c0.322-1.208,0.569-2.006,0.57-2.006c0,0,0.236-0.801,0.589-2.001c0.424-1.179,0.922-2.773,1.532-4.33
	c1.184-3.128,2.613-6.157,2.613-6.158c0,0,0.086-0.19,0.237-0.523c0.15-0.334,0.361-0.813,0.654-1.369
	c0.576-1.116,1.308-2.623,2.1-4.1c0.819-1.463,1.639-2.925,2.254-4.022c0.657-1.073,1.095-1.788,1.095-1.788
	s0.439-0.715,1.097-1.787c0.635-1.087,1.592-2.468,2.519-3.868c0.466-0.698,0.932-1.396,1.368-2.051
	c0.459-0.64,0.889-1.236,1.256-1.748c0.736-1.022,1.228-1.704,1.228-1.704s0.491-0.681,1.229-1.702
	c0.771-0.997,1.8-2.327,2.828-3.656c1.012-1.344,2.096-2.63,2.899-3.603c0.804-0.972,1.339-1.62,1.339-1.62l1.352-1.635l0.013-0.016
	c0,0,0.458-0.553,1.144-1.383c0.343-0.415,0.743-0.899,1.172-1.418c0.412-0.532,0.853-1.1,1.292-1.667
	c1.763-2.27,3.383-4.65,3.382-4.65c0,0,0.474-0.713,1.185-1.781c0.667-1.098,1.607-2.53,2.429-4.036
	c0.867-1.478,1.632-3.015,2.229-4.154c0.551-1.163,0.918-1.938,0.918-1.938s0.428-0.882,0.8-1.79c0.192-0.45,0.385-0.901,0.528-1.24
	c0.148-0.336,0.233-0.566,0.233-0.566s0.219-0.573,0.547-1.434c0.347-0.854,0.724-2.023,1.118-3.187
	c0.368-1.171,0.713-2.352,0.952-3.241c0.224-0.895,0.373-1.49,0.373-1.49s0.217-0.833,0.466-2.1
	c0.139-0.631,0.283-1.369,0.405-2.167c0.139-0.796,0.274-1.646,0.368-2.501c0.118-0.854,0.208-1.709,0.265-2.515
	c0.077-0.804,0.124-1.556,0.144-2.201c0.071-1.289,0.062-2.15,0.062-2.15L85.16,70.856z"/>
<g id="Layer_1_1_" display="none">
	
		<image display="inline" overflow="visible" enable-background="new    " width="2048" height="1536" xlink:href="../../../../Downloads/IMG_0181.PNG"  transform="matrix(0.5 0 0 0.5 -430.2168 -144.6084)">
	</image>
</g>
<g id="Layer_2" display="none">
	<path display="inline" d="M44.667,206.336c0,0-38.667-32.835,14.5-86.669S56.667,14.5,56.667,14.5s47.5,28.667,28.5,81.5
		c0,0-7.926,24.833-24.796,41.833S33,196.172,44.667,206.336z"/>
	<path display="inline" d="M28.667,186.828c0,0-27.164-51.975,8.333-78.833C74.667,79.494,65,69.16,56.333,53.328
		c0,0,27.833,16.666-5.667,52.499C17.167,141.66,21.333,170.996,28.667,186.828z"/>
	<circle display="inline" cx="40" cy="74.16" r="12.834"/>
	<g display="inline">
		<path d="M100.833,93.994c0,0,0.14,0.466,0.313,1.371c0.153,0.902,0.397,2.242,0.439,3.968c0.016,0.432,0.032,0.887,0.049,1.364
			c-0.016,0.478-0.031,0.978-0.049,1.498c0.004,1.05-0.154,2.167-0.301,3.37c-0.098,1.214-0.446,2.455-0.691,3.8
			c-0.283,1.335-0.783,2.681-1.199,4.124c-0.543,1.393-1.123,2.848-1.773,4.332c-0.378,0.716-0.762,1.442-1.152,2.182
			c-0.414,0.726-0.748,1.521-1.251,2.218c-0.475,0.719-0.954,1.446-1.442,2.185c-0.498,0.729-0.949,1.512-1.543,2.192
			c-0.569,0.7-1.146,1.409-1.727,2.125c-0.6,0.7-1.146,1.467-1.832,2.105c-1.326,1.318-2.632,2.718-4.044,4.027
			c-1.464,1.248-2.954,2.506-4.476,3.75c-1.574,1.166-3.219,2.26-4.84,3.399l-2.383,1.642c-0.783,0.553-1.652,1.084-2.367,1.653
			c-2.979,2.121-5.818,4.705-8.23,7.453c-2.411,2.776-4.542,5.729-6.207,8.829c-1.664,3.095-2.98,6.259-3.933,9.368
			c-0.94,3.11-1.58,6.146-1.98,8.981c-0.779,5.684-0.699,10.537-0.474,13.916c0.233,3.385,0.593,5.312,0.593,5.312
			s-0.699-1.834-1.381-5.205c-0.672-3.36-1.354-8.284-1.023-14.241c0.159-2.975,0.562-6.204,1.385-9.548
			c0.808-3.345,1.984-6.822,3.688-10.205c1.693-3.38,3.803-6.728,6.416-9.737c2.614-3.033,5.525-5.777,8.867-8.205
			c0.82-0.629,1.625-1.103,2.438-1.66l2.438-1.635c1.561-1.074,3.15-2.101,4.668-3.193c1.447-1.182,2.9-2.328,4.346-3.457
			c1.383-1.194,2.657-2.473,3.967-3.676c0.676-0.582,1.207-1.283,1.797-1.924c0.584-0.646,1.16-1.289,1.729-1.924
			c0.604-0.611,1.065-1.316,1.575-1.976c0.501-0.667,0.996-1.326,1.484-1.976c0.944-1.322,1.688-2.719,2.529-4.003
			c0.725-1.344,1.387-2.671,2.014-3.948c0.508-1.324,1.073-2.576,1.479-3.813c0.362-1.245,0.831-2.407,1.042-3.552
			c0.266-1.134,0.518-2.2,0.65-3.203c0.082-0.501,0.16-0.981,0.234-1.44c0.042-0.463,0.083-0.905,0.121-1.324
			C101.102,95.949,100.833,93.994,100.833,93.994z"/>
	</g>
</g>
<g id="Layer_4" display="none">
	
		<linearGradient id="SVGID_3_" gradientUnits="userSpaceOnUse" x1="-82.8633" y1="208.9463" x2="-68.1804" y2="231.556" gradientTransform="matrix(1 0 0 -1 116 295)">
		<stop  offset="0" style="stop-color:#FFFFFF"/>
		<stop  offset="0.0054" style="stop-color:#3A0F4D"/>
		<stop  offset="0.586" style="stop-color:#7B1FA2"/>
		<stop  offset="0.9892" style="stop-color:#9066A2"/>
	</linearGradient>
	<circle display="inline" fill="url(#SVGID_3_)" cx="40.478" cy="74.75" r="13.478"/>
	<g display="inline">
		
			<linearGradient id="SVGID_4_" gradientUnits="userSpaceOnUse" x1="-82.7188" y1="107.7705" x2="-70.9177" y2="242.6576" gradientTransform="matrix(1 0 0 -1 116 295)">
			<stop  offset="0" style="stop-color:#FFFFFF"/>
			<stop  offset="0.0054" style="stop-color:#3A0F4D"/>
			<stop  offset="0.5806" style="stop-color:#7B1FA2"/>
			<stop  offset="1" style="stop-color:#13DC90"/>
		</linearGradient>
		<path fill="url(#SVGID_4_)" d="M26.166,180.701c-0.729-1.96-1.509-4.371-2.321-7.127c-0.785-2.768-1.515-5.913-2.083-9.34
			c-1.127-6.836-1.448-14.936,0.621-22.916c0.132-0.496,0.264-0.995,0.397-1.495c0.135-0.499,0.329-0.981,0.484-1.478
			c0.164-0.492,0.329-0.986,0.494-1.481c0.174-0.492,0.402-0.966,0.599-1.452l0.611-1.455c0.216-0.48,0.482-0.941,0.719-1.415
			l0.713-1.424c0.243-0.474,0.547-0.918,0.817-1.38c2.206-3.668,4.957-7.114,8.124-10.215l2.364-2.181
			c0.202-0.184,0.379-0.364,0.6-0.55l0.703-0.561l1.404-1.119c0.913-0.729,1.824-1.456,2.733-2.182
			c0.966-0.781,1.951-1.521,2.889-2.328c0.931-0.815,1.859-1.629,2.782-2.437c0.902-0.836,1.762-1.72,2.635-2.569
			c0.885-0.832,1.677-1.777,2.501-2.659c0.834-0.873,1.577-1.834,2.323-2.773c2.988-3.75,5.443-7.809,7.129-11.972
			c0.849-2.076,1.469-4.19,1.933-6.256c0.377-2.092,0.674-4.121,0.67-6.088c0.058-1.958-0.135-3.832-0.407-5.573
			c-0.334-1.738-0.734-3.354-1.26-4.817c-0.994-2.943-2.329-5.28-3.548-7.073c-1.207-1.809-2.374-3.049-3.166-3.874
			c-0.806-0.816-1.292-1.186-1.292-1.186s0.339,0.507,0.881,1.494c0.553,0.979,1.253,2.475,1.999,4.39
			c0.741,1.918,1.392,4.325,1.8,7.067c0.399,2.747,0.395,5.863-0.179,9.116c-0.545,3.258-1.724,6.648-3.553,9.957
			c-1.804,3.32-4.221,6.564-7.071,9.661c-2.864,3.088-6.131,6.049-9.687,8.835c-0.877,0.706-1.815,1.36-2.724,2.047l-1.499,1.118
			l-1.415,1.1l-1.417,1.104l-0.709,0.554c-0.24,0.195-0.494,0.434-0.74,0.648l-2.965,2.664c-3.663,3.65-6.949,7.779-9.424,12.328
			c-2.514,4.52-4.192,9.417-5.056,14.23c-0.875,4.822-0.927,9.555-0.473,13.914c0.461,4.367,1.425,8.372,2.594,11.935
			c1.168,3.565,2.575,6.682,3.945,9.354c1.346,2.686,2.744,4.896,3.929,6.674c1.172,1.789,2.242,3.094,2.949,3.985
			c0.722,0.886,1.145,1.323,1.145,1.323s-0.255-0.553-0.703-1.592C27.507,184.202,26.906,182.656,26.166,180.701z"/>
		
			<linearGradient id="SVGID_5_" gradientUnits="userSpaceOnUse" x1="-46.5439" y1="94.167" x2="-37.0294" y2="202.9186" gradientTransform="matrix(1 0 0 -1 116 295)">
			<stop  offset="0" style="stop-color:#FFFFFF"/>
			<stop  offset="0.0054" style="stop-color:#3A0F4D"/>
			<stop  offset="0.5806" style="stop-color:#7B1FA2"/>
			<stop  offset="1" style="stop-color:#13DC90"/>
		</linearGradient>
		<path fill="url(#SVGID_5_)" d="M101.688,99.335c-0.069-1.73-0.336-3.072-0.506-3.974c-0.191-0.905-0.349-1.367-0.349-1.367
			s0.22,1.965-0.136,5.32c-0.045,0.418-0.094,0.857-0.143,1.318c-0.082,0.457-0.168,0.936-0.258,1.434
			c-0.152,0.997-0.415,2.057-0.695,3.183c-0.226,1.136-0.709,2.288-1.086,3.521c-0.42,1.224-0.994,2.463-1.514,3.772
			c-0.639,1.265-1.311,2.576-2.044,3.901c-0.853,1.268-1.597,2.647-2.546,3.951c-0.49,0.643-0.986,1.293-1.489,1.95
			c-0.512,0.649-0.973,1.347-1.579,1.948c-0.572,0.625-1.148,1.258-1.732,1.896c-0.592,0.629-1.123,1.319-1.803,1.894
			c-1.314,1.181-2.578,2.447-3.951,3.633c-1.428,1.128-2.873,2.271-4.328,3.421c-3.145,2.135-6.338,4.303-9.53,6.471l-2.465,1.899
			l-2.298,2.009c-1.482,1.39-2.894,2.846-4.191,4.385c-2.609,3.063-4.771,6.42-6.447,9.852c-1.69,3.428-2.853,6.941-3.643,10.316
			c-0.81,3.373-1.183,6.627-1.311,9.617c-0.15,2.992-0.01,5.729,0.234,8.131c0.229,2.402,0.613,4.47,0.976,6.152
			c0.738,3.369,1.48,5.191,1.48,5.191s-0.318-1.938-0.494-5.324c-0.168-3.381-0.173-8.227,0.662-13.875
			c0.431-2.82,1.1-5.829,2.054-8.912c0.97-3.079,2.301-6.207,3.978-9.256c1.682-3.049,3.76-5.989,6.174-8.715
			c0.628-0.66,1.21-1.366,1.878-1.996c0.671-0.627,1.311-1.288,1.994-1.908l2.104-1.811l2.168-1.652
			c0.7-0.559,1.582-1.095,2.363-1.645l2.381-1.633c1.637-1.139,3.275-2.259,4.854-3.436c1.512-1.273,3.012-2.537,4.493-3.786
			c1.421-1.317,2.736-2.729,4.058-4.071c0.685-0.647,1.229-1.425,1.828-2.135c0.58-0.726,1.153-1.443,1.723-2.154
			c0.593-0.688,1.044-1.48,1.54-2.22c0.485-0.745,0.965-1.481,1.438-2.209c0.5-0.705,0.832-1.511,1.244-2.243
			c0.388-0.746,0.77-1.481,1.144-2.207c0.642-1.5,1.211-2.973,1.743-4.379c0.214-0.724,0.424-1.433,0.629-2.125
			c0.191-0.695,0.438-1.354,0.536-2.037c0.229-1.357,0.565-2.608,0.647-3.832c0.131-1.212,0.278-2.335,0.258-3.391
			c0.009-0.523,0.018-1.025,0.024-1.505C101.73,100.226,101.708,99.769,101.688,99.335z"/>
		
			<linearGradient id="SVGID_6_" gradientUnits="userSpaceOnUse" x1="-64.2207" y1="86.3389" x2="-47.074" y2="282.3265" gradientTransform="matrix(1 0 0 -1 116 295)">
			<stop  offset="0" style="stop-color:#FFFFFF"/>
			<stop  offset="0.0054" style="stop-color:#3A0F4D"/>
			<stop  offset="0.5806" style="stop-color:#7B1FA2"/>
			<stop  offset="1" style="stop-color:#13DC90"/>
		</linearGradient>
		<path fill="url(#SVGID_6_)" d="M40.853,184.688c0.18-1.018,0.364-2.063,0.554-3.137c0.29-1.063,0.505-2.16,0.644-3.301
			c0.19-1.132,0.336-2.296,0.637-3.464c0.309-1.166,0.624-2.356,0.945-3.571c0.16-0.605,0.322-1.22,0.485-1.838l0.246-0.932
			l0.318-0.924c0.887-2.461,1.698-5.041,2.719-7.633c1.103-2.565,2.235-5.203,3.393-7.896c1.333-2.623,2.694-5.305,4.079-8.03
			c0.659-1.383,1.458-2.696,2.24-4.034c0.779-1.338,1.566-2.685,2.357-4.041c0.797-1.354,1.571-2.724,2.4-4.087
			c0.886-1.349,1.775-2.704,2.67-4.065c1.779-2.711,3.573-5.444,5.374-8.188c0.918-1.407,1.838-2.817,2.758-4.229
			c0.927-1.408,1.704-2.918,2.563-4.373c1.391-2.494,2.707-5.041,3.918-7.632c2.072-3.727,3.857-7.6,5.283-11.569
			c2.283-6.375,3.547-13.018,3.709-19.479c0.174-6.464-0.766-12.709-2.403-18.378c-1.638-5.679-3.948-10.79-6.468-15.258
			c-0.239-0.428-0.483-0.844-0.729-1.259c-0.863-1.687-1.689-3.324-2.734-4.751c-1.271-1.692-2.531-3.246-3.771-4.68
			c-0.224-0.281-0.446-0.563-0.669-0.835c-2.626-3.225-5.12-5.858-7.249-7.944c-2.133-2.083-3.903-3.621-5.133-4.644
			c-1.229-1.02-1.933-1.533-1.933-1.533L54.58,11.42l1.693,2.599c0,0,0.502,0.693,1.444,1.992c0.956,1.277,2.226,3.272,3.853,5.697
			c1.598,2.456,3.375,5.523,5.256,9.008c1.861,3.497,3.773,7.472,5.413,11.841c0.815,2.185,1.606,4.446,2.237,6.81
			c0.644,2.355,1.229,4.77,1.604,7.258c0.824,4.955,1.026,10.115,0.476,15.296c-0.32,2.589-0.742,5.191-1.412,7.788
			c-0.181,0.646-0.359,1.294-0.541,1.943c-0.205,0.645-0.412,1.291-0.621,1.938l-0.653,1.944l-0.738,1.937
			c-2.131,5.127-4.849,10.255-8.251,15.136c-1.66,2.467-3.414,4.908-5.35,7.25l-1.619,2.021l-1.539,1.991
			c-1.023,1.326-2.033,2.605-3.114,4.125c-1.054,1.463-2.135,2.904-3.144,4.367c-0.954,1.472-1.902,2.936-2.845,4.39
			c-1.836,2.955-3.645,5.874-5.179,8.931c-3.204,6.008-5.809,12.162-7.703,18.248c-1.888,6.09-3.019,12.123-3.359,17.775
			c-0.33,5.654,0.102,10.9,1.159,15.393c1.038,4.5,2.682,8.192,4.296,11.004c0.814,1.407,1.605,2.608,2.417,3.576
			c0.775,0.981,1.498,1.76,2.096,2.369c0.601,0.61,1.112,1.025,1.463,1.305c0.273,0.207,1.036,0.985,1.037,0.985l2.781,1.797
			l-2.298-3.231c0,0-0.115-0.131-0.351-0.448c-0.236-0.31-0.567-0.796-0.973-1.449c-0.363-0.59-0.774-1.335-1.202-2.218
			c-0.065-0.326-0.132-0.662-0.203-1.014c-0.064-0.309-0.131-0.625-0.199-0.951c-0.048-0.331-0.076-0.68-0.116-1.03
			c-0.075-0.7-0.154-1.438-0.237-2.212c-0.041-0.777-0.02-1.602-0.034-2.445c-0.085-1.683,0.143-3.523,0.286-5.458
			C40.444,186.708,40.687,185.709,40.853,184.688z"/>
	</g>
</g>
<linearGradient id="SVGID_7_" gradientUnits="userSpaceOnUse" x1="28.1157" y1="85.4453" x2="46.8404" y2="66.0554">
	<stop  offset="0" style="stop-color:#3A0F4D"/>
	<stop  offset="0.7258" style="stop-color:#7B1FA2"/>
	<stop  offset="1" style="stop-color:#9066A2"/>
</linearGradient>
<circle fill="url(#SVGID_7_)" cx="37.478" cy="75.75" r="13.478"/>
</svg>
