<?xml version="1.0" encoding="utf-8"?>
<!-- Generator: Adobe Illustrator 15.1.0, SVG Export Plug-In . SVG Version: 6.00 Build 0)  -->
<!DOCTYPE svg PUBLIC "-//W3C//DTD SVG 1.1//EN" "http://www.w3.org/Graphics/SVG/1.1/DTD/svg11.dtd">
<svg version="1.1" id="Layer_1" xmlns="http://www.w3.org/2000/svg" xmlns:xlink="http://www.w3.org/1999/xlink" x="0px" y="0px"
	 width="80.611px" height="68.367px" viewBox="0 0 80.611 68.367" enable-background="new 0 0 80.611 68.367" xml:space="preserve">
<g>
	<g>
		<defs>
			<rect id="SVGID_1_" x="10.197" y="3.655" width="60.217" height="60.205"/>
		</defs>
		<clipPath id="SVGID_2_">
			<use xlink:href="#SVGID_1_"  overflow="visible"/>
		</clipPath>
		<path clip-path="url(#SVGID_2_)" fill="#FFFFFF" d="M22.319,29.726c4.818,9.465,12.566,17.209,22.051,22.034l7.364-7.377
			c0.918-0.919,2.236-1.194,3.391-0.82c3.749,1.233,7.78,1.901,11.946,1.901c1.857,0,3.343,1.493,3.343,3.354v11.706
			c0,1.856-1.485,3.344-3.343,3.344c-31.417,0-56.874-25.457-56.874-56.874c0-1.857,1.507-3.345,3.343-3.345h11.707
			c1.857,0,3.353,1.488,3.353,3.345c0,4.163,0.664,8.197,1.901,11.947c0.375,1.153,0.103,2.47-0.816,3.394L22.319,29.726z"/>
	</g>
</g>
</svg>
