<?xml version="1.0" encoding="utf-8"?>
<!-- Generator: Adobe Illustrator 15.1.0, SVG Export Plug-In . SVG Version: 6.00 Build 0)  -->
<!DOCTYPE svg PUBLIC "-//W3C//DTD SVG 1.1//EN" "http://www.w3.org/Graphics/SVG/1.1/DTD/svg11.dtd">
<svg version="1.1" id="Layer_1" xmlns="http://www.w3.org/2000/svg" xmlns:xlink="http://www.w3.org/1999/xlink" x="0px" y="0px"
	 width="80.611px" height="68.367px" viewBox="0 0 80.611 68.367" enable-background="new 0 0 80.611 68.367" xml:space="preserve">
<path d="M12.88,51.701v-0.404c0.297-0.375,0.716-0.282,1.109-0.269c3.727,0.156,7.301-0.469,10.715-2.008
	c1.008-0.453,1.93-1.03,2.996-1.703c-1.66-0.479-3.188-0.903-4.5-1.836c-1.926-1.356-3.441-3.037-4.359-5.229
	c-0.52-1.24-0.168-1.729,1.177-1.652c0.766,0.035,1.539-0.004,2.301,0.209c-1.109-0.217-2.051-0.742-2.93-1.41
	c-3.023-2.287-4.677-5.31-4.888-9.106c-0.043-0.813,0.406-1.181,1.191-0.947c0.703,0.203,1.354,0.562,2.223,0.769
	c-0.852-1.115-1.672-2.115-2.215-3.309c-1.547-3.4-1.449-6.787,0.008-10.177c0.406-0.942,1.156-1.092,1.902-0.354
	c1.09,1.076,2.07,2.244,3.246,3.244c4.477,3.809,9.565,6.274,15.354,7.282c0.523,0.093,1.052,0.193,1.582,0.236
	c1.168,0.1,1.224,0.062,1.246-1.16c0.021-1.026-0.059-2.062,0.172-3.088c0.855-3.84,3.086-6.588,6.603-8.291
	c0.969-0.469,2.069-0.441,3.129-0.537c0.258-0.023,0.535,0.084,0.772-0.1h2c0.535,0.236,1.113,0.133,1.66,0.168
	c1.965,0.113,3.595,0.932,5.021,2.194c0.565,0.5,1.112,0.621,1.824,0.422c1.68-0.461,3.301-1.053,4.827-1.889
	c0.398-0.221,0.802-0.437,1.188-0.068c0.367,0.345,0.262,0.775,0.102,1.207c-0.616,1.656-1.602,3.054-2.879,4.164
	c0.992-0.268,2.06-0.562,3.09-0.981c0.414-0.17,0.845-0.226,1.185,0.19v0.199c-0.629,2.297-2.469,3.652-4.099,5.137
	c-0.676,0.611-1.051,1.181-1.051,2.104c-0.008,8.062-2.772,15.151-7.879,21.281c-4.059,4.875-9.215,8.227-15.391,9.897
	c-1.48,0.404-3.023,0.394-4.543,0.521c-0.293,0.024-0.599-0.095-0.871,0.098h-7.41c-0.805-0.176-1.633-0.147-2.453-0.209
	c-3.668-0.264-6.91-1.769-10.094-3.442C13.454,52.597,13.126,52.181,12.88,51.701"/>
</svg>
