<?xml version="1.0" encoding="UTF-8" standalone="no"?>
<!DOCTYPE svg PUBLIC "-//W3C//DTD SVG 1.1//EN" "http://www.w3.org/Graphics/SVG/1.1/DTD/svg11.dtd">
<svg width="100%" height="100%" viewBox="0 0 35 69" version="1.1" xmlns="http://www.w3.org/2000/svg" xmlns:xlink="http://www.w3.org/1999/xlink" xml:space="preserve" xmlns:serif="http://www.serif.com/" style="fill-rule:evenodd;clip-rule:evenodd;stroke-linejoin:round;stroke-miterlimit:2;">
    <clipPath id="_clip1">
        <path d="M16.92,4L16.86,4.08L16.8,4.16C16.8,4.16 16.78,4.19 16.74,4.24C17.59,5.39 18.16,6.3 18.54,6.88C18.92,7.48 19.09,7.78 19.09,7.78C19.09,7.78 19.21,7.98 19.39,8.34C19.59,8.67 19.85,9.12 20.09,9.57C20.32,10.02 20.56,10.47 20.71,10.81C20.88,11.16 20.98,11.39 20.98,11.39C20.98,11.39 21.08,11.62 21.23,11.96C21.37,12.3 21.56,12.76 21.73,13.21C21.9,13.67 22.06,14.13 22.17,14.47C22.27,14.81 22.34,15.04 22.34,15.04C22.34,15.04 22.4,15.27 22.49,15.62C22.59,15.97 22.69,16.42 22.79,16.88C22.89,17.33 22.96,17.78 22.99,18.13C23.05,18.47 23.07,18.7 23.07,18.7C23.07,18.7 23.17,19.5 23.17,20.3C23.19,21.08 23.14,21.86 23.14,21.86L23.1,22.24C23.1,22.24 23.1,22.47 23.04,22.8C23.02,22.96 22.99,23.15 22.96,23.35C22.92,23.55 22.88,23.77 22.84,23.99C22.8,24.19 22.74,24.41 22.71,24.61C22.66,24.81 22.61,25.01 22.57,25.15C22.5,25.47 22.43,25.68 22.43,25.68C22.43,25.68 22.23,26.28 22.03,26.88C21.93,27.16 21.81,27.46 21.71,27.68C21.61,27.9 21.56,28.04 21.56,28.04C21.56,28.04 21.52,28.09 21.48,28.18C21.44,28.26 21.38,28.38 21.33,28.5C21.23,28.73 21.1,28.95 21.1,28.95C21.1,28.95 21,29.17 20.85,29.47C20.68,29.77 20.47,30.17 20.23,30.57C20.01,30.97 19.75,31.35 19.56,31.64C19.38,31.92 19.26,32.11 19.26,32.11C19.26,32.11 18.81,32.77 18.34,33.41C18.22,33.56 18.1,33.71 17.98,33.87C17.88,34.02 17.76,34.15 17.66,34.27C17.46,34.51 17.36,34.67 17.36,34.67C17.36,34.67 17.23,34.8 17.12,34.94C17.02,35.08 16.92,35.22 16.92,35.22L16.48,35.77C16.22,36.11 15.88,36.54 15.55,37C15.21,37.46 14.88,37.9 14.65,38.26C14.41,38.61 14.25,38.86 14.25,38.86C14.25,38.86 14.1,39.09 13.87,39.44C13.75,39.62 13.62,39.84 13.47,40.04C13.34,40.28 13.19,40.52 13.05,40.77C12.75,41.25 12.45,41.74 12.27,42.13C12.07,42.5 11.94,42.75 11.94,42.75C11.94,42.75 11.8,43 11.6,43.38C11.4,43.78 11.16,44.28 10.92,44.81C10.69,45.34 10.48,45.88 10.32,46.28C10.22,46.48 10.17,46.65 10.12,46.78C10.09,46.88 10.06,46.96 10.06,46.96C10.06,46.96 9.96,47.23 9.82,47.66C9.67,48.06 9.52,48.63 9.36,49.18C9.2,49.75 9.08,50.32 8.98,50.75C8.9,51.19 8.85,51.48 8.85,51.48C8.85,51.48 8.81,51.78 8.75,52.21C8.72,52.43 8.68,52.69 8.65,52.96C8.65,53.1 8.62,53.24 8.61,53.38C8.61,53.53 8.59,53.68 8.58,53.83C8.54,54.43 8.54,55.03 8.55,55.46C8.55,55.68 8.55,55.86 8.57,56C8.57,56.13 8.59,56.2 8.59,56.2L8.59,56.44C8.61,56.58 8.63,56.77 8.65,56.94C8.7,57.31 8.75,57.68 8.75,57.68C8.75,57.68 8.78,57.88 8.85,58.18C8.89,58.48 8.99,58.88 9.1,59.28C9.15,59.48 9.22,59.68 9.27,59.86C9.33,60.06 9.37,60.22 9.45,60.36L9.65,60.83C9.65,60.83 9.65,60.88 9.71,60.99C9.76,61.09 9.83,61.25 9.91,61.43C10.11,61.8 10.35,62.27 10.65,62.71C10.95,63.15 11.29,63.56 11.55,63.84C11.83,64.14 12.03,64.31 12.03,64.31C12.03,64.31 12.13,64.39 12.35,64.56C12.4,64.51 12.43,64.49 12.43,64.49L12.5,64.42L12.58,64.35C12.58,64.35 12.6,64.35 12.65,64.3C12.59,64.22 12.53,64.14 12.5,64.1C12.46,64.05 12.45,64.02 12.45,64.02C12.45,64.02 12.31,63.82 12.15,63.52C11.95,63.22 11.75,62.79 11.57,62.35C11.39,61.91 11.25,61.45 11.17,61.11C11.12,60.93 11.07,60.79 11.07,60.69C11.03,60.59 11.02,60.53 11.02,60.53C11.02,60.53 10.87,59.83 10.8,59.1C10.77,58.74 10.74,58.38 10.74,58.1C10.72,57.84 10.72,57.66 10.72,57.66C10.72,57.66 10.72,57.36 10.74,57.03C10.74,56.87 10.74,56.71 10.76,56.59C10.76,56.47 10.78,56.39 10.78,56.39C10.78,56.39 10.84,55.34 11.05,54.32C11.15,53.8 11.29,53.29 11.38,52.92C11.48,52.52 11.55,52.28 11.55,52.28C11.55,52.28 11.63,52.03 11.75,51.65C11.87,51.27 12.03,50.77 12.22,50.28C12.59,49.3 13.04,48.34 13.04,48.34C13.04,48.34 13.06,48.27 13.11,48.17C13.15,48.07 13.21,47.91 13.31,47.74C13.49,47.39 13.71,46.91 13.97,46.44C14.23,45.99 14.49,45.54 14.67,45.18C14.89,44.85 15.02,44.62 15.02,44.62C15.02,44.62 15.16,44.4 15.37,44.06C15.57,43.72 15.87,43.28 16.17,42.84C16.31,42.62 16.45,42.41 16.59,42.2C16.74,42 16.87,41.8 16.99,41.65C17.22,41.35 17.37,41.12 17.37,41.12C17.37,41.12 17.53,40.92 17.77,40.59C18,40.29 18.33,39.86 18.65,39.44C18.98,39.01 19.32,38.6 19.57,38.3C19.82,38 19.99,37.8 19.99,37.8L20.42,37.27C20.42,37.27 20.56,37.1 20.78,36.84C20.88,36.71 21.01,36.54 21.15,36.39C21.28,36.22 21.41,36.04 21.55,35.87C22.11,35.15 22.62,34.4 22.62,34.4C22.62,34.4 22.76,34.18 22.99,33.84C23.19,33.5 23.49,33.04 23.75,32.58C24.02,32.11 24.25,31.63 24.45,31.28L24.75,30.66C24.75,30.66 24.88,30.38 24.99,30.1C25.05,29.96 25.11,29.8 25.16,29.7C25.21,29.6 25.24,29.53 25.24,29.53C25.24,29.53 25.31,29.33 25.41,29.07C25.51,28.8 25.64,28.43 25.76,28.07C25.88,27.7 25.99,27.33 26.06,27.05C26.13,26.77 26.18,26.58 26.18,26.58C26.18,26.58 26.25,26.32 26.33,25.92C26.37,25.72 26.43,25.48 26.46,25.22C26.5,24.98 26.54,24.72 26.56,24.44C26.61,24.17 26.64,23.9 26.66,23.64C26.68,23.4 26.69,23.16 26.7,22.96C26.72,22.56 26.72,22.28 26.72,22.28L26.72,21.81C26.72,21.81 26.72,21.56 26.7,21.21C26.68,20.84 26.65,20.36 26.6,19.88C26.48,18.92 26.27,17.98 26.27,17.98C26.27,17.98 26.22,17.71 26.12,17.32C26.02,16.94 25.87,16.42 25.7,15.92C25.36,14.89 24.9,13.92 24.9,13.92C24.9,13.92 24.47,12.92 23.93,11.99C23.67,11.52 23.39,11.06 23.17,10.72C22.95,10.39 22.8,10.16 22.8,10.16C22.8,10.16 22.2,9.28 21.52,8.46C20.84,7.61 20.12,6.83 20.12,6.83C20.12,6.83 19.87,6.58 19.36,6.07C18.84,5.57 18.09,4.82 16.94,3.94C16.9,4.01 16.88,4.04 16.88,4.04"/>
    </clipPath>
    <g clip-path="url(#_clip1)">
        <path d="M-21.46,22.75L19.4,-4.82L53.48,45.68L12.6,73.25L-21.46,22.75Z" style="fill:white;fill-rule:nonzero;"/>
    </g>
    <path d="M16.86,16.76L16.96,16.93L17.04,17.09L17.14,17.25L17.22,17.41C17.22,17.41 17.24,17.46 17.26,17.51C17.28,17.54 17.3,17.58 17.3,17.58L17.38,17.74C17.42,17.84 17.45,17.91 17.45,17.91L17.52,18.08L17.59,18.26C17.59,18.26 17.62,18.34 17.65,18.43C17.69,18.51 17.72,18.6 17.72,18.6C17.72,18.6 17.78,18.77 17.82,18.95C17.88,19.13 17.94,19.3 17.94,19.3C17.94,19.3 17.94,19.35 17.96,19.4C17.96,19.43 17.98,19.48 17.98,19.48L18.01,19.66L18.06,19.83L18.09,20.01L18.17,20.36L18.23,20.72C18.23,20.72 18.25,20.89 18.27,21.07L18.29,21.41C18.29,21.41 18.31,22.11 18.29,22.11L18.29,22.56L18.27,22.7L18.25,22.84L18.25,22.99L18.22,23.13L18.2,23.28L18.18,23.42L18.13,23.72L18.13,23.78L18.1,23.85L18.07,23.98L18,24.28L17.83,24.82L17.78,24.99L17.72,25.15L17.6,25.47C17.6,25.47 17.54,25.63 17.47,25.79L17.32,26.09L17.17,26.41C17.07,26.56 17,26.71 17,26.71C17,26.71 16.9,26.86 16.83,27.01C16.79,27.09 16.73,27.16 16.71,27.21C16.68,27.27 16.66,27.31 16.66,27.31L16.56,27.45L16.46,27.6C16.46,27.6 16.29,27.9 16.28,27.9L15.86,28.45C15.86,28.45 15.76,28.59 15.64,28.72C15.54,28.86 15.42,28.99 15.42,28.99L15.22,29.26C15.09,29.41 14.97,29.53 14.97,29.53L14.49,30.05C14.49,30.05 14.46,30.07 14.41,30.12C14.35,30.17 14.29,30.22 14.21,30.29C14.11,30.41 13.97,30.54 13.97,30.54C13.97,30.54 13.84,30.64 13.72,30.78C13.62,30.91 13.47,31.02 13.47,31.02L12.93,31.49C12.93,31.49 12.91,31.52 12.83,31.59C12.78,31.63 12.7,31.71 12.58,31.79C12.36,31.97 12.08,32.21 11.78,32.45C11.18,32.91 10.56,33.37 10.56,33.37L9.96,33.84L9.36,34.3C9.36,34.3 9.32,34.33 9.26,34.37C9.21,34.42 9.14,34.49 9.06,34.55C8.92,34.69 8.78,34.82 8.78,34.82L8.21,35.32C8.21,35.32 8.07,35.48 7.85,35.72C7.65,35.95 7.33,36.24 7.07,36.57C6.8,36.9 6.54,37.23 6.34,37.47C6.17,37.74 6.04,37.91 6.04,37.91C6.04,37.91 5.94,38.08 5.84,38.25C5.77,38.33 5.72,38.41 5.68,38.47C5.64,38.54 5.61,38.57 5.61,38.57L5.21,39.27C5.21,39.27 5.11,39.45 5.03,39.63C4.93,39.8 4.83,39.99 4.83,39.99L4.68,40.35L4.6,40.53L4.5,40.73C4.5,40.73 4.5,40.76 4.47,40.83C4.44,40.91 4.4,41 4.37,41.1C4.3,41.3 4.23,41.5 4.23,41.5C4.23,41.5 4.16,41.7 4.09,41.88C4.04,42.08 3.99,42.28 3.99,42.28C3.99,42.28 3.93,42.48 3.87,42.68C3.85,42.78 3.82,42.88 3.8,42.95C3.78,43.02 3.77,43.07 3.77,43.07L3.7,43.47L3.66,43.67L3.62,43.87C3.62,43.87 3.56,44.09 3.55,44.31L3.5,44.75L3.45,45.18L3.45,45.38L3.43,45.61L3.43,47.31L3.51,48.06C3.51,48.06 3.51,48.16 3.53,48.26C3.53,48.34 3.55,48.43 3.55,48.43L3.61,48.79L3.66,49.15L3.69,49.35L3.77,49.69L3.8,49.87L3.84,50.05L3.89,50.23C3.89,50.23 3.94,50.43 4.02,50.73C4.09,51.01 4.2,51.39 4.32,51.77C4.45,52.15 4.6,52.52 4.7,52.8C4.8,53.07 4.88,53.25 4.88,53.25C4.88,53.25 4.96,53.43 5.08,53.7C5.21,53.97 5.36,54.32 5.54,54.66C5.71,55.01 5.9,55.36 6.04,55.6C6.19,55.85 6.29,56.02 6.29,56.02C6.29,56.02 6.66,56.62 7.06,57.18C7.26,57.48 7.48,57.75 7.64,57.95C7.81,58.15 7.92,58.29 7.92,58.29C7.92,58.29 7.98,58.36 8.1,58.49C8.03,58.33 8,58.25 8,58.25C8,58.25 7.7,57.61 7.47,56.97C7.21,56.33 7,55.67 7,55.67C7,55.67 6.95,55.5 6.86,55.23C6.78,54.97 6.66,54.63 6.56,54.26C6.46,53.91 6.38,53.56 6.31,53.28C6.25,53.01 6.21,52.83 6.21,52.83C6.21,52.83 6.04,52.11 5.93,51.38C5.89,51.2 5.86,51.01 5.83,50.84C5.81,50.69 5.79,50.54 5.78,50.39C5.75,50.12 5.72,49.94 5.72,49.94L5.7,49.77L5.7,49.6L5.68,49.44L5.66,49.27L5.66,49.1L5.6,49L5.6,48.5L5.58,48.34L5.58,48.17L5.58,48.01L5.6,47.36L5.6,47.18L5.63,46.98L5.63,46.81L5.65,46.61L5.67,46.43L5.67,46.25L5.73,45.88L5.76,45.7C5.76,45.7 5.76,45.5 5.78,45.5L5.85,45.14L5.9,44.78C5.93,44.6 6,44.42 6,44.42L6.03,44.26L6.08,44.09L6.16,43.74C6.16,43.74 6.18,43.7 6.21,43.64C6.23,43.58 6.25,43.5 6.28,43.42C6.34,43.26 6.38,43.09 6.38,43.09C6.38,43.09 6.45,42.93 6.5,42.77C6.57,42.61 6.63,42.45 6.63,42.45C6.63,42.45 6.7,42.3 6.77,42.15C6.81,42.05 6.84,41.98 6.87,41.92C6.89,41.86 6.91,41.82 6.91,41.82L6.99,41.68L7.07,41.52L7.21,41.22C7.21,41.22 7.28,41.08 7.36,40.92L7.53,40.65L7.87,40.08L8.27,39.54C8.27,39.54 8.37,39.4 8.52,39.18C8.69,38.98 8.92,38.7 9.14,38.43C9.37,38.15 9.64,37.9 9.81,37.71C10.01,37.51 10.11,37.38 10.11,37.38L10.61,36.93C10.61,36.93 10.74,36.83 10.86,36.71C10.91,36.65 10.96,36.61 11.02,36.55C11.06,36.51 11.09,36.48 11.09,36.48L11.62,36.08L12.14,35.65C12.14,35.65 12.79,35.13 13.44,34.61C13.74,34.34 14.06,34.07 14.29,33.86C14.41,33.76 14.49,33.66 14.57,33.6C14.64,33.54 14.67,33.5 14.67,33.5L15.25,32.95C15.25,32.95 15.39,32.81 15.52,32.65C15.66,32.51 15.79,32.35 15.79,32.35L16.06,32.07C16.19,31.91 16.32,31.77 16.32,31.77L16.82,31.13C16.82,31.13 16.95,30.98 17.07,30.81L17.31,30.48C17.31,30.48 17.78,29.83 17.76,29.82L18.16,29.12C18.16,29.12 18.22,29.04 18.26,28.94C18.32,28.84 18.36,28.76 18.36,28.76L18.46,28.58L18.56,28.4C18.56,28.4 18.56,28.35 18.61,28.28C18.64,28.22 18.69,28.13 18.73,28.03C18.81,27.83 18.89,27.65 18.89,27.65L19.04,27.27C19.11,27.07 19.18,26.87 19.18,26.87C19.18,26.87 19.24,26.67 19.31,26.47C19.37,26.29 19.41,26.07 19.41,26.07L19.51,25.67C19.51,25.67 19.53,25.63 19.54,25.57C19.54,25.53 19.56,25.47 19.56,25.47L19.59,25.27C19.59,25.27 19.71,24.59 19.69,24.59L19.73,24.25L19.73,24.08L19.75,23.91L19.75,23.06L19.73,22.89L19.71,22.71L19.71,22.54L19.63,22.04C19.63,22.04 19.61,21.84 19.56,21.64C19.53,21.44 19.48,21.24 19.48,21.24L19.38,20.84C19.33,20.66 19.26,20.47 19.26,20.47C19.26,20.47 19.19,20.27 19.12,20.09C19.05,19.91 18.97,19.72 18.97,19.72C18.97,19.72 18.94,19.62 18.91,19.54C18.86,19.44 18.81,19.36 18.81,19.36L18.73,19.19C18.73,19.19 18.71,19.14 18.68,19.09C18.68,19.05 18.65,19.01 18.65,19.01C18.65,19.01 18.55,18.84 18.45,18.67C18.35,18.5 18.25,18.34 18.25,18.34C18.25,18.34 18.19,18.24 18.15,18.17C18.08,18.09 18.03,18.01 18.03,18.01L17.91,17.85L17.81,17.7C17.81,17.7 17.74,17.63 17.67,17.56C17.6,17.49 17.54,17.41 17.54,17.41C17.54,17.41 17.51,17.38 17.48,17.35C17.45,17.31 17.42,17.28 17.42,17.28L17.29,17.13L17.17,16.99L17.03,16.86L16.89,16.73L16.74,16.6C16.81,16.7 16.84,16.76 16.84,16.76" style="fill:white;fill-rule:nonzero;"/>
    <path d="M30.75,29.55L30.75,30.42L30.73,30.76L30.7,31.02L30.68,31.28C30.68,31.28 30.65,31.54 30.64,31.54L30.6,31.8L30.54,32.1L30.49,32.4L30.39,32.68L30.33,32.98C30.33,32.98 30.27,33.26 30.26,33.26L30.16,33.56L29.98,34.11L29.86,34.41L29.74,34.67L29.52,35.22C29.52,35.22 29.52,35.27 29.48,35.32C29.45,35.36 29.42,35.42 29.38,35.5C29.32,35.63 29.25,35.76 29.25,35.76L28.98,36.28C28.98,36.28 28.94,36.35 28.91,36.41C28.87,36.46 28.83,36.53 28.83,36.53L28.67,36.78L28.35,37.28L28.19,37.53C28.09,37.63 28.01,37.76 28.01,37.76L27.65,38.23L27.3,38.7C27.3,38.7 27.28,38.72 27.24,38.76C27.2,38.8 27.14,38.86 27.1,38.91L26.9,39.14L26.5,39.57C26.5,39.57 26.4,39.67 26.3,39.79C26.26,39.85 26.2,39.89 26.17,39.94C26.13,39.98 26.1,40 26.1,40C26.1,40 25.67,40.4 25.23,40.8C25.03,41 24.81,41.2 24.63,41.33C24.45,41.47 24.33,41.56 24.33,41.56L24.13,41.72L23.73,42.05L23.3,42.38L22.86,42.68L22.41,42.98L22.18,43.12L21.95,43.28L21.71,43.44L21.48,43.6L21.2,43.8L20.92,43.97L20.64,44.17L20.49,44.25L20.35,44.35L19.85,44.75C19.85,44.75 19.73,44.85 19.6,44.95C19.48,45.05 19.36,45.15 19.36,45.15L18.89,45.57C18.89,45.57 18.83,45.63 18.77,45.67C18.72,45.74 18.67,45.8 18.67,45.8L18.44,46.02C18.44,46.02 18.34,46.14 18.21,46.25C18.11,46.35 17.99,46.49 17.99,46.49L17.57,46.96C17.57,46.96 17.54,46.99 17.5,47.03C17.46,47.08 17.4,47.13 17.36,47.2C17.26,47.34 17.16,47.47 17.16,47.47L16.96,47.72L16.86,47.85C16.81,47.91 16.76,47.98 16.76,47.98L16.41,48.51L16.31,48.66C16.28,48.72 16.24,48.79 16.24,48.79L16.08,49.07L15.92,49.35C15.92,49.35 15.88,49.42 15.84,49.49L15.76,49.63L15.62,49.93L15.47,50.2C15.47,50.2 15.45,50.25 15.42,50.32C15.4,50.38 15.37,50.45 15.37,50.45L15.25,50.71L15.15,50.98L15.09,51.11L15.04,51.24C15.04,51.24 14.92,51.57 14.8,51.91L14.6,52.59C14.6,52.59 14.55,52.74 14.5,52.97C14.43,53.21 14.35,53.51 14.3,53.82C14.16,54.45 14.1,55.08 14.1,55.08C14.1,55.08 14.02,55.71 14,56.34C13.98,56.64 13.98,56.96 13.98,57.2C13.98,57.43 14,57.6 14,57.6L14,58C14.03,58.2 14.04,58.42 14.04,58.42C14.04,58.42 14.04,58.52 14.06,58.68C14.08,58.83 14.09,59.04 14.12,59.25C14.15,59.45 14.17,59.65 14.2,59.81L14.24,60.05C14.24,60.05 14.34,60.61 14.47,61.15C14.52,61.45 14.6,61.71 14.67,61.91C14.74,62.11 14.77,62.25 14.77,62.25C14.77,62.25 14.8,62.31 14.84,62.45C14.84,62.3 14.82,62.25 14.82,62.25C14.82,62.25 14.74,61.68 14.72,61.12C14.67,60.58 14.66,60.02 14.66,60.02L14.66,59.77L14.66,58.66C14.68,58.51 14.68,58.41 14.68,58.41C14.68,58.41 14.7,58.21 14.71,58.01C14.71,57.81 14.75,57.61 14.75,57.61C14.75,57.61 14.79,57.01 14.88,56.41C14.96,55.81 15.08,55.24 15.08,55.24C15.08,55.24 15.13,55.09 15.18,54.88C15.23,54.66 15.3,54.38 15.38,54.08C15.46,53.8 15.55,53.52 15.62,53.31C15.69,53.11 15.74,52.96 15.74,52.96C15.74,52.96 15.84,52.66 15.97,52.36C16.1,52.06 16.23,51.76 16.23,51.76C16.23,51.76 16.25,51.69 16.28,51.63C16.3,51.57 16.33,51.53 16.33,51.53L16.45,51.29L16.55,51.06L16.62,50.94C16.64,50.88 16.67,50.84 16.67,50.84L16.82,50.57L16.96,50.32C16.96,50.32 17,50.27 17.03,50.2L17.13,50.08L17.28,49.84L17.44,49.59C17.44,49.59 17.48,49.53 17.54,49.47C17.57,49.41 17.61,49.35 17.61,49.35L17.95,48.88C17.95,48.88 18,48.82 18.05,48.78C18.1,48.71 18.15,48.65 18.15,48.65L18.33,48.43L18.51,48.21C18.56,48.15 18.61,48.11 18.64,48.06C18.67,48.02 18.7,47.99 18.7,47.99L19.1,47.57C19.1,47.57 19.2,47.47 19.3,47.37C19.4,47.27 19.5,47.17 19.5,47.17L19.7,46.95C19.7,46.95 19.76,46.9 19.82,46.85C19.87,46.8 19.92,46.75 19.92,46.75L20.37,46.37C20.37,46.37 20.47,46.27 20.59,46.17L20.82,46.01L21.28,45.65L21.41,45.55C21.47,45.51 21.53,45.47 21.53,45.47L21.78,45.3L22.04,45.12L22.3,44.94L22.55,44.77L22.8,44.6L23.05,44.43L23.29,44.28L23.75,43.95L24.21,43.63L24.64,43.27L25.06,42.91L25.26,42.73C25.26,42.73 25.39,42.63 25.56,42.48C25.76,42.33 25.98,42.1 26.2,41.88L27.08,40.98C27.08,40.98 27.11,40.94 27.15,40.9C27.2,40.85 27.25,40.8 27.3,40.73C27.4,40.61 27.5,40.49 27.5,40.49L27.9,39.99C27.9,39.99 28,39.87 28.1,39.74C28.14,39.69 28.2,39.64 28.23,39.58C28.27,39.54 28.29,39.5 28.29,39.5L28.64,38.97L28.97,38.44L29.14,38.17C29.22,38.03 29.29,37.89 29.29,37.89L29.59,37.33L29.73,37.03C29.73,37.03 29.76,36.97 29.79,36.9C29.83,36.82 29.85,36.75 29.85,36.75L30.09,36.15L30.19,35.87C30.23,35.79 30.26,35.72 30.29,35.67C30.31,35.61 30.32,35.57 30.32,35.57L30.48,34.97L30.58,34.67C30.58,34.67 30.6,34.59 30.62,34.51C30.64,34.44 30.65,34.36 30.65,34.36L30.77,33.74L30.83,33.44C30.85,33.44 30.88,33.14 30.88,33.14L30.91,32.81L30.95,32.51L30.95,32.35L30.95,32.2L30.97,31.9L30.97,31.62L30.97,31.48L30.95,31.35L30.95,31.08L30.92,30.81L30.87,30.46L30.85,30.3L30.85,30.2C30.83,30.17 30.82,30.12 30.82,30.12L30.79,29.95L30.75,29.77L30.71,29.6C30.71,29.6 30.69,29.54 30.65,29.43C30.67,29.55 30.67,29.61 30.67,29.61" style="fill:white;fill-rule:nonzero;"/>
    <clipPath id="_clip2">
        <path d="M7.53,23.33C7.53,25.67 9.43,27.57 11.77,27.57C14.11,27.57 16.01,25.67 16.01,23.33C16.01,20.99 14.11,19.1 11.78,19.1C9.44,19.1 7.54,21 7.54,23.33"/>
    </clipPath>
    <g clip-path="url(#_clip2)">
        <path d="M3.3,23.48L11.62,14.86L20.24,23.18L11.92,31.8L3.3,23.48Z" style="fill:white;fill-rule:nonzero;"/>
    </g>
    <clipPath id="_clip3">
        <path d="M7.53,23.33C7.53,25.67 9.43,27.57 11.77,27.57C14.11,27.57 16.01,25.67 16.01,23.33C16.01,20.99 14.11,19.1 11.78,19.1C9.44,19.1 7.54,21 7.54,23.33"/>
    </clipPath>
    <g clip-path="url(#_clip3)">
        <path d="M3.3,23.48L11.62,14.86L20.24,23.18L11.92,31.8L3.3,23.48Z" style="fill:white;fill-rule:nonzero;"/>
    </g>
</svg>
