<svg xmlns="http://www.w3.org/2000/svg" width="34.25" height="68.367" xmlns:xlink="http://www.w3.org/1999/xlink"><defs><path id="a" d="M16.92 4l-.06.08-.06.08s-.02.03-.06.08c.85 1.15 1.42 2.06 1.8 2.64.38.6.55.9.55.9s.12.2.3.56c.2.33.46.78.7 1.23.23.45.47.9.62 1.24.17.35.27.58.27.58s.1.23.25.57c.14.34.33.8.5 1.25.17.46.33.92.44 1.26.1.34.17.57.17.57s.06.23.15.58c.1.35.2.8.3 1.26.1.45.17.9.2 1.25.06.34.08.57.08.57s.1.8.1 1.6c.02.78-.03 1.56-.03 1.56l-.04.38s0 .23-.06.56c-.02.16-.05.35-.08.55-.04.2-.08.42-.12.64-.04.2-.1.42-.13.62-.05.2-.1.4-.14.54-.07.32-.14.53-.14.53s-.2.6-.4 1.2c-.1.28-.22.58-.32.8-.1.22-.15.36-.15.36s-.04.05-.08.14c-.04.08-.1.2-.15.32-.1.23-.23.45-.23.45s-.1.22-.25.52c-.17.3-.38.7-.62 1.1-.22.4-.48.78-.67 1.07-.18.28-.3.47-.3.47s-.45.66-.92 1.3c-.12.15-.24.3-.36.46-.1.15-.22.28-.32.4-.2.24-.3.4-.3.4s-.13.13-.24.27c-.1.14-.2.28-.2.28l-.44.55c-.26.34-.6.77-.93 1.23-.34.46-.67.9-.9 1.26-.24.35-.4.6-.4.6s-.15.23-.38.58c-.12.18-.25.4-.4.6-.13.24-.28.48-.42.73-.3.48-.6.97-.78 1.36-.2.37-.33.62-.33.62s-.14.25-.34.63c-.2.4-.44.9-.68 1.43-.23.53-.44 1.07-.6 1.47-.1.2-.15.37-.2.5-.03.1-.06.18-.06.18s-.1.27-.24.7c-.15.4-.3.97-.46 1.52-.16.57-.28 1.14-.38 1.57-.08.44-.13.73-.13.73s-.04.3-.1.73c-.03.22-.07.48-.1.75 0 .14-.03.28-.04.42 0 .15-.02.3-.03.45-.04.6-.04 1.2-.03 1.63 0 .22 0 .4.02.54 0 .13.02.2.02.2s0 .1 0 .24c.02.14.04.33.06.5.05.37.1.74.1.74s.03.2.1.5c.04.3.14.7.25 1.1.05.2.12.4.17.58.06.2.1.36.18.5l.2.47s0 .05.06.16c.05.1.12.26.2.44.2.37.44.84.74 1.28.3.44.64.85.9 1.13.28.3.48.47.48.47s.1.08.32.25c.05-.05.08-.07.08-.07l.07-.07.08-.07s.02 0 .07-.05c-.06-.08-.12-.16-.15-.2-.04-.05-.05-.08-.05-.08s-.14-.2-.3-.5c-.2-.3-.4-.73-.58-1.17-.18-.44-.32-.9-.4-1.24-.05-.18-.1-.32-.1-.42-.04-.1-.05-.16-.05-.16s-.15-.7-.22-1.43c-.03-.36-.06-.72-.06-1-.02-.26-.02-.44-.02-.44s0-.3.02-.63c0-.16 0-.32.02-.44 0-.12.02-.2.02-.2s.06-1.05.27-2.07c.1-.52.24-1.03.33-1.4.1-.4.17-.64.17-.64s.08-.25.2-.63c.12-.38.28-.88.47-1.37.37-.98.82-1.94.82-1.94s.02-.07.07-.17c.04-.1.1-.26.2-.43.18-.35.4-.83.66-1.3.26-.45.52-.9.7-1.26.22-.33.35-.56.35-.56s.14-.22.35-.56c.2-.34.5-.78.8-1.22.14-.22.28-.43.42-.64.15-.2.28-.4.4-.55.23-.3.38-.53.38-.53s.16-.2.4-.53c.23-.3.56-.73.88-1.15.33-.43.67-.84.92-1.14.25-.3.42-.5.42-.5l.43-.53s.14-.17.36-.43c.1-.13.23-.3.37-.45.13-.17.26-.35.4-.52.56-.72 1.07-1.47 1.07-1.47s.14-.22.37-.56c.2-.34.5-.8.76-1.26.27-.47.5-.95.7-1.3l.3-.62s.13-.28.24-.56c.06-.14.12-.3.17-.4.05-.1.08-.17.08-.17s.07-.2.17-.46c.1-.27.23-.64.35-1 .12-.37.23-.74.3-1.02.07-.28.12-.47.12-.47s.07-.26.15-.66c.04-.2.1-.44.13-.7.04-.24.08-.5.1-.78.05-.27.08-.54.1-.8.02-.24.03-.48.04-.68.02-.4.02-.68.02-.68v-.47s0-.25-.02-.6c-.02-.37-.05-.85-.1-1.33-.12-.96-.33-1.9-.33-1.9s-.05-.27-.15-.66c-.1-.38-.25-.9-.42-1.4-.34-1.03-.8-2-.8-2s-.43-1-.97-1.93c-.26-.47-.54-.93-.76-1.27-.22-.33-.37-.56-.37-.56s-.6-.88-1.28-1.7c-.68-.85-1.4-1.63-1.4-1.63s-.25-.25-.76-.76c-.52-.5-1.27-1.25-2.42-2.13-.04.07-.06.1-.06.1"/></defs><clipPath id="b"><use xlink:href="#a" overflow="visible"/></clipPath><linearGradient id="c" x1="-418.882" x2="-418.568" y1="421.141" y2="421.141" gradientUnits="userSpaceOnUse" gradientTransform="matrix(104.002 -70.15 -70.15 -104.002 73106.016 14461.125)"><stop offset="0" stop-color="#3A0F4D"/><stop offset=".124" stop-color="#7B1FA2"/><stop offset=".16" stop-color="#742CAF"/><stop offset=".228" stop-color="#604FD1"/><stop offset=".263" stop-color="#5564E5"/><stop offset=".375" stop-color="#4F6EDE"/><stop offset=".565" stop-color="#4189CB"/><stop offset=".808" stop-color="#29B5AC"/><stop offset="1" stop-color="#13DC90"/></linearGradient><path fill="url(#c)" d="M-21.46 22.75L19.4-4.82l34.08 50.5L12.6 73.25z" clip-path="url(#b)"/><linearGradient id="d" x1="3.386" x2="19.798" y1="37.581" y2="37.581" gradientUnits="userSpaceOnUse"><stop offset="0" stop-color="#3A0F4D"/><stop offset=".124" stop-color="#7B1FA2"/><stop offset=".16" stop-color="#742CAF"/><stop offset=".228" stop-color="#604FD1"/><stop offset=".263" stop-color="#5564E5"/><stop offset=".375" stop-color="#4F6EDE"/><stop offset=".565" stop-color="#4189CB"/><stop offset=".808" stop-color="#29B5AC"/><stop offset="1" stop-color="#13DC90"/></linearGradient><path fill="url(#d)" d="M16.86 16.76l.1.17.08.16.1.16.08.16s.02.05.04.1c.02.03.04.07.04.07l.08.16c.04.1.07.17.07.17l.07.17s.07.18.07.18.03.08.06.17c.04.08.07.17.07.17s.06.17.1.35c.06.18.12.35.12.35s0 .05.02.1c0 .03.02.08.02.08l.03.18.05.17.03.18.08.35.06.36s.02.17.04.35l.02.34s.02.7 0 .7v.45l-.02.14-.02.14v.15l-.03.14-.02.15-.02.14-.05.3s0 .03 0 .06l-.03.07-.03.13-.07.3s-.17.54-.17.54l-.05.17s-.06.16-.06.16l-.12.32s-.06.16-.13.32l-.15.3-.15.32c-.1.15-.17.3-.17.3s-.1.15-.17.3c-.04.08-.1.15-.12.2-.03.06-.05.1-.05.1l-.1.14-.1.15s-.17.3-.18.3l-.42.55s-.1.14-.22.27c-.1.14-.22.27-.22.27l-.2.27c-.13.15-.25.27-.25.27l-.48.52s-.03.02-.08.07c-.06.05-.12.1-.2.17-.1.12-.24.25-.24.25s-.13.1-.25.24c-.1.13-.25.24-.25.24l-.54.47s-.02.03-.1.1c-.05.04-.13.12-.25.2-.22.18-.5.42-.8.66-.6.46-1.22.92-1.22.92l-.6.47-.6.46s-.04.03-.1.07c-.05.05-.12.12-.2.18-.14.14-.28.27-.28.27l-.57.5s-.14.16-.36.4c-.2.23-.52.52-.78.85-.27.33-.53.66-.73.9-.17.27-.3.44-.3.44s-.1.17-.2.34c-.07.08-.12.16-.16.22-.04.07-.07.1-.07.1l-.4.7s-.1.18-.18.36c-.1.17-.2.36-.2.36l-.15.36-.08.18-.1.2s0 .03-.03.1c-.03.08-.07.17-.1.27-.07.2-.14.4-.14.4s-.07.2-.14.38c-.05.2-.1.4-.1.4s-.06.2-.12.4c-.02.1-.05.2-.07.27-.02.07-.03.12-.03.12l-.07.4-.04.2-.04.2s-.06.22-.07.44l-.05.44-.05.43s0 .05 0 .1v.1l-.02.23v1.7l.08.75s0 .1.02.2c0 .08.02.17.02.17l.03.18.03.18.05.36.03.2.04.17.04.17.03.18.04.18.05.18s.05.2.13.5c.07.28.18.66.3 1.04.13.38.28.75.38 1.03.1.27.18.45.18.45s.08.18.2.45c.13.27.28.62.46.96.17.35.36.7.5.94.15.25.25.42.25.42s.37.6.77 1.16c.2.3.42.57.58.77.17.2.28.34.28.34s.06.07.18.2c-.07-.16-.1-.24-.1-.24s-.3-.64-.53-1.28c-.26-.64-.47-1.3-.47-1.3s-.05-.17-.14-.44c-.08-.26-.2-.6-.3-.97-.1-.35-.18-.7-.25-.98-.06-.27-.1-.45-.1-.45s-.17-.72-.28-1.45c-.04-.18-.07-.37-.1-.54-.02-.15-.04-.3-.05-.45-.03-.27-.06-.45-.06-.45l-.02-.17v-.17l-.02-.16-.02-.17v-.17L5.6 49v-.5l-.02-.16s0-.08 0-.17c0-.08 0-.16 0-.16l.02-.65v-.18l.03-.2v-.17l.02-.2.02-.18v-.18l.06-.37.03-.18s0-.2.02-.2l.07-.36.05-.36c.03-.18.1-.36.1-.36l.03-.16.05-.17.08-.35s.02-.04.05-.1c.02-.06.04-.14.07-.22.06-.16.1-.33.1-.33s.07-.16.12-.32c.07-.16.13-.32.13-.32s.07-.15.14-.3c.04-.1.07-.17.1-.23.02-.06.04-.1.04-.1l.08-.14.08-.16.14-.3s.07-.14.15-.3l.17-.27.34-.57.4-.54s.1-.14.25-.36c.17-.2.4-.48.62-.75.23-.28.5-.53.67-.72.2-.2.3-.33.3-.33l.5-.45s.13-.1.25-.22c.05-.06.1-.1.16-.16.04-.04.07-.07.07-.07l.53-.4.52-.43s.65-.52 1.3-1.04c.3-.27.62-.54.85-.75.12-.1.2-.2.28-.26.07-.06.1-.1.1-.1l.58-.55s.14-.14.27-.3c.14-.14.27-.3.27-.3l.27-.28c.13-.16.26-.3.26-.3l.5-.64s.13-.15.25-.32l.24-.33s.47-.65.45-.66l.4-.7s.06-.08.1-.18c.06-.1.1-.18.1-.18l.1-.18.1-.18s0-.05.05-.12c.03-.06.08-.15.12-.25.08-.2.16-.38.16-.38l.15-.38c.07-.2.14-.4.14-.4s.06-.2.13-.4c.06-.18.1-.4.1-.4l.1-.4s.02-.04.03-.1c0-.04.02-.1.02-.1l.03-.2s.12-.68.1-.68l.04-.34v-.17s.02-.17.02-.17V23.06l-.02-.17-.02-.18v-.17l-.08-.5s-.02-.2-.07-.4c-.03-.2-.08-.4-.08-.4l-.1-.4c-.05-.18-.12-.37-.12-.37s-.07-.2-.14-.38-.15-.37-.15-.37-.03-.1-.06-.18c-.05-.1-.1-.18-.1-.18l-.08-.17s-.02-.05-.05-.1c0-.04-.03-.08-.03-.08s-.1-.17-.2-.34-.2-.33-.2-.33-.06-.1-.1-.17c-.07-.08-.12-.16-.12-.16l-.12-.16-.1-.15s-.07-.07-.14-.14-.13-.15-.13-.15-.03-.03-.06-.06c-.03-.04-.06-.07-.06-.07l-.13-.15-.12-.14-.14-.13-.14-.13-.15-.13c.07.1.1.16.1.16"/><linearGradient id="e" x1="14.002" x2="31.033" y1="45.911" y2="45.911" gradientUnits="userSpaceOnUse"><stop offset="0" stop-color="#3A0F4D"/><stop offset=".124" stop-color="#7B1FA2"/><stop offset=".16" stop-color="#742CAF"/><stop offset=".228" stop-color="#604FD1"/><stop offset=".263" stop-color="#5564E5"/><stop offset=".375" stop-color="#4F6EDE"/><stop offset=".565" stop-color="#4189CB"/><stop offset=".808" stop-color="#29B5AC"/><stop offset="1" stop-color="#13DC90"/></linearGradient><path fill="url(#e)" d="M30.75 29.55v.62c0 .03 0 .08 0 .08v.17l-.02.34-.03.26-.02.26s-.03.26-.04.26l-.04.26-.06.3s-.05.3-.05.3l-.1.28-.06.3s-.06.28-.07.28l-.1.3-.18.55s-.12.3-.12.3l-.12.26-.22.55s0 .05-.04.1c-.03.04-.06.1-.1.18-.06.13-.13.26-.13.26l-.27.52s-.04.07-.07.13c-.04.05-.08.12-.08.12l-.16.25-.32.5-.16.25c-.1.1-.18.23-.18.23l-.36.47-.35.47s-.02.02-.06.06c-.04.04-.1.1-.14.15l-.2.23-.4.43s-.1.1-.2.22c-.04.06-.1.1-.13.15-.04.04-.07.06-.07.06s-.43.4-.87.8c-.2.2-.42.4-.6.53-.18.14-.3.23-.3.23l-.2.16-.4.33-.43.33-.44.3-.45.3-.23.14-.23.16-.24.16-.23.16-.28.2-.28.17-.28.2-.15.08-.14.1-.5.4s-.12.1-.25.2c-.12.1-.24.2-.24.2l-.47.42s-.06.06-.12.1c-.05.07-.1.13-.1.13l-.23.22s-.1.12-.23.23c-.1.1-.22.24-.22.24l-.42.47s-.03.03-.07.07c-.04.05-.1.1-.14.17-.1.14-.2.27-.2.27l-.2.25-.1.13c-.05.06-.1.13-.1.13l-.35.53-.1.15c-.03.06-.07.13-.07.13l-.16.28-.16.28s-.04.07-.08.14l-.08.14-.14.3-.15.27s-.02.05-.05.12c-.02.06-.05.13-.05.13l-.12.26-.1.27-.06.13-.05.13s-.12.33-.24.67l-.2.68s-.05.15-.1.38c-.07.24-.15.54-.2.85-.14.63-.2 1.26-.2 1.26s-.08.63-.1 1.26c-.02.3-.02.62-.02.86 0 .23.02.4.02.4s0 .2 0 .4c.03.2.04.42.04.42s0 .1.02.26c.02.15.03.36.06.57.03.2.05.4.08.56l.04.24s.1.56.23 1.1c.05.3.13.56.2.76s.1.34.1.34.03.06.07.2c0-.15-.02-.2-.02-.2s-.08-.57-.1-1.13c-.05-.54-.06-1.1-.06-1.1v-.25c0-.15 0-.35 0-.55 0-.2 0-.4 0-.56.02-.15.02-.25.02-.25s.02-.2.03-.4c0-.2.04-.4.04-.4s.04-.6.13-1.2c.08-.6.2-1.17.2-1.17s.05-.15.1-.36c.05-.22.12-.5.2-.8.08-.28.17-.56.24-.77.07-.2.12-.35.12-.35s.1-.3.23-.6.26-.6.26-.6.02-.07.05-.13c.02-.06.05-.1.05-.1l.12-.24.1-.23.07-.12c.02-.06.05-.1.05-.1l.15-.27.14-.25s.04-.05.07-.12l.1-.12.15-.24.16-.25s.04-.06.1-.12c.03-.06.07-.12.07-.12l.34-.47s.05-.06.1-.1c.05-.07.1-.13.1-.13l.18-.22.18-.22c.05-.06.1-.1.13-.15.03-.04.06-.07.06-.07l.4-.42s.1-.1.2-.2.2-.2.2-.2l.2-.22s.06-.05.12-.1c.05-.05.1-.1.1-.1l.45-.38s.1-.1.22-.2l.23-.16.46-.36.13-.1c.06-.04.12-.08.12-.08l.25-.17.26-.18.26-.18.25-.17.25-.17.25-.17.24-.15.46-.33.46-.32.43-.36.42-.36.2-.18s.13-.1.3-.25c.2-.15.42-.38.64-.6l.88-.9s.03-.04.07-.08c.05-.05.1-.1.15-.17.1-.12.2-.24.2-.24l.4-.5s.1-.12.2-.25c.04-.05.1-.1.13-.16.04-.04.06-.08.06-.08l.35-.53.33-.53.17-.27c.08-.14.15-.28.15-.28l.3-.56.14-.3s.03-.06.06-.13c.04-.08.06-.15.06-.15l.24-.6.1-.28c.04-.08.07-.15.1-.2.02-.06.03-.1.03-.1l.16-.6.1-.3s.02-.08.04-.16c.02-.07.03-.15.03-.15l.12-.62.06-.3c.02 0 .05-.3.05-.3l.03-.33.04-.3s0-.08 0-.16c0-.07 0-.15 0-.15l.02-.3v-.28s0-.07 0-.14l-.02-.13v-.27l-.03-.27-.05-.35-.02-.16s0-.05 0-.1c-.02-.03-.03-.08-.03-.08l-.03-.17-.04-.18-.04-.17s-.02-.06-.06-.17c.02.12.02.18.02.18"/><defs><path id="f" d="M7.53 23.33c0 2.34 1.9 4.24 4.24 4.24 2.34 0 4.24-1.9 4.24-4.24 0-2.34-1.9-4.23-4.23-4.23-2.34 0-4.24 1.9-4.24 4.23"/></defs><clipPath id="g"><use xlink:href="#f" overflow="visible"/></clipPath><linearGradient id="h" x1="-411.495" x2="-411.181" y1="424.004" y2="424.004" gradientUnits="userSpaceOnUse" gradientTransform="matrix(18.725 -19.39 -19.39 -18.725 15935.361 -13.133)"><stop offset="0" stop-color="#3A0F4D"/><stop offset=".726" stop-color="#7B1FA2"/><stop offset="1" stop-color="#9066A2"/></linearGradient><path fill="url(#h)" d="M3.3 23.48l8.32-8.62 8.62 8.32-8.32 8.62z" clip-path="url(#g)"/><defs><path id="i" d="M7.53 23.33c0 2.34 1.9 4.24 4.24 4.24 2.34 0 4.24-1.9 4.24-4.24 0-2.34-1.9-4.23-4.23-4.23-2.34 0-4.24 1.9-4.24 4.23"/></defs><clipPath id="j"><use xlink:href="#i" overflow="visible"/></clipPath><linearGradient id="k" x1="-411.495" x2="-411.181" y1="424.004" y2="424.004" gradientUnits="userSpaceOnUse" gradientTransform="matrix(18.725 -19.39 -19.39 -18.725 15935.361 -13.133)"><stop offset="0" stop-color="#3A0F4D"/><stop offset=".726" stop-color="#7B1FA2"/><stop offset="1" stop-color="#9066A2"/></linearGradient><path fill="url(#k)" d="M3.3 23.48l8.32-8.62 8.62 8.32-8.32 8.62z" clip-path="url(#j)"/></svg>